<?xml version="1.0" encoding="UTF-8" standalone="no"?><svg xmlns="http://www.w3.org/2000/svg" xmlns:xlink="http://www.w3.org/1999/xlink" contentStyleType="text/css" height="499px" preserveAspectRatio="none" style="width:1015px;height:499px;background:#FFFFFF;" version="1.1" viewBox="0 0 1015 499" width="1015px" zoomAndPan="magnify"><defs/><g><!--class Commit4--><g id="elem_Commit4"><rect codeLine="2" fill="#F1F1F1" height="121.9531" id="Commit4" rx="2.5" ry="2.5" style="stroke:#181818;stroke-width:0.5;" width="182" x="778.5" y="7"/><ellipse cx="833.75" cy="23" fill="#FFFF00" rx="11" ry="11" style="stroke:#181818;stroke-width:1.0;"/><path d="M836.2231,29.1431 Q835.6421,29.4419 835.0029,29.5913 Q834.3638,29.7407 833.6582,29.7407 Q831.1514,29.7407 829.8315,28.0889 Q828.5117,26.437 828.5117,23.3159 Q828.5117,20.1865 829.8315,18.5347 Q831.1514,16.8828 833.6582,16.8828 Q834.3638,16.8828 835.0112,17.0322 Q835.6587,17.1816 836.2231,17.4805 L836.2231,20.2031 Q835.5923,19.6221 834.9988,19.3523 Q834.4053,19.0825 833.7744,19.0825 Q832.4297,19.0825 831.7449,20.1492 Q831.0601,21.2158 831.0601,23.3159 Q831.0601,25.4077 831.7449,26.4744 Q832.4297,27.541 833.7744,27.541 Q834.4053,27.541 834.9988,27.2712 Q835.5923,27.0015 836.2231,26.4204 Z " fill="#000000"/><text fill="#000000" font-family="sans-serif" font-size="14" lengthAdjust="spacing" textLength="63" x="854.25" y="28.291">Commit4</text><line style="stroke:#181818;stroke-width:0.5;" x1="779.5" x2="959.5" y1="39" y2="39"/><rect fill="none" height="6" style="stroke:#C82930;stroke-width:1.0;" width="6" x="786.5" y="49.7441"/><text fill="#000000" font-family="sans-serif" font-size="14" lengthAdjust="spacing" textLength="101" x="798.5" y="56.5352">sha: 04c8335e</text><line style="stroke:#181818;stroke-width:1.0;" x1="779.5" x2="959.5" y1="63.4883" y2="63.4883"/><text fill="#000000" font-family="sans-serif" font-size="14" lengthAdjust="spacing" textLength="166" x="784.5" y="81.0234">message: fourth commit</text><text fill="#000000" font-family="sans-serif" font-size="14" lengthAdjust="spacing" textLength="4" x="784.5" y="97.5117"> </text><line style="stroke:#181818;stroke-width:1.0;" x1="779.5" x2="959.5" y1="104.4648" y2="104.4648"/><text fill="#000000" font-family="sans-serif" font-size="14" lengthAdjust="spacing" textLength="170" x="784.5" y="122">timestamp: 1580924403</text></g><!--class Commit3--><g id="elem_Commit3"><rect codeLine="10" fill="#F1F1F1" height="121.9531" id="Commit3" rx="2.5" ry="2.5" style="stroke:#181818;stroke-width:0.5;" width="182" x="538.5" y="7"/><ellipse cx="593.75" cy="23" fill="#FFA500" rx="11" ry="11" style="stroke:#181818;stroke-width:1.0;"/><path d="M596.2231,29.1431 Q595.6421,29.4419 595.0029,29.5913 Q594.3638,29.7407 593.6582,29.7407 Q591.1514,29.7407 589.8315,28.0889 Q588.5117,26.437 588.5117,23.3159 Q588.5117,20.1865 589.8315,18.5347 Q591.1514,16.8828 593.6582,16.8828 Q594.3638,16.8828 595.0112,17.0322 Q595.6587,17.1816 596.2231,17.4805 L596.2231,20.2031 Q595.5923,19.6221 594.9988,19.3523 Q594.4053,19.0825 593.7744,19.0825 Q592.4297,19.0825 591.7449,20.1492 Q591.0601,21.2158 591.0601,23.3159 Q591.0601,25.4077 591.7449,26.4744 Q592.4297,27.541 593.7744,27.541 Q594.4053,27.541 594.9988,27.2712 Q595.5923,27.0015 596.2231,26.4204 Z " fill="#000000"/><text fill="#000000" font-family="sans-serif" font-size="14" lengthAdjust="spacing" textLength="63" x="614.25" y="28.291">Commit3</text><line style="stroke:#181818;stroke-width:0.5;" x1="539.5" x2="719.5" y1="39" y2="39"/><rect fill="none" height="6" style="stroke:#C82930;stroke-width:1.0;" width="6" x="546.5" y="49.7441"/><text fill="#000000" font-family="sans-serif" font-size="14" lengthAdjust="spacing" textLength="97" x="558.5" y="56.5352">sha: e9c3f660</text><line style="stroke:#181818;stroke-width:1.0;" x1="539.5" x2="719.5" y1="63.4883" y2="63.4883"/><text fill="#000000" font-family="sans-serif" font-size="14" lengthAdjust="spacing" textLength="156" x="544.5" y="81.0234">message: third commit</text><text fill="#000000" font-family="sans-serif" font-size="14" lengthAdjust="spacing" textLength="4" x="544.5" y="97.5117"> </text><line style="stroke:#181818;stroke-width:1.0;" x1="539.5" x2="719.5" y1="104.4648" y2="104.4648"/><text fill="#000000" font-family="sans-serif" font-size="14" lengthAdjust="spacing" textLength="170" x="544.5" y="122">timestamp: 1580924395</text></g><!--class Commit2--><g id="elem_Commit2"><rect codeLine="18" fill="#F1F1F1" height="121.9531" id="Commit2" rx="2.5" ry="2.5" style="stroke:#181818;stroke-width:0.5;" width="184" x="273.5" y="7"/><ellipse cx="329.75" cy="23" fill="#ADD8E6" rx="11" ry="11" style="stroke:#181818;stroke-width:1.0;"/><path d="M332.2231,29.1431 Q331.6421,29.4419 331.0029,29.5913 Q330.3638,29.7407 329.6582,29.7407 Q327.1514,29.7407 325.8315,28.0889 Q324.5117,26.437 324.5117,23.3159 Q324.5117,20.1865 325.8315,18.5347 Q327.1514,16.8828 329.6582,16.8828 Q330.3638,16.8828 331.0112,17.0322 Q331.6587,17.1816 332.2231,17.4805 L332.2231,20.2031 Q331.5923,19.6221 330.9988,19.3523 Q330.4053,19.0825 329.7744,19.0825 Q328.4297,19.0825 327.7449,20.1492 Q327.0601,21.2158 327.0601,23.3159 Q327.0601,25.4077 327.7449,26.4744 Q328.4297,27.541 329.7744,27.541 Q330.4053,27.541 330.9988,27.2712 Q331.5923,27.0015 332.2231,26.4204 Z " fill="#000000"/><text fill="#000000" font-family="sans-serif" font-size="14" lengthAdjust="spacing" textLength="63" x="350.25" y="28.291">Commit2</text><line style="stroke:#181818;stroke-width:0.5;" x1="274.5" x2="456.5" y1="39" y2="39"/><rect fill="none" height="6" style="stroke:#C82930;stroke-width:1.0;" width="6" x="281.5" y="49.7441"/><text fill="#000000" font-family="sans-serif" font-size="14" lengthAdjust="spacing" textLength="103" x="293.5" y="56.5352">sha: 6b3a7927</text><line style="stroke:#181818;stroke-width:1.0;" x1="274.5" x2="456.5" y1="63.4883" y2="63.4883"/><text fill="#000000" font-family="sans-serif" font-size="14" lengthAdjust="spacing" textLength="172" x="279.5" y="81.0234">message: second commit</text><text fill="#000000" font-family="sans-serif" font-size="14" lengthAdjust="spacing" textLength="4" x="279.5" y="97.5117"> </text><line style="stroke:#181818;stroke-width:1.0;" x1="274.5" x2="456.5" y1="104.4648" y2="104.4648"/><text fill="#000000" font-family="sans-serif" font-size="14" lengthAdjust="spacing" textLength="170" x="279.5" y="122">timestamp: 1580924386</text></g><!--class Commit1--><g id="elem_Commit1"><rect codeLine="26" fill="#F1F1F1" height="121.9531" id="Commit1" rx="2.5" ry="2.5" style="stroke:#181818;stroke-width:0.5;" width="182" x="39.5" y="7"/><ellipse cx="94.75" cy="23" fill="#90EE90" rx="11" ry="11" style="stroke:#181818;stroke-width:1.0;"/><path d="M97.2231,29.1431 Q96.6421,29.4419 96.0029,29.5913 Q95.3638,29.7407 94.6582,29.7407 Q92.1514,29.7407 90.8315,28.0889 Q89.5117,26.437 89.5117,23.3159 Q89.5117,20.1865 90.8315,18.5347 Q92.1514,16.8828 94.6582,16.8828 Q95.3638,16.8828 96.0112,17.0322 Q96.6587,17.1816 97.2231,17.4805 L97.2231,20.2031 Q96.5923,19.6221 95.9988,19.3523 Q95.4053,19.0825 94.7744,19.0825 Q93.4297,19.0825 92.7449,20.1492 Q92.0601,21.2158 92.0601,23.3159 Q92.0601,25.4077 92.7449,26.4744 Q93.4297,27.541 94.7744,27.541 Q95.4053,27.541 95.9988,27.2712 Q96.5923,27.0015 97.2231,26.4204 Z " fill="#000000"/><text fill="#000000" font-family="sans-serif" font-size="14" lengthAdjust="spacing" textLength="63" x="115.25" y="28.291">Commit1</text><line style="stroke:#181818;stroke-width:0.5;" x1="40.5" x2="220.5" y1="39" y2="39"/><rect fill="none" height="6" style="stroke:#C82930;stroke-width:1.0;" width="6" x="47.5" y="49.7441"/><text fill="#000000" font-family="sans-serif" font-size="14" lengthAdjust="spacing" textLength="100" x="59.5" y="56.5352">sha: 2aae0a64</text><line style="stroke:#181818;stroke-width:1.0;" x1="40.5" x2="220.5" y1="63.4883" y2="63.4883"/><text fill="#000000" font-family="sans-serif" font-size="14" lengthAdjust="spacing" textLength="150" x="45.5" y="81.0234">message: first commit</text><text fill="#000000" font-family="sans-serif" font-size="14" lengthAdjust="spacing" textLength="4" x="45.5" y="97.5117"> </text><line style="stroke:#181818;stroke-width:1.0;" x1="40.5" x2="220.5" y1="104.4648" y2="104.4648"/><text fill="#000000" font-family="sans-serif" font-size="14" lengthAdjust="spacing" textLength="170" x="45.5" y="122">timestamp: 1580924369</text></g><!--class Tree4--><g id="elem_Tree4"><rect codeLine="34" fill="#F1F1F1" height="130.4414" id="Tree4" rx="2.5" ry="2.5" style="stroke:#181818;stroke-width:0.5;" width="229" x="779" y="189"/><ellipse cx="869.25" cy="205" fill="#FFFF00" rx="11" ry="11" style="stroke:#181818;stroke-width:1.0;"/><path d="M870.5918,212.25 L868.1431,212.25 L868.1431,201.9985 L864.9971,201.9985 L864.9971,199.8569 L873.7378,199.8569 L873.7378,201.9985 L870.5918,201.9985 Z " fill="#000000"/><text fill="#000000" font-family="sans-serif" font-size="14" lengthAdjust="spacing" textLength="40" x="889.75" y="210.291">Tree4</text><line style="stroke:#181818;stroke-width:0.5;" x1="780" x2="1007" y1="221" y2="221"/><rect fill="none" height="6" style="stroke:#C82930;stroke-width:1.0;" width="6" x="787" y="231.7441"/><text fill="#000000" font-family="sans-serif" font-size="14" lengthAdjust="spacing" textLength="98" x="799" y="238.5352">sha: a5ed01df</text><line style="stroke:#181818;stroke-width:1.0;" x1="780" x2="1007" y1="245.4883" y2="245.4883"/><polygon fill="none" points="790,254.2324,794,258.2324,790,262.2324,786,258.2324" style="stroke:#B38D22;stroke-width:1.0;"/><text fill="#000000" font-family="sans-serif" font-size="14" lengthAdjust="spacing" textLength="184" x="799" y="263.0234">first.txt 100644 7d914532</text><polygon fill="none" points="790,270.7207,794,274.7207,790,278.7207,786,274.7207" style="stroke:#B38D22;stroke-width:1.0;"/><text fill="#000000" font-family="sans-serif" font-size="14" lengthAdjust="spacing" textLength="203" x="799" y="279.5117">second.txt 100644 9649cde9</text><polygon fill="none" points="790,287.209,794,291.209,790,295.209,786,291.209" style="stroke:#B38D22;stroke-width:1.0;"/><text fill="#000000" font-family="sans-serif" font-size="14" lengthAdjust="spacing" textLength="187" x="799" y="296">third.txt 100644 9649cde9</text><text fill="#000000" font-family="sans-serif" font-size="14" lengthAdjust="spacing" textLength="4" x="799" y="312.4883"> </text></g><!--class Tree3--><g id="elem_Tree3"><rect codeLine="42" fill="#F1F1F1" height="130.4414" id="Tree3" rx="2.5" ry="2.5" style="stroke:#181818;stroke-width:0.5;" width="229" x="515" y="189"/><ellipse cx="605.25" cy="205" fill="#FFA500" rx="11" ry="11" style="stroke:#181818;stroke-width:1.0;"/><path d="M606.5918,212.25 L604.1431,212.25 L604.1431,201.9985 L600.9971,201.9985 L600.9971,199.8569 L609.7378,199.8569 L609.7378,201.9985 L606.5918,201.9985 Z " fill="#000000"/><text fill="#000000" font-family="sans-serif" font-size="14" lengthAdjust="spacing" textLength="40" x="625.75" y="210.291">Tree3</text><line style="stroke:#181818;stroke-width:0.5;" x1="516" x2="743" y1="221" y2="221"/><rect fill="none" height="6" style="stroke:#C82930;stroke-width:1.0;" width="6" x="523" y="231.7441"/><text fill="#000000" font-family="sans-serif" font-size="14" lengthAdjust="spacing" textLength="103" x="535" y="238.5352">sha: d49117a7</text><line style="stroke:#181818;stroke-width:1.0;" x1="516" x2="743" y1="245.4883" y2="245.4883"/><polygon fill="none" points="526,254.2324,530,258.2324,526,262.2324,522,258.2324" style="stroke:#B38D22;stroke-width:1.0;"/><text fill="#000000" font-family="sans-serif" font-size="14" lengthAdjust="spacing" textLength="181" x="535" y="263.0234">first.txt 100644 9649cde9</text><polygon fill="none" points="526,270.7207,530,274.7207,526,278.7207,522,274.7207" style="stroke:#B38D22;stroke-width:1.0;"/><text fill="#000000" font-family="sans-serif" font-size="14" lengthAdjust="spacing" textLength="203" x="535" y="279.5117">second.txt 100644 9649cde9</text><polygon fill="none" points="526,287.209,530,291.209,526,295.209,522,291.209" style="stroke:#B38D22;stroke-width:1.0;"/><text fill="#000000" font-family="sans-serif" font-size="14" lengthAdjust="spacing" textLength="187" x="535" y="296">third.txt 100644 9649cde9</text><text fill="#000000" font-family="sans-serif" font-size="14" lengthAdjust="spacing" textLength="4" x="535" y="312.4883"> </text></g><!--class Tree2--><g id="elem_Tree2"><rect codeLine="50" fill="#F1F1F1" height="113.9531" id="Tree2" rx="2.5" ry="2.5" style="stroke:#181818;stroke-width:0.5;" width="229" x="251" y="197"/><ellipse cx="341.25" cy="213" fill="#ADD8E6" rx="11" ry="11" style="stroke:#181818;stroke-width:1.0;"/><path d="M342.5918,220.25 L340.1431,220.25 L340.1431,209.9985 L336.9971,209.9985 L336.9971,207.8569 L345.7378,207.8569 L345.7378,209.9985 L342.5918,209.9985 Z " fill="#000000"/><text fill="#000000" font-family="sans-serif" font-size="14" lengthAdjust="spacing" textLength="40" x="361.75" y="218.291">Tree2</text><line style="stroke:#181818;stroke-width:0.5;" x1="252" x2="479" y1="229" y2="229"/><rect fill="none" height="6" style="stroke:#C82930;stroke-width:1.0;" width="6" x="259" y="239.7441"/><text fill="#000000" font-family="sans-serif" font-size="14" lengthAdjust="spacing" textLength="104" x="271" y="246.5352">sha: 73d4372b</text><line style="stroke:#181818;stroke-width:1.0;" x1="252" x2="479" y1="253.4883" y2="253.4883"/><polygon fill="none" points="262,262.2324,266,266.2324,262,270.2324,258,266.2324" style="stroke:#B38D22;stroke-width:1.0;"/><text fill="#000000" font-family="sans-serif" font-size="14" lengthAdjust="spacing" textLength="181" x="271" y="271.0234">first.txt 100644 9649cde9</text><polygon fill="none" points="262,278.7207,266,282.7207,262,286.7207,258,282.7207" style="stroke:#B38D22;stroke-width:1.0;"/><text fill="#000000" font-family="sans-serif" font-size="14" lengthAdjust="spacing" textLength="203" x="271" y="287.5117">second.txt 100644 9649cde9</text><text fill="#000000" font-family="sans-serif" font-size="14" lengthAdjust="spacing" textLength="4" x="271" y="304"> </text></g><!--class Tree1--><g id="elem_Tree1"><rect codeLine="57" fill="#F1F1F1" height="97.4648" id="Tree1" rx="2.5" ry="2.5" style="stroke:#181818;stroke-width:0.5;" width="207" x="9" y="205.5"/><ellipse cx="88.25" cy="221.5" fill="#90EE90" rx="11" ry="11" style="stroke:#181818;stroke-width:1.0;"/><path d="M89.5918,228.75 L87.1431,228.75 L87.1431,218.4985 L83.9971,218.4985 L83.9971,216.3569 L92.7378,216.3569 L92.7378,218.4985 L89.5918,218.4985 Z " fill="#000000"/><text fill="#000000" font-family="sans-serif" font-size="14" lengthAdjust="spacing" textLength="40" x="108.75" y="226.791">Tree1</text><line style="stroke:#181818;stroke-width:0.5;" x1="10" x2="215" y1="237.5" y2="237.5"/><rect fill="none" height="6" style="stroke:#C82930;stroke-width:1.0;" width="6" x="17" y="248.2441"/><text fill="#000000" font-family="sans-serif" font-size="14" lengthAdjust="spacing" textLength="98" x="29" y="255.0352">sha: 5b9ddc8f</text><line style="stroke:#181818;stroke-width:1.0;" x1="10" x2="215" y1="261.9883" y2="261.9883"/><polygon fill="none" points="20,270.7324,24,274.7324,20,278.7324,16,274.7324" style="stroke:#B38D22;stroke-width:1.0;"/><text fill="#000000" font-family="sans-serif" font-size="14" lengthAdjust="spacing" textLength="181" x="29" y="279.5234">first.txt 100644 9649cde9</text><text fill="#000000" font-family="sans-serif" font-size="14" lengthAdjust="spacing" textLength="4" x="29" y="296.0117"> </text></g><!--class Blob1--><g id="elem_Blob1"><rect codeLine="63" fill="#F1F1F1" height="97.4648" id="Blob1" rx="2.5" ry="2.5" style="stroke:#181818;stroke-width:0.5;" width="127" x="566" y="387.5"/><ellipse cx="606.2" cy="403.5" fill="#90EE90" rx="11" ry="11" style="stroke:#181818;stroke-width:1.0;"/><path d="M604.6033,404.8721 L604.6033,408.541 L606.2303,408.541 Q607.4007,408.541 607.8697,408.1426 Q608.3387,407.7441 608.3387,406.7563 Q608.3387,405.752 607.8489,405.312 Q607.3592,404.8721 606.2303,404.8721 Z M604.6033,400.041 L604.6033,402.9214 L606.2303,402.9214 Q607.16,402.9214 607.5542,402.5894 Q607.9485,402.2573 607.9485,401.4937 Q607.9485,400.73 607.5459,400.3855 Q607.1434,400.041 606.2303,400.041 Z M602.2376,398.0903 L606.2303,398.0903 Q608.2972,398.0903 609.3389,398.8748 Q610.3807,399.6592 610.3807,401.2197 Q610.3807,402.415 609.7664,403.0874 Q609.1521,403.7598 607.9651,403.8677 Q609.3846,404.0088 610.1026,404.8223 Q610.8206,405.6357 610.8206,407.0967 Q610.8206,408.8896 609.7415,409.6948 Q608.6624,410.5 606.2303,410.5 L602.2376,410.5 Z " fill="#000000"/><text fill="#000000" font-family="sans-serif" font-size="14" lengthAdjust="spacing" textLength="39" x="625.8" y="408.791">Blob1</text><line style="stroke:#181818;stroke-width:0.5;" x1="567" x2="692" y1="419.5" y2="419.5"/><rect fill="none" height="6" style="stroke:#C82930;stroke-width:1.0;" width="6" x="574" y="430.2441"/><text fill="#000000" font-family="sans-serif" font-size="14" lengthAdjust="spacing" textLength="101" x="586" y="437.0352">sha: 9649cde9</text><line style="stroke:#181818;stroke-width:1.0;" x1="567" x2="692" y1="443.9883" y2="443.9883"/><text fill="#000000" font-family="sans-serif" font-size="14" lengthAdjust="spacing" textLength="59" x="572" y="461.5234">First line</text><text fill="#000000" font-family="sans-serif" font-size="14" lengthAdjust="spacing" textLength="4" x="572" y="478.0117"> </text></g><!--class Blob2--><g id="elem_Blob2"><rect codeLine="69" fill="#F1F1F1" height="113.9531" id="Blob2" rx="2.5" ry="2.5" style="stroke:#181818;stroke-width:0.5;" width="130" x="828.5" y="379"/><ellipse cx="870.05" cy="395" fill="#FFFF00" rx="11" ry="11" style="stroke:#181818;stroke-width:1.0;"/><path d="M868.4533,396.3721 L868.4533,400.041 L870.0803,400.041 Q871.2507,400.041 871.7197,399.6426 Q872.1887,399.2441 872.1887,398.2563 Q872.1887,397.252 871.6989,396.812 Q871.2092,396.3721 870.0803,396.3721 Z M868.4533,391.541 L868.4533,394.4214 L870.0803,394.4214 Q871.01,394.4214 871.4042,394.0894 Q871.7985,393.7573 871.7985,392.9937 Q871.7985,392.23 871.3959,391.8855 Q870.9934,391.541 870.0803,391.541 Z M866.0876,389.5903 L870.0803,389.5903 Q872.1472,389.5903 873.1889,390.3748 Q874.2307,391.1592 874.2307,392.7197 Q874.2307,393.915 873.6164,394.5874 Q873.0021,395.2598 871.8151,395.3677 Q873.2346,395.5088 873.9526,396.3223 Q874.6706,397.1357 874.6706,398.5967 Q874.6706,400.3896 873.5915,401.1948 Q872.5124,402 870.0803,402 L866.0876,402 Z " fill="#000000"/><text fill="#000000" font-family="sans-serif" font-size="14" lengthAdjust="spacing" textLength="39" x="889.95" y="400.291">Blob2</text><line style="stroke:#181818;stroke-width:0.5;" x1="829.5" x2="957.5" y1="411" y2="411"/><rect fill="none" height="6" style="stroke:#C82930;stroke-width:1.0;" width="6" x="836.5" y="421.7441"/><text fill="#000000" font-family="sans-serif" font-size="14" lengthAdjust="spacing" textLength="104" x="848.5" y="428.5352">sha: 7d914532</text><line style="stroke:#181818;stroke-width:1.0;" x1="829.5" x2="957.5" y1="435.4883" y2="435.4883"/><text fill="#000000" font-family="sans-serif" font-size="14" lengthAdjust="spacing" textLength="59" x="834.5" y="453.0234">First line</text><text fill="#000000" font-family="sans-serif" font-size="14" lengthAdjust="spacing" textLength="79" x="834.5" y="469.5117">Second line</text><text fill="#000000" font-family="sans-serif" font-size="14" lengthAdjust="spacing" textLength="4" x="834.5" y="486"> </text></g><!--link Commit4 to Tree4--><g id="link_Commit4_Tree4"><path codeLine="76" d="M877.36,129.25 C879.57,146.24 882.01,164.87 884.29,182.41 " fill="none" id="Commit4-to-Tree4" style="stroke:#181818;stroke-width:1.0;"/><polygon fill="#181818" points="884.93,187.31,887.7393,177.8703,884.287,182.3515,879.8058,178.8992,884.93,187.31" style="stroke:#181818;stroke-width:1.0;"/></g><!--link Commit3 to Tree3--><g id="link_Commit3_Tree3"><path codeLine="77" d="M629.5,129.25 C629.5,146.24 629.5,164.87 629.5,182.41 " fill="none" id="Commit3-to-Tree3" style="stroke:#181818;stroke-width:1.0;"/><polygon fill="#181818" points="629.5,187.3,633.5,178.3,629.5,182.3,625.5,178.3,629.5,187.3" style="stroke:#181818;stroke-width:1.0;"/></g><!--link Commit2 to Tree2--><g id="link_Commit2_Tree2"><path codeLine="78" d="M365.5,129.25 C365.5,148.83 365.5,170.59 365.5,190.34 " fill="none" id="Commit2-to-Tree2" style="stroke:#181818;stroke-width:1.0;"/><polygon fill="#181818" points="365.5,195.16,369.5,186.16,365.5,190.16,361.5,186.16,365.5,195.16" style="stroke:#181818;stroke-width:1.0;"/></g><!--link Commit1 to Tree1--><g id="link_Commit1_Tree1"><path codeLine="79" d="M124.61,129.25 C122.41,151.67 119.94,176.95 117.8,198.79 " fill="none" id="Commit1-to-Tree1" style="stroke:#181818;stroke-width:1.0;"/><polygon fill="#181818" points="117.33,203.65,122.1838,195.0803,117.8148,198.6736,114.2215,194.3046,117.33,203.65" style="stroke:#181818;stroke-width:1.0;"/></g><!--link Tree4 to Blob2--><g id="link_Tree4_Blob2"><path codeLine="80" d="M893.5,319.48 C893.5,336.73 893.5,355.34 893.5,372.48 " fill="none" id="Tree4-to-Blob2" style="stroke:#181818;stroke-width:1.0;"/><polygon fill="#181818" points="893.5,377.21,897.5,368.21,893.5,372.21,889.5,368.21,893.5,377.21" style="stroke:#181818;stroke-width:1.0;"/></g><!--link Tree4 to Blob1--><g id="link_Tree4_Blob1"><path codeLine="81" d="M786.65,319.48 C755.08,340.46 721.55,363.47 693.54,383.39 " fill="none" id="Tree4-to-Blob1" style="stroke:#181818;stroke-width:1.0;"/><polygon fill="#181818" points="689.61,386.19,699.2612,384.2266,693.6825,383.2892,694.6199,377.7106,689.61,386.19" style="stroke:#181818;stroke-width:1.0;"/></g><!--link Tree4 to Blob1--><g id="link_Tree4_Blob1"><path codeLine="82" d="M811.94,319.48 C775.58,344.96 733.31,373.41 698.51,395.7 " fill="none" id="Tree4-to-Blob1-1" style="stroke:#181818;stroke-width:1.0;"/><polygon fill="#181818" points="694.71,398.13,704.4459,396.6429,698.9201,395.4327,700.1303,389.9068,694.71,398.13" style="stroke:#181818;stroke-width:1.0;"/></g><!--link Tree3 to Blob1--><g id="link_Tree3_Blob1"><path codeLine="83" d="M604.21,319.48 C602.66,339.51 602.98,361.37 605.17,380.64 " fill="none" id="Tree3-to-Blob1" style="stroke:#181818;stroke-width:1.0;"/><polygon fill="#181818" points="605.8,385.57,608.6361,376.1383,605.171,380.6097,600.6996,377.1447,605.8,385.57" style="stroke:#181818;stroke-width:1.0;"/></g><!--link Tree3 to Blob1--><g id="link_Tree3_Blob1"><path codeLine="84" d="M629.5,319.48 C629.5,339.51 629.5,361.37 629.5,380.64 " fill="none" id="Tree3-to-Blob1-1" style="stroke:#181818;stroke-width:1.0;"/><polygon fill="#181818" points="629.5,385.56,633.5,376.56,629.5,380.56,625.5,376.56,629.5,385.56" style="stroke:#181818;stroke-width:1.0;"/></g><!--link Tree3 to Blob1--><g id="link_Tree3_Blob1"><path codeLine="85" d="M654.79,319.48 C656.34,339.51 656.02,361.37 653.83,380.64 " fill="none" id="Tree3-to-Blob1-2" style="stroke:#181818;stroke-width:1.0;"/><polygon fill="#181818" points="653.2,385.57,658.3004,377.1447,653.829,380.6097,650.3639,376.1383,653.2,385.57" style="stroke:#181818;stroke-width:1.0;"/></g><!--link Tree2 to Blob1--><g id="link_Tree2_Blob1"><path codeLine="86" d="M436.38,311.46 C474.93,338.69 522.26,370.71 560.52,395.32 " fill="none" id="Tree2-to-Blob1" style="stroke:#181818;stroke-width:1.0;"/><polygon fill="#181818" points="564.35,397.77,558.9297,389.5468,560.1399,395.0727,554.6141,396.2829,564.35,397.77" style="stroke:#181818;stroke-width:1.0;"/></g><!--link Tree2 to Blob1--><g id="link_Tree2_Blob1"><path codeLine="87" d="M460.94,311.46 C496.07,334.56 534.88,361.09 566.49,383.63 " fill="none" id="Tree2-to-Blob1-1" style="stroke:#181818;stroke-width:1.0;"/><polygon fill="#181818" points="570.27,386.34,565.2601,377.8606,566.1975,383.4392,560.6188,384.3766,570.27,386.34" style="stroke:#181818;stroke-width:1.0;"/></g><!--link Tree1 to Blob1--><g id="link_Tree1_Blob1"><path codeLine="88" d="M198.07,302.97 C209.81,308.74 221.83,314.26 233.5,319 C344.44,364.05 479.33,399.72 559.59,419.06 " fill="none" id="Tree1-to-Blob1" style="stroke:#181818;stroke-width:1.0;"/><polygon fill="#181818" points="564.28,420.18,556.4687,414.1814,559.4194,419.0077,554.593,421.9584,564.28,420.18" style="stroke:#181818;stroke-width:1.0;"/></g><!--reverse link Commit3 to Commit4--><g id="link_Commit3_Commit4"><path codeLine="89" d="M727.16,68 C744.13,68 761.11,68 778.08,68 " fill="none" id="Commit3-backto-Commit4" style="stroke:#181818;stroke-width:1.0;"/><polygon fill="#181818" points="722.42,68,731.42,72,727.42,68,731.42,64,722.42,68" style="stroke:#181818;stroke-width:1.0;"/></g><!--reverse link Commit2 to Commit3--><g id="link_Commit2_Commit3"><path codeLine="90" d="M464.08,68 C488.82,68 513.55,68 538.28,68 " fill="none" id="Commit2-backto-Commit3" style="stroke:#181818;stroke-width:1.0;"/><polygon fill="#181818" points="459.31,68,468.31,72,464.31,68,468.31,64,459.31,68" style="stroke:#181818;stroke-width:1.0;"/></g><!--reverse link Commit1 to Commit2--><g id="link_Commit1_Commit2"><path codeLine="91" d="M228.26,68 C243.23,68 258.21,68 273.19,68 " fill="none" id="Commit1-backto-Commit2" style="stroke:#181818;stroke-width:1.0;"/><polygon fill="#181818" points="223.35,68,232.35,72,228.35,68,232.35,64,223.35,68" style="stroke:#181818;stroke-width:1.0;"/></g><!--SRC=[hPDBJiCm48RtFeKbDY0H53_Yn5NLHIjn0RY0OpiFAG-Kk0A4k3jfJ1AdJOaGB6T6yt__UCQo46qB3tLPveR2xVRsSF-kYw9-lTlju0Vmsanie4zbH4YWWUU1KhUjIFK69lMnCHcKVIiubKpU5OqeNpOG1P7FCQK-0Pz0EWnY6NKZgbIx3CqbIHZpPmoJvOtw6K5uS8R05b7aQMRYuZYZi9Y8aEDmHccrhAirJCJECCZ1f8tMbSl1GcXVC3f_iRnfpGg6yH7pt8dsAtbUM8a8jFAHIauoDrRvmRmPY7oVKGf3nH4D2EvgTZgto1dbKcdU5Vi7NgpDR11hut9hYdA4GX5UiU6G_iC6jZOMDniIHKc8upyvcT6GGxjOS11pfMIKhE56nNrHnxtY_ehYsD8fFlQNKkILdWjWAt1v3kE-vyrFzh87eU6RUzxENXSOFkMG8M3uGqC6W-7SXmm2zZ9FSM_gB4QBCVbbZ5TYvCJZN4MN-Xvf6crAuccwAOd05m00]--></g></svg>