<?xml version="1.0" encoding="UTF-8" standalone="no"?><svg xmlns="http://www.w3.org/2000/svg" xmlns:xlink="http://www.w3.org/1999/xlink" contentStyleType="text/css" height="377px" preserveAspectRatio="none" style="width:534px;height:377px;background:#FFFFFF;" version="1.1" viewBox="0 0 534 377" width="534px" zoomAndPan="magnify"><defs/><g><!--cluster Connect Cluster--><g id="cluster_Connect Cluster"><rect fill="#E9D1DF" height="207" rx="2.5" ry="2.5" style="stroke:#181818;stroke-width:1.0;" width="131" x="113.5" y="56"/><text fill="#000000" font-family="sans-serif" font-size="14" font-weight="bold" lengthAdjust="spacing" textLength="115" x="121.5" y="71.5352">Connect Cluster</text></g><!--cluster Kafka Cluster--><g id="cluster_Kafka Cluster"><rect fill="#E9D1DF" height="315" rx="2.5" ry="2.5" style="stroke:#181818;stroke-width:1.0;" width="118" x="268.5" y="56"/><text fill="#000000" font-family="sans-serif" font-size="14" font-weight="bold" lengthAdjust="spacing" textLength="98" x="278.5" y="71.5352">Kafka Cluster</text></g><!--class Worker--><g id="elem_Worker"><rect codeLine="6" fill="#F1F1F1" height="48" id="Worker" rx="2.5" ry="2.5" style="stroke:#181818;stroke-width:0.5;" width="81" x="138" y="91"/><ellipse cx="153" cy="107" fill="#ADD1B2" rx="11" ry="11" style="stroke:#181818;stroke-width:1.0;"/><path d="M155.4731,113.1431 Q154.8921,113.4419 154.2529,113.5913 Q153.6138,113.7407 152.9082,113.7407 Q150.4014,113.7407 149.0815,112.0889 Q147.7617,110.437 147.7617,107.3159 Q147.7617,104.1865 149.0815,102.5347 Q150.4014,100.8828 152.9082,100.8828 Q153.6138,100.8828 154.2612,101.0322 Q154.9087,101.1816 155.4731,101.4805 L155.4731,104.2031 Q154.8423,103.6221 154.2488,103.3523 Q153.6553,103.0825 153.0244,103.0825 Q151.6797,103.0825 150.9949,104.1492 Q150.3101,105.2158 150.3101,107.3159 Q150.3101,109.4077 150.9949,110.4744 Q151.6797,111.541 153.0244,111.541 Q153.6553,111.541 154.2488,111.2712 Q154.8423,111.0015 155.4731,110.4204 Z " fill="#000000"/><text fill="#000000" font-family="sans-serif" font-size="14" lengthAdjust="spacing" textLength="49" x="167" y="112.291">Worker</text><line style="stroke:#181818;stroke-width:0.5;" x1="139" x2="218" y1="123" y2="123"/><line style="stroke:#181818;stroke-width:0.5;" x1="139" x2="218" y1="131" y2="131"/></g><!--class Worker2--><g id="elem_Worker2"><rect codeLine="7" fill="#F1F1F1" height="48" id="Worker2" rx="2.5" ry="2.5" style="stroke:#181818;stroke-width:0.5;" width="90" x="133.5" y="199"/><ellipse cx="148.5" cy="215" fill="#ADD1B2" rx="11" ry="11" style="stroke:#181818;stroke-width:1.0;"/><path d="M150.9731,221.1431 Q150.3921,221.4419 149.7529,221.5913 Q149.1138,221.7407 148.4082,221.7407 Q145.9014,221.7407 144.5815,220.0889 Q143.2617,218.437 143.2617,215.3159 Q143.2617,212.1865 144.5815,210.5347 Q145.9014,208.8828 148.4082,208.8828 Q149.1138,208.8828 149.7612,209.0322 Q150.4087,209.1816 150.9731,209.4805 L150.9731,212.2031 Q150.3423,211.6221 149.7488,211.3523 Q149.1553,211.0825 148.5244,211.0825 Q147.1797,211.0825 146.4949,212.1492 Q145.8101,213.2158 145.8101,215.3159 Q145.8101,217.4077 146.4949,218.4744 Q147.1797,219.541 148.5244,219.541 Q149.1553,219.541 149.7488,219.2712 Q150.3423,219.0015 150.9731,218.4204 Z " fill="#000000"/><text fill="#000000" font-family="sans-serif" font-size="14" lengthAdjust="spacing" textLength="58" x="162.5" y="220.291">Worker2</text><line style="stroke:#181818;stroke-width:0.5;" x1="134.5" x2="222.5" y1="231" y2="231"/><line style="stroke:#181818;stroke-width:0.5;" x1="134.5" x2="222.5" y1="239" y2="239"/></g><!--class Broker--><g id="elem_Broker"><rect codeLine="12" fill="#F1F1F1" height="48" id="Broker" rx="2.5" ry="2.5" style="stroke:#181818;stroke-width:0.5;" width="77" x="289" y="91"/><ellipse cx="304" cy="107" fill="#ADD1B2" rx="11" ry="11" style="stroke:#181818;stroke-width:1.0;"/><path d="M306.4731,113.1431 Q305.8921,113.4419 305.2529,113.5913 Q304.6138,113.7407 303.9082,113.7407 Q301.4014,113.7407 300.0815,112.0889 Q298.7617,110.437 298.7617,107.3159 Q298.7617,104.1865 300.0815,102.5347 Q301.4014,100.8828 303.9082,100.8828 Q304.6138,100.8828 305.2612,101.0322 Q305.9087,101.1816 306.4731,101.4805 L306.4731,104.2031 Q305.8423,103.6221 305.2488,103.3523 Q304.6553,103.0825 304.0244,103.0825 Q302.6797,103.0825 301.9949,104.1492 Q301.3101,105.2158 301.3101,107.3159 Q301.3101,109.4077 301.9949,110.4744 Q302.6797,111.541 304.0244,111.541 Q304.6553,111.541 305.2488,111.2712 Q305.8423,111.0015 306.4731,110.4204 Z " fill="#000000"/><text fill="#000000" font-family="sans-serif" font-size="14" lengthAdjust="spacing" textLength="45" x="318" y="112.291">Broker</text><line style="stroke:#181818;stroke-width:0.5;" x1="290" x2="365" y1="123" y2="123"/><line style="stroke:#181818;stroke-width:0.5;" x1="290" x2="365" y1="131" y2="131"/></g><!--class Broker2--><g id="elem_Broker2"><rect codeLine="13" fill="#F1F1F1" height="48" id="Broker2" rx="2.5" ry="2.5" style="stroke:#181818;stroke-width:0.5;" width="86" x="284.5" y="199"/><ellipse cx="299.5" cy="215" fill="#ADD1B2" rx="11" ry="11" style="stroke:#181818;stroke-width:1.0;"/><path d="M301.9731,221.1431 Q301.3921,221.4419 300.7529,221.5913 Q300.1138,221.7407 299.4082,221.7407 Q296.9014,221.7407 295.5815,220.0889 Q294.2617,218.437 294.2617,215.3159 Q294.2617,212.1865 295.5815,210.5347 Q296.9014,208.8828 299.4082,208.8828 Q300.1138,208.8828 300.7612,209.0322 Q301.4087,209.1816 301.9731,209.4805 L301.9731,212.2031 Q301.3423,211.6221 300.7488,211.3523 Q300.1553,211.0825 299.5244,211.0825 Q298.1797,211.0825 297.4949,212.1492 Q296.8101,213.2158 296.8101,215.3159 Q296.8101,217.4077 297.4949,218.4744 Q298.1797,219.541 299.5244,219.541 Q300.1553,219.541 300.7488,219.2712 Q301.3423,219.0015 301.9731,218.4204 Z " fill="#000000"/><text fill="#000000" font-family="sans-serif" font-size="14" lengthAdjust="spacing" textLength="54" x="313.5" y="220.291">Broker2</text><line style="stroke:#181818;stroke-width:0.5;" x1="285.5" x2="369.5" y1="231" y2="231"/><line style="stroke:#181818;stroke-width:0.5;" x1="285.5" x2="369.5" y1="239" y2="239"/></g><!--class Broker3--><g id="elem_Broker3"><rect codeLine="14" fill="#F1F1F1" height="48" id="Broker3" rx="2.5" ry="2.5" style="stroke:#181818;stroke-width:0.5;" width="86" x="284.5" y="307"/><ellipse cx="299.5" cy="323" fill="#ADD1B2" rx="11" ry="11" style="stroke:#181818;stroke-width:1.0;"/><path d="M301.9731,329.1431 Q301.3921,329.4419 300.7529,329.5913 Q300.1138,329.7407 299.4082,329.7407 Q296.9014,329.7407 295.5815,328.0889 Q294.2617,326.437 294.2617,323.3159 Q294.2617,320.1865 295.5815,318.5347 Q296.9014,316.8828 299.4082,316.8828 Q300.1138,316.8828 300.7612,317.0322 Q301.4087,317.1816 301.9731,317.4805 L301.9731,320.2031 Q301.3423,319.6221 300.7488,319.3523 Q300.1553,319.0825 299.5244,319.0825 Q298.1797,319.0825 297.4949,320.1492 Q296.8101,321.2158 296.8101,323.3159 Q296.8101,325.4077 297.4949,326.4744 Q298.1797,327.541 299.5244,327.541 Q300.1553,327.541 300.7488,327.2712 Q301.3423,327.0015 301.9731,326.4204 Z " fill="#000000"/><text fill="#000000" font-family="sans-serif" font-size="14" lengthAdjust="spacing" textLength="54" x="313.5" y="328.291">Broker3</text><line style="stroke:#181818;stroke-width:0.5;" x1="285.5" x2="369.5" y1="339" y2="339"/><line style="stroke:#181818;stroke-width:0.5;" x1="285.5" x2="369.5" y1="347" y2="347"/></g><!--class Twitter--><g id="elem_Twitter"><rect codeLine="2" fill="#F1F1F1" height="48" id="Twitter" rx="2.5" ry="2.5" style="stroke:#181818;stroke-width:0.5;" width="80" x="17.5" y="91"/><ellipse cx="32.5" cy="107" fill="#ADD1B2" rx="11" ry="11" style="stroke:#181818;stroke-width:1.0;"/><path d="M34.9731,113.1431 Q34.3921,113.4419 33.7529,113.5913 Q33.1138,113.7407 32.4082,113.7407 Q29.9014,113.7407 28.5815,112.0889 Q27.2617,110.437 27.2617,107.3159 Q27.2617,104.1865 28.5815,102.5347 Q29.9014,100.8828 32.4082,100.8828 Q33.1138,100.8828 33.7612,101.0322 Q34.4087,101.1816 34.9731,101.4805 L34.9731,104.2031 Q34.3423,103.6221 33.7488,103.3523 Q33.1553,103.0825 32.5244,103.0825 Q31.1797,103.0825 30.4949,104.1492 Q29.8101,105.2158 29.8101,107.3159 Q29.8101,109.4077 30.4949,110.4744 Q31.1797,111.541 32.5244,111.541 Q33.1553,111.541 33.7488,111.2712 Q34.3423,111.0015 34.9731,110.4204 Z " fill="#000000"/><text fill="#000000" font-family="sans-serif" font-size="14" lengthAdjust="spacing" textLength="48" x="46.5" y="112.291">Twitter</text><line style="stroke:#181818;stroke-width:0.5;" x1="18.5" x2="96.5" y1="123" y2="123"/><line style="stroke:#181818;stroke-width:0.5;" x1="18.5" x2="96.5" y1="131" y2="131"/></g><!--class Consumer--><g id="elem_Consumer"><rect fill="#F1F1F1" height="48" id="Consumer" rx="2.5" ry="2.5" style="stroke:#181818;stroke-width:0.5;" width="103" x="403" y="91"/><ellipse cx="418" cy="107" fill="#ADD1B2" rx="11" ry="11" style="stroke:#181818;stroke-width:1.0;"/><path d="M420.4731,113.1431 Q419.8921,113.4419 419.2529,113.5913 Q418.6138,113.7407 417.9082,113.7407 Q415.4014,113.7407 414.0815,112.0889 Q412.7617,110.437 412.7617,107.3159 Q412.7617,104.1865 414.0815,102.5347 Q415.4014,100.8828 417.9082,100.8828 Q418.6138,100.8828 419.2612,101.0322 Q419.9087,101.1816 420.4731,101.4805 L420.4731,104.2031 Q419.8423,103.6221 419.2488,103.3523 Q418.6553,103.0825 418.0244,103.0825 Q416.6797,103.0825 415.9949,104.1492 Q415.3101,105.2158 415.3101,107.3159 Q415.3101,109.4077 415.9949,110.4744 Q416.6797,111.541 418.0244,111.541 Q418.6553,111.541 419.2488,111.2712 Q419.8423,111.0015 420.4731,110.4204 Z " fill="#000000"/><text fill="#000000" font-family="sans-serif" font-size="14" lengthAdjust="spacing" textLength="71" x="432" y="112.291">Consumer</text><line style="stroke:#181818;stroke-width:0.5;" x1="404" x2="505" y1="123" y2="123"/><line style="stroke:#181818;stroke-width:0.5;" x1="404" x2="505" y1="131" y2="131"/></g><g id="elem_GMN17"><path d="M382,6 L382,31.3105 A0,0 0 0 0 382,31.3105 L450.5,31.3105 L454.5,90.56 L458.5,31.3105 L527,31.3105 A0,0 0 0 0 527,31.3105 L527,16 L517,6 L382,6 A0,0 0 0 0 382,6 " fill="#90EE90" style="stroke:#181818;stroke-width:0.5;"/><path d="M517,6 L517,16 L527,16 L517,6 " fill="#90EE90" style="stroke:#181818;stroke-width:0.5;"/><text fill="#000000" font-family="sans-serif" font-size="13" lengthAdjust="spacing" textLength="124" x="388" y="23.5684">cli kafka comsumer</text></g><g id="elem_GMN20"><path d="M6,6 L6,31.3105 A0,0 0 0 0 6,31.3105 L53.5,31.3105 L57.5,90.56 L61.5,31.3105 L109,31.3105 A0,0 0 0 0 109,31.3105 L109,16 L99,6 L6,6 A0,0 0 0 0 6,6 " fill="#90EE90" style="stroke:#181818;stroke-width:0.5;"/><path d="M99,6 L99,16 L109,16 L99,6 " fill="#90EE90" style="stroke:#181818;stroke-width:0.5;"/><text fill="#000000" font-family="sans-serif" font-size="13" lengthAdjust="spacing" textLength="82" x="12" y="23.5684">*java* tweets</text></g><!--link Twitter to Worker--><g id="link_Twitter_Worker"><path codeLine="5" d="M97.68,115 C108.95,115 120.23,115 131.51,115 " fill="none" id="Twitter-to-Worker" style="stroke:#181818;stroke-width:1.0;"/><polygon fill="#181818" points="136.26,115,127.26,111,131.26,115,127.26,119,136.26,115" style="stroke:#181818;stroke-width:1.0;"/></g><!--link Worker to Broker--><g id="link_Worker_Broker"><path codeLine="11" d="M219.24,115 C240.19,115 261.14,115 282.09,115 " fill="none" id="Worker-to-Broker" style="stroke:#181818;stroke-width:1.0;"/><polygon fill="#181818" points="287.08,115,278.08,111,282.08,115,278.08,119,287.08,115" style="stroke:#181818;stroke-width:1.0;"/></g><!--link Broker to Consumer--><g id="link_Broker_Consumer"><path codeLine="17" d="M366.2,115 C376.29,115 386.38,115 396.47,115 " fill="none" id="Broker-to-Consumer" style="stroke:#181818;stroke-width:1.0;"/><polygon fill="#181818" points="401.25,115,392.25,111,396.25,115,392.25,119,401.25,115" style="stroke:#181818;stroke-width:1.0;"/></g><!--link Broker to Broker2--><!--link Broker2 to Broker3--><!--link Worker to Worker2--><!--SRC=[XL2x3e8m5Dtx5JUoaJW8auOm2Bgu6HC7uz2K2rIW9RJ8OFntopDeIDnwUd9Ub-LKARWqN6ki22afosY2i0ga4CWq17cj3BC2ppiRJ4MIe- -3TTY6c_08Bp98OUt3LLQPCG5WdUaYTCXxbdAYSKR_P_JIDc9VoRdd8dH-iDj6zi_MmYnJTM5KuzSjvL64uZxPEmFbB73kL6P6ZTE4r0XQbY3ZAGQid2UfJYf40JjJZ4FMhMQow7lCLUCrlqNsWpwf3Rf1r8fy0000]--></g></svg>