<?xml version="1.0" encoding="UTF-8" standalone="no"?><svg xmlns="http://www.w3.org/2000/svg" xmlns:xlink="http://www.w3.org/1999/xlink" contentStyleType="text/css" height="551px" preserveAspectRatio="none" style="width:486px;height:551px;background:#FFFFFF;" version="1.1" viewBox="0 0 486 551" width="486px" zoomAndPan="magnify"><defs/><g><!--class Commit2--><g id="elem_Commit2"><rect codeLine="2" fill="#F1F1F1" height="121.9531" id="Commit2" rx="2.5" ry="2.5" style="stroke:#181818;stroke-width:0.5;" width="192" x="262" y="91"/><ellipse cx="322.25" cy="107" fill="#ADD8E6" rx="11" ry="11" style="stroke:#181818;stroke-width:1.0;"/><path d="M324.7231,113.1431 Q324.1421,113.4419 323.5029,113.5913 Q322.8638,113.7407 322.1582,113.7407 Q319.6514,113.7407 318.3315,112.0889 Q317.0117,110.437 317.0117,107.3159 Q317.0117,104.1865 318.3315,102.5347 Q319.6514,100.8828 322.1582,100.8828 Q322.8638,100.8828 323.5112,101.0322 Q324.1587,101.1816 324.7231,101.4805 L324.7231,104.2031 Q324.0923,103.6221 323.4988,103.3523 Q322.9053,103.0825 322.2744,103.0825 Q320.9297,103.0825 320.2449,104.1492 Q319.5601,105.2158 319.5601,107.3159 Q319.5601,109.4077 320.2449,110.4744 Q320.9297,111.541 322.2744,111.541 Q322.9053,111.541 323.4988,111.2712 Q324.0923,111.0015 324.7231,110.4204 Z " fill="#000000"/><text fill="#000000" font-family="sans-serif" font-size="14" lengthAdjust="spacing" textLength="63" x="342.75" y="112.291">Commit2</text><line style="stroke:#181818;stroke-width:0.5;" x1="263" x2="453" y1="123" y2="123"/><rect fill="none" height="6" style="stroke:#C82930;stroke-width:1.0;" width="6" x="270" y="133.7441"/><text fill="#000000" font-family="sans-serif" font-size="14" lengthAdjust="spacing" textLength="104" x="282" y="140.5352">sha: 993bb5b5</text><line style="stroke:#181818;stroke-width:1.0;" x1="263" x2="453" y1="147.4883" y2="147.4883"/><text fill="#000000" font-family="sans-serif" font-size="14" lengthAdjust="spacing" textLength="180" x="268" y="165.0234">message: added seond.txt</text><text fill="#000000" font-family="sans-serif" font-size="14" lengthAdjust="spacing" textLength="4" x="268" y="181.5117"> </text><line style="stroke:#181818;stroke-width:1.0;" x1="263" x2="453" y1="188.4648" y2="188.4648"/><text fill="#000000" font-family="sans-serif" font-size="14" lengthAdjust="spacing" textLength="170" x="268" y="206">timestamp: 1580813162</text></g><!--class Commit1--><g id="elem_Commit1"><rect codeLine="10" fill="#F1F1F1" height="121.9531" id="Commit1" rx="2.5" ry="2.5" style="stroke:#181818;stroke-width:0.5;" width="182" x="37" y="91"/><ellipse cx="92.25" cy="107" fill="#90EE90" rx="11" ry="11" style="stroke:#181818;stroke-width:1.0;"/><path d="M94.7231,113.1431 Q94.1421,113.4419 93.5029,113.5913 Q92.8638,113.7407 92.1582,113.7407 Q89.6514,113.7407 88.3315,112.0889 Q87.0117,110.437 87.0117,107.3159 Q87.0117,104.1865 88.3315,102.5347 Q89.6514,100.8828 92.1582,100.8828 Q92.8638,100.8828 93.5112,101.0322 Q94.1587,101.1816 94.7231,101.4805 L94.7231,104.2031 Q94.0923,103.6221 93.4988,103.3523 Q92.9053,103.0825 92.2744,103.0825 Q90.9297,103.0825 90.2449,104.1492 Q89.5601,105.2158 89.5601,107.3159 Q89.5601,109.4077 90.2449,110.4744 Q90.9297,111.541 92.2744,111.541 Q92.9053,111.541 93.4988,111.2712 Q94.0923,111.0015 94.7231,110.4204 Z " fill="#000000"/><text fill="#000000" font-family="sans-serif" font-size="14" lengthAdjust="spacing" textLength="63" x="112.75" y="112.291">Commit1</text><line style="stroke:#181818;stroke-width:0.5;" x1="38" x2="218" y1="123" y2="123"/><rect fill="none" height="6" style="stroke:#C82930;stroke-width:1.0;" width="6" x="45" y="133.7441"/><text fill="#000000" font-family="sans-serif" font-size="14" lengthAdjust="spacing" textLength="100" x="57" y="140.5352">sha: 0d38698f</text><line style="stroke:#181818;stroke-width:1.0;" x1="38" x2="218" y1="147.4883" y2="147.4883"/><text fill="#000000" font-family="sans-serif" font-size="14" lengthAdjust="spacing" textLength="165" x="43" y="165.0234">message: added first.txt</text><text fill="#000000" font-family="sans-serif" font-size="14" lengthAdjust="spacing" textLength="4" x="43" y="181.5117"> </text><line style="stroke:#181818;stroke-width:1.0;" x1="38" x2="218" y1="188.4648" y2="188.4648"/><text fill="#000000" font-family="sans-serif" font-size="14" lengthAdjust="spacing" textLength="170" x="43" y="206">timestamp: 1580812884</text></g><!--class Tree2--><g id="elem_Tree2"><rect codeLine="18" fill="#F1F1F1" height="113.9531" id="Tree2" rx="2.5" ry="2.5" style="stroke:#181818;stroke-width:0.5;" width="227" x="252.5" y="273"/><ellipse cx="341.75" cy="289" fill="#ADD8E6" rx="11" ry="11" style="stroke:#181818;stroke-width:1.0;"/><path d="M343.0918,296.25 L340.6431,296.25 L340.6431,285.9985 L337.4971,285.9985 L337.4971,283.8569 L346.2378,283.8569 L346.2378,285.9985 L343.0918,285.9985 Z " fill="#000000"/><text fill="#000000" font-family="sans-serif" font-size="14" lengthAdjust="spacing" textLength="40" x="362.25" y="294.291">Tree2</text><line style="stroke:#181818;stroke-width:0.5;" x1="253.5" x2="478.5" y1="305" y2="305"/><rect fill="none" height="6" style="stroke:#C82930;stroke-width:1.0;" width="6" x="260.5" y="315.7441"/><text fill="#000000" font-family="sans-serif" font-size="14" lengthAdjust="spacing" textLength="103" x="272.5" y="322.5352">sha: 22e61880</text><line style="stroke:#181818;stroke-width:1.0;" x1="253.5" x2="478.5" y1="329.4883" y2="329.4883"/><polygon fill="none" points="263.5,338.2324,267.5,342.2324,263.5,346.2324,259.5,342.2324" style="stroke:#B38D22;stroke-width:1.0;"/><text fill="#000000" font-family="sans-serif" font-size="14" lengthAdjust="spacing" textLength="182" x="272.5" y="347.0234">first.txt 100644 795ddc40</text><polygon fill="none" points="263.5,354.7207,267.5,358.7207,263.5,362.7207,259.5,358.7207" style="stroke:#B38D22;stroke-width:1.0;"/><text fill="#000000" font-family="sans-serif" font-size="14" lengthAdjust="spacing" textLength="201" x="272.5" y="363.5117">seconf.txt 100644 0ba93614</text><text fill="#000000" font-family="sans-serif" font-size="14" lengthAdjust="spacing" textLength="4" x="272.5" y="380"> </text></g><!--class Tree1--><g id="elem_Tree1"><rect codeLine="25" fill="#F1F1F1" height="97.4648" id="Tree1" rx="2.5" ry="2.5" style="stroke:#181818;stroke-width:0.5;" width="208" x="9" y="281.5"/><ellipse cx="88.75" cy="297.5" fill="#90EE90" rx="11" ry="11" style="stroke:#181818;stroke-width:1.0;"/><path d="M90.0918,304.75 L87.6431,304.75 L87.6431,294.4985 L84.4971,294.4985 L84.4971,292.3569 L93.2378,292.3569 L93.2378,294.4985 L90.0918,294.4985 Z " fill="#000000"/><text fill="#000000" font-family="sans-serif" font-size="14" lengthAdjust="spacing" textLength="40" x="109.25" y="302.791">Tree1</text><line style="stroke:#181818;stroke-width:0.5;" x1="10" x2="216" y1="313.5" y2="313.5"/><rect fill="none" height="6" style="stroke:#C82930;stroke-width:1.0;" width="6" x="17" y="324.2441"/><text fill="#000000" font-family="sans-serif" font-size="14" lengthAdjust="spacing" textLength="102" x="29" y="331.0352">sha: 3d800e5a</text><line style="stroke:#181818;stroke-width:1.0;" x1="10" x2="216" y1="337.9883" y2="337.9883"/><polygon fill="none" points="20,346.7324,24,350.7324,20,354.7324,16,350.7324" style="stroke:#B38D22;stroke-width:1.0;"/><text fill="#000000" font-family="sans-serif" font-size="14" lengthAdjust="spacing" textLength="182" x="29" y="355.5234">first.txt 100644 795ddc40</text><text fill="#000000" font-family="sans-serif" font-size="14" lengthAdjust="spacing" textLength="4" x="29" y="372.0117"> </text></g><!--class Blob1--><g id="elem_Blob1"><rect codeLine="31" fill="#F1F1F1" height="97.4648" id="Blob1" rx="2.5" ry="2.5" style="stroke:#181818;stroke-width:0.5;" width="128" x="94" y="447"/><ellipse cx="134.65" cy="463" fill="#90EE90" rx="11" ry="11" style="stroke:#181818;stroke-width:1.0;"/><path d="M133.0533,464.3721 L133.0533,468.041 L134.6803,468.041 Q135.8507,468.041 136.3197,467.6426 Q136.7887,467.2441 136.7887,466.2563 Q136.7887,465.252 136.2989,464.812 Q135.8092,464.3721 134.6803,464.3721 Z M133.0533,459.541 L133.0533,462.4214 L134.6803,462.4214 Q135.61,462.4214 136.0042,462.0894 Q136.3985,461.7573 136.3985,460.9937 Q136.3985,460.23 135.9959,459.8855 Q135.5934,459.541 134.6803,459.541 Z M130.6876,457.5903 L134.6803,457.5903 Q136.7472,457.5903 137.7889,458.3748 Q138.8307,459.1592 138.8307,460.7197 Q138.8307,461.915 138.2164,462.5874 Q137.6021,463.2598 136.4151,463.3677 Q137.8346,463.5088 138.5526,464.3223 Q139.2706,465.1357 139.2706,466.5967 Q139.2706,468.3896 138.1915,469.1948 Q137.1124,470 134.6803,470 L130.6876,470 Z " fill="#000000"/><text fill="#000000" font-family="sans-serif" font-size="14" lengthAdjust="spacing" textLength="39" x="154.35" y="468.291">Blob1</text><line style="stroke:#181818;stroke-width:0.5;" x1="95" x2="221" y1="479" y2="479"/><rect fill="none" height="6" style="stroke:#C82930;stroke-width:1.0;" width="6" x="102" y="489.7441"/><text fill="#000000" font-family="sans-serif" font-size="14" lengthAdjust="spacing" textLength="102" x="114" y="496.5352">sha: 795ddc40</text><line style="stroke:#181818;stroke-width:1.0;" x1="95" x2="221" y1="503.4883" y2="503.4883"/><text fill="#000000" font-family="sans-serif" font-size="14" lengthAdjust="spacing" textLength="61" x="100" y="521.0234">FirstData</text><text fill="#000000" font-family="sans-serif" font-size="14" lengthAdjust="spacing" textLength="4" x="100" y="537.5117"> </text></g><!--class Blob2--><g id="elem_Blob2"><rect codeLine="37" fill="#F1F1F1" height="97.4648" id="Blob2" rx="2.5" ry="2.5" style="stroke:#181818;stroke-width:0.5;" width="129" x="301.5" y="447"/><ellipse cx="342.6" cy="463" fill="#ADD8E6" rx="11" ry="11" style="stroke:#181818;stroke-width:1.0;"/><path d="M341.0033,464.3721 L341.0033,468.041 L342.6303,468.041 Q343.8007,468.041 344.2697,467.6426 Q344.7387,467.2441 344.7387,466.2563 Q344.7387,465.252 344.2489,464.812 Q343.7592,464.3721 342.6303,464.3721 Z M341.0033,459.541 L341.0033,462.4214 L342.6303,462.4214 Q343.56,462.4214 343.9542,462.0894 Q344.3485,461.7573 344.3485,460.9937 Q344.3485,460.23 343.9459,459.8855 Q343.5434,459.541 342.6303,459.541 Z M338.6376,457.5903 L342.6303,457.5903 Q344.6972,457.5903 345.7389,458.3748 Q346.7807,459.1592 346.7807,460.7197 Q346.7807,461.915 346.1664,462.5874 Q345.5521,463.2598 344.3651,463.3677 Q345.7846,463.5088 346.5026,464.3223 Q347.2206,465.1357 347.2206,466.5967 Q347.2206,468.3896 346.1415,469.1948 Q345.0624,470 342.6303,470 L338.6376,470 Z " fill="#000000"/><text fill="#000000" font-family="sans-serif" font-size="14" lengthAdjust="spacing" textLength="39" x="362.4" y="468.291">Blob2</text><line style="stroke:#181818;stroke-width:0.5;" x1="302.5" x2="429.5" y1="479" y2="479"/><rect fill="none" height="6" style="stroke:#C82930;stroke-width:1.0;" width="6" x="309.5" y="489.7441"/><text fill="#000000" font-family="sans-serif" font-size="14" lengthAdjust="spacing" textLength="103" x="321.5" y="496.5352">sha: 0ba93614</text><line style="stroke:#181818;stroke-width:1.0;" x1="302.5" x2="429.5" y1="503.4883" y2="503.4883"/><text fill="#000000" font-family="sans-serif" font-size="14" lengthAdjust="spacing" textLength="81" x="307.5" y="521.0234">SecondData</text><text fill="#000000" font-family="sans-serif" font-size="14" lengthAdjust="spacing" textLength="4" x="307.5" y="537.5117"> </text></g><g id="elem_GMN15"><path d="M99.5,6 L99.5,31.3105 A0,0 0 0 0 99.5,31.3105 L124,31.3105 L128,90.77 L132,31.3105 L156.5,31.3105 A0,0 0 0 0 156.5,31.3105 L156.5,16 L146.5,6 L99.5,6 A0,0 0 0 0 99.5,6 " fill="#90EE90" style="stroke:#181818;stroke-width:0.5;"/><path d="M146.5,6 L146.5,16 L156.5,16 L146.5,6 " fill="#90EE90" style="stroke:#181818;stroke-width:0.5;"/><text fill="#000000" font-family="sans-serif" font-size="13" lengthAdjust="spacing" textLength="36" x="105.5" y="23.5684">HEAD</text></g><g id="elem_GMN18"><path d="M288.5,6 L288.5,31.3105 A0,0 0 0 0 288.5,31.3105 L354,31.3105 L358,90.77 L362,31.3105 L427.5,31.3105 A0,0 0 0 0 427.5,31.3105 L427.5,16 L417.5,6 L288.5,6 A0,0 0 0 0 288.5,6 " fill="#ADD8E6" style="stroke:#181818;stroke-width:0.5;"/><path d="M417.5,6 L417.5,16 L427.5,16 L417.5,6 " fill="#ADD8E6" style="stroke:#181818;stroke-width:0.5;"/><text fill="#000000" font-family="sans-serif" font-size="13" lengthAdjust="spacing" textLength="118" x="294.5" y="23.5684">refs/heads/master</text></g><!--link Commit2 to Tree2--><g id="link_Commit2_Tree2"><path codeLine="43" d="M360.73,213.08 C361.51,230.28 362.37,249.08 363.16,266.43 " fill="none" id="Commit2-to-Tree2" style="stroke:#181818;stroke-width:1.0;"/><polygon fill="#181818" points="363.37,271.24,366.9548,262.0667,363.1417,266.2452,358.9632,262.4321,363.37,271.24" style="stroke:#181818;stroke-width:1.0;"/></g><!--link Commit1 to Tree1--><g id="link_Commit1_Tree1"><path codeLine="44" d="M122.88,213.08 C121.17,233.12 119.28,255.31 117.61,274.87 " fill="none" id="Commit1-to-Tree1" style="stroke:#181818;stroke-width:1.0;"/><polygon fill="#181818" points="117.21,279.61,121.9661,270.9856,117.6382,274.6284,113.9955,270.3005,117.21,279.61" style="stroke:#181818;stroke-width:1.0;"/></g><!--link Tree2 to Blob1--><g id="link_Tree2_Blob1"><path codeLine="45" d="M294.13,387.5 C271.31,405.43 246.21,425.16 223.84,442.75 " fill="none" id="Tree2-to-Blob1" style="stroke:#181818;stroke-width:1.0;"/><polygon fill="#181818" points="220,445.76,229.5485,443.3464,223.9321,442.6715,224.607,437.0551,220,445.76" style="stroke:#181818;stroke-width:1.0;"/></g><!--link Tree2 to Blob2--><g id="link_Tree2_Blob2"><path codeLine="46" d="M366,387.27 C366,404.46 366,423.33 366,440.38 " fill="none" id="Tree2-to-Blob2" style="stroke:#181818;stroke-width:1.0;"/><polygon fill="#181818" points="366,445.05,370,436.05,366,440.05,362,436.05,366,445.05" style="stroke:#181818;stroke-width:1.0;"/></g><!--link Tree1 to Blob1--><g id="link_Tree1_Blob1"><path codeLine="47" d="M126.14,378.73 C131.47,398.12 137.67,420.62 143.16,440.6 " fill="none" id="Tree1-to-Blob1" style="stroke:#181818;stroke-width:1.0;"/><polygon fill="#181818" points="144.45,445.25,145.9459,435.5154,143.1368,440.4255,138.2267,437.6165,144.45,445.25" style="stroke:#181818;stroke-width:1.0;"/></g><!--reverse link Commit1 to Commit2--><g id="link_Commit1_Commit2"><path codeLine="48" d="M225.51,152 C237.59,152 249.67,152 261.76,152 " fill="none" id="Commit1-backto-Commit2" style="stroke:#181818;stroke-width:1.0;"/><polygon fill="#181818" points="220.7,152,229.7,156,225.7,152,229.7,148,220.7,152" style="stroke:#181818;stroke-width:1.0;"/></g><!--SRC=[XP9VRu8m5CNV-obkuikMZDcMFol4a4pTilVv1GgzA0bGGxjaoRBllgA2g9WzjkUUt-5ScbVI65ZfkYujXyNYOVLKbTkTpQelV4nJ-26UsSa4ujZFiZ0BYUUH6esHMqn0AeKA3Ef6FTjlIphHbawsijudm4911VDPnCaloKT1R1IqRH6RSH9LleXYKKma5MLhxFqaBaGm96qSzr1eCrs8SuoO4BGZpSvaO9H6GG0lSQXK7b2d6SnrKun5cidOZrX0BjBOAEscbQy4fHZA_-86uhBIsO6ul4CSB8xutl7MqifBFn_vh_iF7PpziskeUd__63mlFMwHz7-jls7akDtkVFZEgpCdntsSzO5PkQiJZZJQ8bYz1rqC3sDsBWi9VBozhYV6-6ciw-IcMYpCV8TIcNajZSMM_040]--></g></svg>