<?xml version="1.0" encoding="UTF-8" standalone="no"?><svg xmlns="http://www.w3.org/2000/svg" xmlns:xlink="http://www.w3.org/1999/xlink" contentStyleType="text/css" height="483px" preserveAspectRatio="none" style="width:751px;height:483px;background:#FFFFFF;" version="1.1" viewBox="0 0 751 483" width="751px" zoomAndPan="magnify"><defs/><g><!--class Commit3--><g id="elem_Commit3"><rect codeLine="2" fill="#F1F1F1" height="121.9531" id="Commit3" rx="2.5" ry="2.5" style="stroke:#181818;stroke-width:0.5;" width="182" x="515.5" y="7"/><ellipse cx="570.75" cy="23" fill="#FFA500" rx="11" ry="11" style="stroke:#181818;stroke-width:1.0;"/><path d="M573.2231,29.1431 Q572.6421,29.4419 572.0029,29.5913 Q571.3638,29.7407 570.6582,29.7407 Q568.1514,29.7407 566.8315,28.0889 Q565.5117,26.437 565.5117,23.3159 Q565.5117,20.1865 566.8315,18.5347 Q568.1514,16.8828 570.6582,16.8828 Q571.3638,16.8828 572.0112,17.0322 Q572.6587,17.1816 573.2231,17.4805 L573.2231,20.2031 Q572.5923,19.6221 571.9988,19.3523 Q571.4053,19.0825 570.7744,19.0825 Q569.4297,19.0825 568.7449,20.1492 Q568.0601,21.2158 568.0601,23.3159 Q568.0601,25.4077 568.7449,26.4744 Q569.4297,27.541 570.7744,27.541 Q571.4053,27.541 571.9988,27.2712 Q572.5923,27.0015 573.2231,26.4204 Z " fill="#000000"/><text fill="#000000" font-family="sans-serif" font-size="14" lengthAdjust="spacing" textLength="63" x="591.25" y="28.291">Commit3</text><line style="stroke:#181818;stroke-width:0.5;" x1="516.5" x2="696.5" y1="39" y2="39"/><rect fill="none" height="6" style="stroke:#C82930;stroke-width:1.0;" width="6" x="523.5" y="49.7441"/><text fill="#000000" font-family="sans-serif" font-size="14" lengthAdjust="spacing" textLength="97" x="535.5" y="56.5352">sha: e9c3f660</text><line style="stroke:#181818;stroke-width:1.0;" x1="516.5" x2="696.5" y1="63.4883" y2="63.4883"/><text fill="#000000" font-family="sans-serif" font-size="14" lengthAdjust="spacing" textLength="156" x="521.5" y="81.0234">message: third commit</text><text fill="#000000" font-family="sans-serif" font-size="14" lengthAdjust="spacing" textLength="4" x="521.5" y="97.5117"> </text><line style="stroke:#181818;stroke-width:1.0;" x1="516.5" x2="696.5" y1="104.4648" y2="104.4648"/><text fill="#000000" font-family="sans-serif" font-size="14" lengthAdjust="spacing" textLength="170" x="521.5" y="122">timestamp: 1580905514</text></g><!--class Commit2--><g id="elem_Commit2"><rect codeLine="10" fill="#F1F1F1" height="121.9531" id="Commit2" rx="2.5" ry="2.5" style="stroke:#181818;stroke-width:0.5;" width="184" x="273.5" y="7"/><ellipse cx="329.75" cy="23" fill="#ADD8E6" rx="11" ry="11" style="stroke:#181818;stroke-width:1.0;"/><path d="M332.2231,29.1431 Q331.6421,29.4419 331.0029,29.5913 Q330.3638,29.7407 329.6582,29.7407 Q327.1514,29.7407 325.8315,28.0889 Q324.5117,26.437 324.5117,23.3159 Q324.5117,20.1865 325.8315,18.5347 Q327.1514,16.8828 329.6582,16.8828 Q330.3638,16.8828 331.0112,17.0322 Q331.6587,17.1816 332.2231,17.4805 L332.2231,20.2031 Q331.5923,19.6221 330.9988,19.3523 Q330.4053,19.0825 329.7744,19.0825 Q328.4297,19.0825 327.7449,20.1492 Q327.0601,21.2158 327.0601,23.3159 Q327.0601,25.4077 327.7449,26.4744 Q328.4297,27.541 329.7744,27.541 Q330.4053,27.541 330.9988,27.2712 Q331.5923,27.0015 332.2231,26.4204 Z " fill="#000000"/><text fill="#000000" font-family="sans-serif" font-size="14" lengthAdjust="spacing" textLength="63" x="350.25" y="28.291">Commit2</text><line style="stroke:#181818;stroke-width:0.5;" x1="274.5" x2="456.5" y1="39" y2="39"/><rect fill="none" height="6" style="stroke:#C82930;stroke-width:1.0;" width="6" x="281.5" y="49.7441"/><text fill="#000000" font-family="sans-serif" font-size="14" lengthAdjust="spacing" textLength="103" x="293.5" y="56.5352">sha: 6b3a7927</text><line style="stroke:#181818;stroke-width:1.0;" x1="274.5" x2="456.5" y1="63.4883" y2="63.4883"/><text fill="#000000" font-family="sans-serif" font-size="14" lengthAdjust="spacing" textLength="172" x="279.5" y="81.0234">message: second commit</text><text fill="#000000" font-family="sans-serif" font-size="14" lengthAdjust="spacing" textLength="4" x="279.5" y="97.5117"> </text><line style="stroke:#181818;stroke-width:1.0;" x1="274.5" x2="456.5" y1="104.4648" y2="104.4648"/><text fill="#000000" font-family="sans-serif" font-size="14" lengthAdjust="spacing" textLength="170" x="279.5" y="122">timestamp: 1580904953</text></g><!--class Commit1--><g id="elem_Commit1"><rect codeLine="18" fill="#F1F1F1" height="121.9531" id="Commit1" rx="2.5" ry="2.5" style="stroke:#181818;stroke-width:0.5;" width="182" x="39.5" y="7"/><ellipse cx="94.75" cy="23" fill="#90EE90" rx="11" ry="11" style="stroke:#181818;stroke-width:1.0;"/><path d="M97.2231,29.1431 Q96.6421,29.4419 96.0029,29.5913 Q95.3638,29.7407 94.6582,29.7407 Q92.1514,29.7407 90.8315,28.0889 Q89.5117,26.437 89.5117,23.3159 Q89.5117,20.1865 90.8315,18.5347 Q92.1514,16.8828 94.6582,16.8828 Q95.3638,16.8828 96.0112,17.0322 Q96.6587,17.1816 97.2231,17.4805 L97.2231,20.2031 Q96.5923,19.6221 95.9988,19.3523 Q95.4053,19.0825 94.7744,19.0825 Q93.4297,19.0825 92.7449,20.1492 Q92.0601,21.2158 92.0601,23.3159 Q92.0601,25.4077 92.7449,26.4744 Q93.4297,27.541 94.7744,27.541 Q95.4053,27.541 95.9988,27.2712 Q96.5923,27.0015 97.2231,26.4204 Z " fill="#000000"/><text fill="#000000" font-family="sans-serif" font-size="14" lengthAdjust="spacing" textLength="63" x="115.25" y="28.291">Commit1</text><line style="stroke:#181818;stroke-width:0.5;" x1="40.5" x2="220.5" y1="39" y2="39"/><rect fill="none" height="6" style="stroke:#C82930;stroke-width:1.0;" width="6" x="47.5" y="49.7441"/><text fill="#000000" font-family="sans-serif" font-size="14" lengthAdjust="spacing" textLength="100" x="59.5" y="56.5352">sha: 2aae0a64</text><line style="stroke:#181818;stroke-width:1.0;" x1="40.5" x2="220.5" y1="63.4883" y2="63.4883"/><text fill="#000000" font-family="sans-serif" font-size="14" lengthAdjust="spacing" textLength="150" x="45.5" y="81.0234">message: first commit</text><text fill="#000000" font-family="sans-serif" font-size="14" lengthAdjust="spacing" textLength="4" x="45.5" y="97.5117"> </text><line style="stroke:#181818;stroke-width:1.0;" x1="40.5" x2="220.5" y1="104.4648" y2="104.4648"/><text fill="#000000" font-family="sans-serif" font-size="14" lengthAdjust="spacing" textLength="170" x="45.5" y="122">timestamp: 1580904123</text></g><!--class Tree3--><g id="elem_Tree3"><rect codeLine="26" fill="#F1F1F1" height="130.4414" id="Tree3" rx="2.5" ry="2.5" style="stroke:#181818;stroke-width:0.5;" width="229" x="515" y="189"/><ellipse cx="605.25" cy="205" fill="#FFA500" rx="11" ry="11" style="stroke:#181818;stroke-width:1.0;"/><path d="M606.5918,212.25 L604.1431,212.25 L604.1431,201.9985 L600.9971,201.9985 L600.9971,199.8569 L609.7378,199.8569 L609.7378,201.9985 L606.5918,201.9985 Z " fill="#000000"/><text fill="#000000" font-family="sans-serif" font-size="14" lengthAdjust="spacing" textLength="40" x="625.75" y="210.291">Tree3</text><line style="stroke:#181818;stroke-width:0.5;" x1="516" x2="743" y1="221" y2="221"/><rect fill="none" height="6" style="stroke:#C82930;stroke-width:1.0;" width="6" x="523" y="231.7441"/><text fill="#000000" font-family="sans-serif" font-size="14" lengthAdjust="spacing" textLength="103" x="535" y="238.5352">sha: d49117a7</text><line style="stroke:#181818;stroke-width:1.0;" x1="516" x2="743" y1="245.4883" y2="245.4883"/><polygon fill="none" points="526,254.2324,530,258.2324,526,262.2324,522,258.2324" style="stroke:#B38D22;stroke-width:1.0;"/><text fill="#000000" font-family="sans-serif" font-size="14" lengthAdjust="spacing" textLength="181" x="535" y="263.0234">first.txt 100644 9649cde9</text><polygon fill="none" points="526,270.7207,530,274.7207,526,278.7207,522,274.7207" style="stroke:#B38D22;stroke-width:1.0;"/><text fill="#000000" font-family="sans-serif" font-size="14" lengthAdjust="spacing" textLength="203" x="535" y="279.5117">second.txt 100644 9649cde9</text><polygon fill="none" points="526,287.209,530,291.209,526,295.209,522,291.209" style="stroke:#B38D22;stroke-width:1.0;"/><text fill="#000000" font-family="sans-serif" font-size="14" lengthAdjust="spacing" textLength="187" x="535" y="296">third.txt 100644 9649cde9</text><text fill="#000000" font-family="sans-serif" font-size="14" lengthAdjust="spacing" textLength="4" x="535" y="312.4883"> </text></g><!--class Tree2--><g id="elem_Tree2"><rect codeLine="34" fill="#F1F1F1" height="113.9531" id="Tree2" rx="2.5" ry="2.5" style="stroke:#181818;stroke-width:0.5;" width="229" x="251" y="197"/><ellipse cx="341.25" cy="213" fill="#ADD8E6" rx="11" ry="11" style="stroke:#181818;stroke-width:1.0;"/><path d="M342.5918,220.25 L340.1431,220.25 L340.1431,209.9985 L336.9971,209.9985 L336.9971,207.8569 L345.7378,207.8569 L345.7378,209.9985 L342.5918,209.9985 Z " fill="#000000"/><text fill="#000000" font-family="sans-serif" font-size="14" lengthAdjust="spacing" textLength="40" x="361.75" y="218.291">Tree2</text><line style="stroke:#181818;stroke-width:0.5;" x1="252" x2="479" y1="229" y2="229"/><rect fill="none" height="6" style="stroke:#C82930;stroke-width:1.0;" width="6" x="259" y="239.7441"/><text fill="#000000" font-family="sans-serif" font-size="14" lengthAdjust="spacing" textLength="104" x="271" y="246.5352">sha: 73d4372b</text><line style="stroke:#181818;stroke-width:1.0;" x1="252" x2="479" y1="253.4883" y2="253.4883"/><polygon fill="none" points="262,262.2324,266,266.2324,262,270.2324,258,266.2324" style="stroke:#B38D22;stroke-width:1.0;"/><text fill="#000000" font-family="sans-serif" font-size="14" lengthAdjust="spacing" textLength="181" x="271" y="271.0234">first.txt 100644 9649cde9</text><polygon fill="none" points="262,278.7207,266,282.7207,262,286.7207,258,282.7207" style="stroke:#B38D22;stroke-width:1.0;"/><text fill="#000000" font-family="sans-serif" font-size="14" lengthAdjust="spacing" textLength="203" x="271" y="287.5117">second.txt 100644 9649cde9</text><text fill="#000000" font-family="sans-serif" font-size="14" lengthAdjust="spacing" textLength="4" x="271" y="304"> </text></g><!--class Tree1--><g id="elem_Tree1"><rect codeLine="41" fill="#F1F1F1" height="97.4648" id="Tree1" rx="2.5" ry="2.5" style="stroke:#181818;stroke-width:0.5;" width="207" x="9" y="205.5"/><ellipse cx="88.25" cy="221.5" fill="#90EE90" rx="11" ry="11" style="stroke:#181818;stroke-width:1.0;"/><path d="M89.5918,228.75 L87.1431,228.75 L87.1431,218.4985 L83.9971,218.4985 L83.9971,216.3569 L92.7378,216.3569 L92.7378,218.4985 L89.5918,218.4985 Z " fill="#000000"/><text fill="#000000" font-family="sans-serif" font-size="14" lengthAdjust="spacing" textLength="40" x="108.75" y="226.791">Tree1</text><line style="stroke:#181818;stroke-width:0.5;" x1="10" x2="215" y1="237.5" y2="237.5"/><rect fill="none" height="6" style="stroke:#C82930;stroke-width:1.0;" width="6" x="17" y="248.2441"/><text fill="#000000" font-family="sans-serif" font-size="14" lengthAdjust="spacing" textLength="98" x="29" y="255.0352">sha: 5b9ddc8f</text><line style="stroke:#181818;stroke-width:1.0;" x1="10" x2="215" y1="261.9883" y2="261.9883"/><polygon fill="none" points="20,270.7324,24,274.7324,20,278.7324,16,274.7324" style="stroke:#B38D22;stroke-width:1.0;"/><text fill="#000000" font-family="sans-serif" font-size="14" lengthAdjust="spacing" textLength="181" x="29" y="279.5234">first.txt 100644 9649cde9</text><text fill="#000000" font-family="sans-serif" font-size="14" lengthAdjust="spacing" textLength="4" x="29" y="296.0117"> </text></g><!--class Blob1--><g id="elem_Blob1"><rect codeLine="47" fill="#F1F1F1" height="97.4648" id="Blob1" rx="2.5" ry="2.5" style="stroke:#181818;stroke-width:0.5;" width="127" x="434" y="379"/><ellipse cx="474.2" cy="395" fill="#90EE90" rx="11" ry="11" style="stroke:#181818;stroke-width:1.0;"/><path d="M472.6033,396.3721 L472.6033,400.041 L474.2303,400.041 Q475.4007,400.041 475.8697,399.6426 Q476.3387,399.2441 476.3387,398.2563 Q476.3387,397.252 475.8489,396.812 Q475.3592,396.3721 474.2303,396.3721 Z M472.6033,391.541 L472.6033,394.4214 L474.2303,394.4214 Q475.16,394.4214 475.5542,394.0894 Q475.9485,393.7573 475.9485,392.9937 Q475.9485,392.23 475.5459,391.8855 Q475.1434,391.541 474.2303,391.541 Z M470.2376,389.5903 L474.2303,389.5903 Q476.2972,389.5903 477.3389,390.3748 Q478.3807,391.1592 478.3807,392.7197 Q478.3807,393.915 477.7664,394.5874 Q477.1521,395.2598 475.9651,395.3677 Q477.3846,395.5088 478.1026,396.3223 Q478.8206,397.1357 478.8206,398.5967 Q478.8206,400.3896 477.7415,401.1948 Q476.6624,402 474.2303,402 L470.2376,402 Z " fill="#000000"/><text fill="#000000" font-family="sans-serif" font-size="14" lengthAdjust="spacing" textLength="39" x="493.8" y="400.291">Blob1</text><line style="stroke:#181818;stroke-width:0.5;" x1="435" x2="560" y1="411" y2="411"/><rect fill="none" height="6" style="stroke:#C82930;stroke-width:1.0;" width="6" x="442" y="421.7441"/><text fill="#000000" font-family="sans-serif" font-size="14" lengthAdjust="spacing" textLength="101" x="454" y="428.5352">sha: 9649cde9</text><line style="stroke:#181818;stroke-width:1.0;" x1="435" x2="560" y1="435.4883" y2="435.4883"/><text fill="#000000" font-family="sans-serif" font-size="14" lengthAdjust="spacing" textLength="59" x="440" y="453.0234">First line</text><text fill="#000000" font-family="sans-serif" font-size="14" lengthAdjust="spacing" textLength="4" x="440" y="469.5117"> </text></g><!--link Commit3 to Tree3--><g id="link_Commit3_Tree3"><path codeLine="53" d="M614.03,129.25 C616.15,146.24 618.48,164.87 620.68,182.41 " fill="none" id="Commit3-to-Tree3" style="stroke:#181818;stroke-width:1.0;"/><polygon fill="#181818" points="621.29,187.31,624.1295,177.8793,620.6628,182.3495,616.1927,178.8828,621.29,187.31" style="stroke:#181818;stroke-width:1.0;"/></g><!--link Commit2 to Tree2--><g id="link_Commit2_Tree2"><path codeLine="54" d="M365.5,129.25 C365.5,148.83 365.5,170.59 365.5,190.34 " fill="none" id="Commit2-to-Tree2" style="stroke:#181818;stroke-width:1.0;"/><polygon fill="#181818" points="365.5,195.16,369.5,186.16,365.5,190.16,361.5,186.16,365.5,195.16" style="stroke:#181818;stroke-width:1.0;"/></g><!--link Commit1 to Tree1--><g id="link_Commit1_Tree1"><path codeLine="55" d="M124.61,129.25 C122.41,151.67 119.94,176.95 117.8,198.79 " fill="none" id="Commit1-to-Tree1" style="stroke:#181818;stroke-width:1.0;"/><polygon fill="#181818" points="117.33,203.65,122.1838,195.0803,117.8148,198.6736,114.2215,194.3046,117.33,203.65" style="stroke:#181818;stroke-width:1.0;"/></g><!--link Tree3 to Blob1--><g id="link_Tree3_Blob1"><path codeLine="56" d="M554.46,319.35 C539.48,337.18 525.09,356.33 513.87,373.44 " fill="none" id="Tree3-to-Blob1" style="stroke:#181818;stroke-width:1.0;"/><polygon fill="#181818" points="511.31,377.4,519.5545,372.0122,514.0239,373.2006,512.8355,367.67,511.31,377.4" style="stroke:#181818;stroke-width:1.0;"/></g><!--link Tree3 to Blob1--><g id="link_Tree3_Blob1"><path codeLine="57" d="M579.97,319.35 C566.13,337.33 551.26,356.66 538,373.88 " fill="none" id="Tree3-to-Blob1-1" style="stroke:#181818;stroke-width:1.0;"/><polygon fill="#181818" points="535.23,377.48,543.8871,372.7837,538.2779,373.5163,537.5452,367.9071,535.23,377.48" style="stroke:#181818;stroke-width:1.0;"/></g><!--link Tree3 to Blob1--><g id="link_Tree3_Blob1"><path codeLine="58" d="M605.48,319.35 C592.91,337.33 577.67,356.66 562.43,373.88 " fill="none" id="Tree3-to-Blob1-2" style="stroke:#181818;stroke-width:1.0;"/><polygon fill="#181818" points="559.14,377.55,568.1176,373.4999,562.4698,373.8201,562.1497,368.1723,559.14,377.55" style="stroke:#181818;stroke-width:1.0;"/></g><!--link Tree2 to Blob1--><g id="link_Tree2_Blob1"><path codeLine="59" d="M396.67,311.16 C411.14,331.24 428.56,353.79 444.9,373.59 " fill="none" id="Tree2-to-Blob1" style="stroke:#181818;stroke-width:1.0;"/><polygon fill="#181818" points="448.06,377.4,445.3747,367.9243,444.8605,373.5577,439.227,373.0435,448.06,377.4" style="stroke:#181818;stroke-width:1.0;"/></g><!--link Tree2 to Blob1--><g id="link_Tree2_Blob1"><path codeLine="60" d="M421.48,311.16 C437.91,331.15 455.13,353.6 469.17,373.34 " fill="none" id="Tree2-to-Blob1-1" style="stroke:#181818;stroke-width:1.0;"/><polygon fill="#181818" points="471.99,377.32,470.0491,367.6643,469.0987,373.2407,463.5223,372.2903,471.99,377.32" style="stroke:#181818;stroke-width:1.0;"/></g><!--link Tree1 to Blob1--><g id="link_Tree1_Blob1"><path codeLine="61" d="M200.54,302.87 C211.56,308.47 222.73,313.98 233.5,319 C298.29,349.24 374.04,379.59 427.74,400.29 " fill="none" id="Tree1-to-Blob1" style="stroke:#181818;stroke-width:1.0;"/><polygon fill="#181818" points="432.11,401.97,425.1315,395.0201,427.4396,400.1847,422.275,402.4927,432.11,401.97" style="stroke:#181818;stroke-width:1.0;"/></g><!--reverse link Commit1 to Commit2--><g id="link_Commit1_Commit2"><path codeLine="62" d="M228.26,68 C243.23,68 258.21,68 273.19,68 " fill="none" id="Commit1-backto-Commit2" style="stroke:#181818;stroke-width:1.0;"/><polygon fill="#181818" points="223.35,68,232.35,72,228.35,68,232.35,64,223.35,68" style="stroke:#181818;stroke-width:1.0;"/></g><!--reverse link Commit2 to Commit3--><g id="link_Commit2_Commit3"><path codeLine="63" d="M464.05,68 C481.13,68 498.2,68 515.28,68 " fill="none" id="Commit2-backto-Commit3" style="stroke:#181818;stroke-width:1.0;"/><polygon fill="#181818" points="459.27,68,468.27,72,464.27,68,468.27,64,459.27,68" style="stroke:#181818;stroke-width:1.0;"/></g><!--SRC=[fPBTQeGm48NlynI1thHGIn9ZtCZYnIxq2VO5Oiog4BMO50gbxrvDwb_h_a0lPuQSx-JCI2sCWSUshYiRmlt-yVZSTg8fr5EQmayGc58aK74PdXb380X0hOmHXKgWBQikXzAz1CF4LltCYlejWJZQ8OwY25Fm1UG2GJn2LqLfC_s-eh0i534dyOfYb6oRwnZAe_0N1YymHQTKi-GG8HGIZAuuvwepzZe6anbpwaLTNAUDk7BACOw5-yY3Ltwn7nPYX1Yba3FAPQvuF_E_kp1q0M_ELZQ8jx4PQHpcD8n9zYydAnfUqFua6sKyp-NkV0itAHvqcpd5mmN5wKcl-EfMfAj63GBZoGP1whS1nWiREmICnp1sCF1x6sg7lgicDsgyg2SFkc_zu6UhSvE0Rm00]--></g></svg>