<?xml version="1.0" encoding="UTF-8" standalone="no"?><svg xmlns="http://www.w3.org/2000/svg" xmlns:xlink="http://www.w3.org/1999/xlink" contentStyleType="text/css" height="534px" preserveAspectRatio="none" style="width:256px;height:534px;background:#FFFFFF;" version="1.1" viewBox="0 0 256 534" width="256px" zoomAndPan="magnify"><defs/><g><!--class Commit1--><g id="elem_Commit1"><rect codeLine="2" fill="#F1F1F1" height="121.9531" id="Commit1" rx="2.5" ry="2.5" style="stroke:#181818;stroke-width:0.5;" width="182" x="22" y="91"/><ellipse cx="77.25" cy="107" fill="#90EE90" rx="11" ry="11" style="stroke:#181818;stroke-width:1.0;"/><path d="M79.7231,113.1431 Q79.1421,113.4419 78.5029,113.5913 Q77.8638,113.7407 77.1582,113.7407 Q74.6514,113.7407 73.3315,112.0889 Q72.0117,110.437 72.0117,107.3159 Q72.0117,104.1865 73.3315,102.5347 Q74.6514,100.8828 77.1582,100.8828 Q77.8638,100.8828 78.5112,101.0322 Q79.1587,101.1816 79.7231,101.4805 L79.7231,104.2031 Q79.0923,103.6221 78.4988,103.3523 Q77.9053,103.0825 77.2744,103.0825 Q75.9297,103.0825 75.2449,104.1492 Q74.5601,105.2158 74.5601,107.3159 Q74.5601,109.4077 75.2449,110.4744 Q75.9297,111.541 77.2744,111.541 Q77.9053,111.541 78.4988,111.2712 Q79.0923,111.0015 79.7231,110.4204 Z " fill="#000000"/><text fill="#000000" font-family="sans-serif" font-size="14" lengthAdjust="spacing" textLength="63" x="97.75" y="112.291">Commit1</text><line style="stroke:#181818;stroke-width:0.5;" x1="23" x2="203" y1="123" y2="123"/><rect fill="none" height="6" style="stroke:#C82930;stroke-width:1.0;" width="6" x="30" y="133.7441"/><text fill="#000000" font-family="sans-serif" font-size="14" lengthAdjust="spacing" textLength="100" x="42" y="140.5352">sha: 0d38698f</text><line style="stroke:#181818;stroke-width:1.0;" x1="23" x2="203" y1="147.4883" y2="147.4883"/><text fill="#000000" font-family="sans-serif" font-size="14" lengthAdjust="spacing" textLength="165" x="28" y="165.0234">message: added first.txt</text><text fill="#000000" font-family="sans-serif" font-size="14" lengthAdjust="spacing" textLength="4" x="28" y="181.5117"> </text><line style="stroke:#181818;stroke-width:1.0;" x1="23" x2="203" y1="188.4648" y2="188.4648"/><text fill="#000000" font-family="sans-serif" font-size="14" lengthAdjust="spacing" textLength="170" x="28" y="206">timestamp: 1580812884</text></g><!--class Tree1--><g id="elem_Tree1"><rect codeLine="10" fill="#F1F1F1" height="97.4648" id="Tree1" rx="2.5" ry="2.5" style="stroke:#181818;stroke-width:0.5;" width="208" x="9" y="273"/><ellipse cx="88.75" cy="289" fill="#90EE90" rx="11" ry="11" style="stroke:#181818;stroke-width:1.0;"/><path d="M90.0918,296.25 L87.6431,296.25 L87.6431,285.9985 L84.4971,285.9985 L84.4971,283.8569 L93.2378,283.8569 L93.2378,285.9985 L90.0918,285.9985 Z " fill="#000000"/><text fill="#000000" font-family="sans-serif" font-size="14" lengthAdjust="spacing" textLength="40" x="109.25" y="294.291">Tree1</text><line style="stroke:#181818;stroke-width:0.5;" x1="10" x2="216" y1="305" y2="305"/><rect fill="none" height="6" style="stroke:#C82930;stroke-width:1.0;" width="6" x="17" y="315.7441"/><text fill="#000000" font-family="sans-serif" font-size="14" lengthAdjust="spacing" textLength="102" x="29" y="322.5352">sha: 3d800e5a</text><line style="stroke:#181818;stroke-width:1.0;" x1="10" x2="216" y1="329.4883" y2="329.4883"/><polygon fill="none" points="20,338.2324,24,342.2324,20,346.2324,16,342.2324" style="stroke:#B38D22;stroke-width:1.0;"/><text fill="#000000" font-family="sans-serif" font-size="14" lengthAdjust="spacing" textLength="182" x="29" y="347.0234">first.txt 100644 795ddc40</text><text fill="#000000" font-family="sans-serif" font-size="14" lengthAdjust="spacing" textLength="4" x="29" y="363.5117"> </text></g><!--class Blob1--><g id="elem_Blob1"><rect codeLine="16" fill="#F1F1F1" height="97.4648" id="Blob1" rx="2.5" ry="2.5" style="stroke:#181818;stroke-width:0.5;" width="128" x="49" y="430"/><ellipse cx="89.65" cy="446" fill="#90EE90" rx="11" ry="11" style="stroke:#181818;stroke-width:1.0;"/><path d="M88.0533,447.3721 L88.0533,451.041 L89.6803,451.041 Q90.8507,451.041 91.3197,450.6426 Q91.7887,450.2441 91.7887,449.2563 Q91.7887,448.252 91.2989,447.812 Q90.8092,447.3721 89.6803,447.3721 Z M88.0533,442.541 L88.0533,445.4214 L89.6803,445.4214 Q90.61,445.4214 91.0042,445.0894 Q91.3985,444.7573 91.3985,443.9937 Q91.3985,443.23 90.9959,442.8855 Q90.5934,442.541 89.6803,442.541 Z M85.6876,440.5903 L89.6803,440.5903 Q91.7472,440.5903 92.7889,441.3748 Q93.8307,442.1592 93.8307,443.7197 Q93.8307,444.915 93.2164,445.5874 Q92.6021,446.2598 91.4151,446.3677 Q92.8346,446.5088 93.5526,447.3223 Q94.2706,448.1357 94.2706,449.5967 Q94.2706,451.3896 93.1915,452.1948 Q92.1124,453 89.6803,453 L85.6876,453 Z " fill="#000000"/><text fill="#000000" font-family="sans-serif" font-size="14" lengthAdjust="spacing" textLength="39" x="109.35" y="451.291">Blob1</text><line style="stroke:#181818;stroke-width:0.5;" x1="50" x2="176" y1="462" y2="462"/><rect fill="none" height="6" style="stroke:#C82930;stroke-width:1.0;" width="6" x="57" y="472.7441"/><text fill="#000000" font-family="sans-serif" font-size="14" lengthAdjust="spacing" textLength="102" x="69" y="479.5352">sha: 795ddc40</text><line style="stroke:#181818;stroke-width:1.0;" x1="50" x2="176" y1="486.4883" y2="486.4883"/><text fill="#000000" font-family="sans-serif" font-size="14" lengthAdjust="spacing" textLength="61" x="55" y="504.0234">FirstData</text><text fill="#000000" font-family="sans-serif" font-size="14" lengthAdjust="spacing" textLength="4" x="55" y="520.5117"> </text></g><g id="elem_GMN7"><path d="M18.5,6 L18.5,31.3105 A0,0 0 0 0 18.5,31.3105 L48.86,31.3105 L82.77,90.77 L56.86,31.3105 L75.5,31.3105 A0,0 0 0 0 75.5,31.3105 L75.5,16 L65.5,6 L18.5,6 A0,0 0 0 0 18.5,6 " fill="#90EE90" style="stroke:#181818;stroke-width:0.5;"/><path d="M65.5,6 L65.5,16 L75.5,16 L65.5,6 " fill="#90EE90" style="stroke:#181818;stroke-width:0.5;"/><text fill="#000000" font-family="sans-serif" font-size="13" lengthAdjust="spacing" textLength="36" x="24.5" y="23.5684">HEAD</text></g><g id="elem_GMN10"><path d="M110.5,6 L110.5,31.3105 A0,0 0 0 0 110.5,31.3105 L170.05,31.3105 L143.69,90.77 L178.05,31.3105 L249.5,31.3105 A0,0 0 0 0 249.5,31.3105 L249.5,16 L239.5,6 L110.5,6 A0,0 0 0 0 110.5,6 " fill="#90EE90" style="stroke:#181818;stroke-width:0.5;"/><path d="M239.5,6 L239.5,16 L249.5,16 L239.5,6 " fill="#90EE90" style="stroke:#181818;stroke-width:0.5;"/><text fill="#000000" font-family="sans-serif" font-size="13" lengthAdjust="spacing" textLength="118" x="116.5" y="23.5684">refs/heads/master</text></g><!--link Commit1 to Tree1--><g id="link_Commit1_Tree1"><path codeLine="22" d="M113,213.47 C113,230.83 113,249.64 113,266.58 " fill="none" id="Commit1-to-Tree1" style="stroke:#181818;stroke-width:1.0;"/><polygon fill="#181818" points="113,271.21,117,262.21,113,266.21,109,262.21,113,271.21" style="stroke:#181818;stroke-width:1.0;"/></g><!--link Tree1 to Blob1--><g id="link_Tree1_Blob1"><path codeLine="23" d="M113,370.27 C113,387.06 113,406.06 113,423.34 " fill="none" id="Tree1-to-Blob1" style="stroke:#181818;stroke-width:1.0;"/><polygon fill="#181818" points="113,428.11,117,419.11,113,423.11,109,419.11,113,428.11" style="stroke:#181818;stroke-width:1.0;"/></g><!--SRC=[ZT3DQiCm30Vmkvv2qCi6TUkiIUk64bW_nXwWBw36oWV4TObr68oz- -AKfQV2ZaBIxo-xx2W4F7ZdMabmjtivpBksRgJkcQ-lHO7Ve493EMgxCkkjgK0fS1m2rPmZMSiMgxOFif0lWTYKTcWBkLkEIMQqITwCIU47oZ7fFBXZplb9pieQhJcZICqUD2PQhzCKDzlCsZBLC8dxpbz6SVz4d5O6yIDwHnAA-t-lLggutmNtws8zgd3rmYZ-XhwQ_cZsIC4SFq_lnt-CzLo5PSDamz9H4ExX5m00]--></g></svg>