<?xml version="1.0" encoding="UTF-8" standalone="no"?><svg xmlns="http://www.w3.org/2000/svg" xmlns:xlink="http://www.w3.org/1999/xlink" contentStyleType="text/css" height="567px" preserveAspectRatio="none" style="width:937px;height:567px;background:#FFFFFF;" version="1.1" viewBox="0 0 937 567" width="937px" zoomAndPan="magnify"><defs/><g><!--class Commit3--><g id="elem_Commit3"><rect codeLine="2" fill="#F1F1F1" height="121.9531" id="Commit3" rx="2.5" ry="2.5" style="stroke:#181818;stroke-width:0.5;" width="183" x="536.5" y="91"/><ellipse cx="592.25" cy="107" fill="#FFA500" rx="11" ry="11" style="stroke:#181818;stroke-width:1.0;"/><path d="M594.7231,113.1431 Q594.1421,113.4419 593.5029,113.5913 Q592.8638,113.7407 592.1582,113.7407 Q589.6514,113.7407 588.3315,112.0889 Q587.0117,110.437 587.0117,107.3159 Q587.0117,104.1865 588.3315,102.5347 Q589.6514,100.8828 592.1582,100.8828 Q592.8638,100.8828 593.5112,101.0322 Q594.1587,101.1816 594.7231,101.4805 L594.7231,104.2031 Q594.0923,103.6221 593.4988,103.3523 Q592.9053,103.0825 592.2744,103.0825 Q590.9297,103.0825 590.2449,104.1492 Q589.5601,105.2158 589.5601,107.3159 Q589.5601,109.4077 590.2449,110.4744 Q590.9297,111.541 592.2744,111.541 Q592.9053,111.541 593.4988,111.2712 Q594.0923,111.0015 594.7231,110.4204 Z " fill="#000000"/><text fill="#000000" font-family="sans-serif" font-size="14" lengthAdjust="spacing" textLength="63" x="612.75" y="112.291">Commit3</text><line style="stroke:#181818;stroke-width:0.5;" x1="537.5" x2="718.5" y1="123" y2="123"/><rect fill="none" height="6" style="stroke:#C82930;stroke-width:1.0;" width="6" x="544.5" y="133.7441"/><text fill="#000000" font-family="sans-serif" font-size="14" lengthAdjust="spacing" textLength="99" x="556.5" y="140.5352">sha: 849d8fba</text><line style="stroke:#181818;stroke-width:1.0;" x1="537.5" x2="718.5" y1="147.4883" y2="147.4883"/><text fill="#000000" font-family="sans-serif" font-size="14" lengthAdjust="spacing" textLength="171" x="542.5" y="165.0234">message: added third.txt</text><text fill="#000000" font-family="sans-serif" font-size="14" lengthAdjust="spacing" textLength="4" x="542.5" y="181.5117"> </text><line style="stroke:#181818;stroke-width:1.0;" x1="537.5" x2="718.5" y1="188.4648" y2="188.4648"/><text fill="#000000" font-family="sans-serif" font-size="14" lengthAdjust="spacing" textLength="170" x="542.5" y="206">timestamp: 1580813902</text></g><!--class Commit2--><g id="elem_Commit2"><rect codeLine="10" fill="#F1F1F1" height="121.9531" id="Commit2" rx="2.5" ry="2.5" style="stroke:#181818;stroke-width:0.5;" width="192" x="268" y="91"/><ellipse cx="328.25" cy="107" fill="#ADD8E6" rx="11" ry="11" style="stroke:#181818;stroke-width:1.0;"/><path d="M330.7231,113.1431 Q330.1421,113.4419 329.5029,113.5913 Q328.8638,113.7407 328.1582,113.7407 Q325.6514,113.7407 324.3315,112.0889 Q323.0117,110.437 323.0117,107.3159 Q323.0117,104.1865 324.3315,102.5347 Q325.6514,100.8828 328.1582,100.8828 Q328.8638,100.8828 329.5112,101.0322 Q330.1587,101.1816 330.7231,101.4805 L330.7231,104.2031 Q330.0923,103.6221 329.4988,103.3523 Q328.9053,103.0825 328.2744,103.0825 Q326.9297,103.0825 326.2449,104.1492 Q325.5601,105.2158 325.5601,107.3159 Q325.5601,109.4077 326.2449,110.4744 Q326.9297,111.541 328.2744,111.541 Q328.9053,111.541 329.4988,111.2712 Q330.0923,111.0015 330.7231,110.4204 Z " fill="#000000"/><text fill="#000000" font-family="sans-serif" font-size="14" lengthAdjust="spacing" textLength="63" x="348.75" y="112.291">Commit2</text><line style="stroke:#181818;stroke-width:0.5;" x1="269" x2="459" y1="123" y2="123"/><rect fill="none" height="6" style="stroke:#C82930;stroke-width:1.0;" width="6" x="276" y="133.7441"/><text fill="#000000" font-family="sans-serif" font-size="14" lengthAdjust="spacing" textLength="104" x="288" y="140.5352">sha: 993bb5b5</text><line style="stroke:#181818;stroke-width:1.0;" x1="269" x2="459" y1="147.4883" y2="147.4883"/><text fill="#000000" font-family="sans-serif" font-size="14" lengthAdjust="spacing" textLength="180" x="274" y="165.0234">message: added seond.txt</text><text fill="#000000" font-family="sans-serif" font-size="14" lengthAdjust="spacing" textLength="4" x="274" y="181.5117"> </text><line style="stroke:#181818;stroke-width:1.0;" x1="269" x2="459" y1="188.4648" y2="188.4648"/><text fill="#000000" font-family="sans-serif" font-size="14" lengthAdjust="spacing" textLength="170" x="274" y="206">timestamp: 1580813162</text></g><!--class Commit1--><g id="elem_Commit1"><rect codeLine="18" fill="#F1F1F1" height="121.9531" id="Commit1" rx="2.5" ry="2.5" style="stroke:#181818;stroke-width:0.5;" width="182" x="37" y="91"/><ellipse cx="92.25" cy="107" fill="#90EE90" rx="11" ry="11" style="stroke:#181818;stroke-width:1.0;"/><path d="M94.7231,113.1431 Q94.1421,113.4419 93.5029,113.5913 Q92.8638,113.7407 92.1582,113.7407 Q89.6514,113.7407 88.3315,112.0889 Q87.0117,110.437 87.0117,107.3159 Q87.0117,104.1865 88.3315,102.5347 Q89.6514,100.8828 92.1582,100.8828 Q92.8638,100.8828 93.5112,101.0322 Q94.1587,101.1816 94.7231,101.4805 L94.7231,104.2031 Q94.0923,103.6221 93.4988,103.3523 Q92.9053,103.0825 92.2744,103.0825 Q90.9297,103.0825 90.2449,104.1492 Q89.5601,105.2158 89.5601,107.3159 Q89.5601,109.4077 90.2449,110.4744 Q90.9297,111.541 92.2744,111.541 Q92.9053,111.541 93.4988,111.2712 Q94.0923,111.0015 94.7231,110.4204 Z " fill="#000000"/><text fill="#000000" font-family="sans-serif" font-size="14" lengthAdjust="spacing" textLength="63" x="112.75" y="112.291">Commit1</text><line style="stroke:#181818;stroke-width:0.5;" x1="38" x2="218" y1="123" y2="123"/><rect fill="none" height="6" style="stroke:#C82930;stroke-width:1.0;" width="6" x="45" y="133.7441"/><text fill="#000000" font-family="sans-serif" font-size="14" lengthAdjust="spacing" textLength="100" x="57" y="140.5352">sha: 0d38698f</text><line style="stroke:#181818;stroke-width:1.0;" x1="38" x2="218" y1="147.4883" y2="147.4883"/><text fill="#000000" font-family="sans-serif" font-size="14" lengthAdjust="spacing" textLength="165" x="43" y="165.0234">message: added first.txt</text><text fill="#000000" font-family="sans-serif" font-size="14" lengthAdjust="spacing" textLength="4" x="43" y="181.5117"> </text><line style="stroke:#181818;stroke-width:1.0;" x1="38" x2="218" y1="188.4648" y2="188.4648"/><text fill="#000000" font-family="sans-serif" font-size="14" lengthAdjust="spacing" textLength="170" x="43" y="206">timestamp: 1580812884</text></g><!--class Tree3--><g id="elem_Tree3"><rect codeLine="26" fill="#F1F1F1" height="130.4414" id="Tree3" rx="2.5" ry="2.5" style="stroke:#181818;stroke-width:0.5;" width="227" x="514.5" y="273"/><ellipse cx="603.75" cy="289" fill="#FFA500" rx="11" ry="11" style="stroke:#181818;stroke-width:1.0;"/><path d="M605.0918,296.25 L602.6431,296.25 L602.6431,285.9985 L599.4971,285.9985 L599.4971,283.8569 L608.2378,283.8569 L608.2378,285.9985 L605.0918,285.9985 Z " fill="#000000"/><text fill="#000000" font-family="sans-serif" font-size="14" lengthAdjust="spacing" textLength="40" x="624.25" y="294.291">Tree3</text><line style="stroke:#181818;stroke-width:0.5;" x1="515.5" x2="740.5" y1="305" y2="305"/><rect fill="none" height="6" style="stroke:#C82930;stroke-width:1.0;" width="6" x="522.5" y="315.7441"/><text fill="#000000" font-family="sans-serif" font-size="14" lengthAdjust="spacing" textLength="100" x="534.5" y="322.5352">sha: 34f58182</text><line style="stroke:#181818;stroke-width:1.0;" x1="515.5" x2="740.5" y1="329.4883" y2="329.4883"/><polygon fill="none" points="525.5,338.2324,529.5,342.2324,525.5,346.2324,521.5,342.2324" style="stroke:#B38D22;stroke-width:1.0;"/><text fill="#000000" font-family="sans-serif" font-size="14" lengthAdjust="spacing" textLength="182" x="534.5" y="347.0234">first.txt 100644 795ddc40</text><polygon fill="none" points="525.5,354.7207,529.5,358.7207,525.5,362.7207,521.5,358.7207" style="stroke:#B38D22;stroke-width:1.0;"/><text fill="#000000" font-family="sans-serif" font-size="14" lengthAdjust="spacing" textLength="201" x="534.5" y="363.5117">seconf.txt 100644 0ba93614</text><polygon fill="none" points="525.5,371.209,529.5,375.209,525.5,379.209,521.5,375.209" style="stroke:#B38D22;stroke-width:1.0;"/><text fill="#000000" font-family="sans-serif" font-size="14" lengthAdjust="spacing" textLength="188" x="534.5" y="380">third.txt 100644 da13a9b8</text><text fill="#000000" font-family="sans-serif" font-size="14" lengthAdjust="spacing" textLength="4" x="534.5" y="396.4883"> </text></g><!--class Tree2--><g id="elem_Tree2"><rect codeLine="34" fill="#F1F1F1" height="113.9531" id="Tree2" rx="2.5" ry="2.5" style="stroke:#181818;stroke-width:0.5;" width="227" x="252.5" y="281"/><ellipse cx="341.75" cy="297" fill="#ADD8E6" rx="11" ry="11" style="stroke:#181818;stroke-width:1.0;"/><path d="M343.0918,304.25 L340.6431,304.25 L340.6431,293.9985 L337.4971,293.9985 L337.4971,291.8569 L346.2378,291.8569 L346.2378,293.9985 L343.0918,293.9985 Z " fill="#000000"/><text fill="#000000" font-family="sans-serif" font-size="14" lengthAdjust="spacing" textLength="40" x="362.25" y="302.291">Tree2</text><line style="stroke:#181818;stroke-width:0.5;" x1="253.5" x2="478.5" y1="313" y2="313"/><rect fill="none" height="6" style="stroke:#C82930;stroke-width:1.0;" width="6" x="260.5" y="323.7441"/><text fill="#000000" font-family="sans-serif" font-size="14" lengthAdjust="spacing" textLength="103" x="272.5" y="330.5352">sha: 22e61880</text><line style="stroke:#181818;stroke-width:1.0;" x1="253.5" x2="478.5" y1="337.4883" y2="337.4883"/><polygon fill="none" points="263.5,346.2324,267.5,350.2324,263.5,354.2324,259.5,350.2324" style="stroke:#B38D22;stroke-width:1.0;"/><text fill="#000000" font-family="sans-serif" font-size="14" lengthAdjust="spacing" textLength="182" x="272.5" y="355.0234">first.txt 100644 795ddc40</text><polygon fill="none" points="263.5,362.7207,267.5,366.7207,263.5,370.7207,259.5,366.7207" style="stroke:#B38D22;stroke-width:1.0;"/><text fill="#000000" font-family="sans-serif" font-size="14" lengthAdjust="spacing" textLength="201" x="272.5" y="371.5117">seconf.txt 100644 0ba93614</text><text fill="#000000" font-family="sans-serif" font-size="14" lengthAdjust="spacing" textLength="4" x="272.5" y="388"> </text></g><!--class Tree1--><g id="elem_Tree1"><rect codeLine="41" fill="#F1F1F1" height="97.4648" id="Tree1" rx="2.5" ry="2.5" style="stroke:#181818;stroke-width:0.5;" width="208" x="9" y="289.5"/><ellipse cx="88.75" cy="305.5" fill="#90EE90" rx="11" ry="11" style="stroke:#181818;stroke-width:1.0;"/><path d="M90.0918,312.75 L87.6431,312.75 L87.6431,302.4985 L84.4971,302.4985 L84.4971,300.3569 L93.2378,300.3569 L93.2378,302.4985 L90.0918,302.4985 Z " fill="#000000"/><text fill="#000000" font-family="sans-serif" font-size="14" lengthAdjust="spacing" textLength="40" x="109.25" y="310.791">Tree1</text><line style="stroke:#181818;stroke-width:0.5;" x1="10" x2="216" y1="321.5" y2="321.5"/><rect fill="none" height="6" style="stroke:#C82930;stroke-width:1.0;" width="6" x="17" y="332.2441"/><text fill="#000000" font-family="sans-serif" font-size="14" lengthAdjust="spacing" textLength="102" x="29" y="339.0352">sha: 3d800e5a</text><line style="stroke:#181818;stroke-width:1.0;" x1="10" x2="216" y1="345.9883" y2="345.9883"/><polygon fill="none" points="20,354.7324,24,358.7324,20,362.7324,16,358.7324" style="stroke:#B38D22;stroke-width:1.0;"/><text fill="#000000" font-family="sans-serif" font-size="14" lengthAdjust="spacing" textLength="182" x="29" y="363.5234">first.txt 100644 795ddc40</text><text fill="#000000" font-family="sans-serif" font-size="14" lengthAdjust="spacing" textLength="4" x="29" y="380.0117"> </text></g><!--class Blob3--><g id="elem_Blob3"><rect codeLine="47" fill="#F1F1F1" height="97.4648" id="Blob3" rx="2.5" ry="2.5" style="stroke:#181818;stroke-width:0.5;" width="128" x="597" y="463"/><ellipse cx="637.65" cy="479" fill="#FFA500" rx="11" ry="11" style="stroke:#181818;stroke-width:1.0;"/><path d="M636.0533,480.3721 L636.0533,484.041 L637.6803,484.041 Q638.8507,484.041 639.3197,483.6426 Q639.7887,483.2441 639.7887,482.2563 Q639.7887,481.252 639.2989,480.812 Q638.8092,480.3721 637.6803,480.3721 Z M636.0533,475.541 L636.0533,478.4214 L637.6803,478.4214 Q638.61,478.4214 639.0042,478.0894 Q639.3985,477.7573 639.3985,476.9937 Q639.3985,476.23 638.9959,475.8855 Q638.5934,475.541 637.6803,475.541 Z M633.6876,473.5903 L637.6803,473.5903 Q639.7472,473.5903 640.7889,474.3748 Q641.8307,475.1592 641.8307,476.7197 Q641.8307,477.915 641.2164,478.5874 Q640.6021,479.2598 639.4151,479.3677 Q640.8346,479.5088 641.5526,480.3223 Q642.2706,481.1357 642.2706,482.5967 Q642.2706,484.3896 641.1915,485.1948 Q640.1124,486 637.6803,486 L633.6876,486 Z " fill="#000000"/><text fill="#000000" font-family="sans-serif" font-size="14" lengthAdjust="spacing" textLength="39" x="657.35" y="484.291">Blob3</text><line style="stroke:#181818;stroke-width:0.5;" x1="598" x2="724" y1="495" y2="495"/><rect fill="none" height="6" style="stroke:#C82930;stroke-width:1.0;" width="6" x="605" y="505.7441"/><text fill="#000000" font-family="sans-serif" font-size="14" lengthAdjust="spacing" textLength="102" x="617" y="512.5352">sha: da13a9b8</text><line style="stroke:#181818;stroke-width:1.0;" x1="598" x2="724" y1="519.4883" y2="519.4883"/><text fill="#000000" font-family="sans-serif" font-size="14" lengthAdjust="spacing" textLength="68" x="603" y="537.0234">ThirdData</text><text fill="#000000" font-family="sans-serif" font-size="14" lengthAdjust="spacing" textLength="4" x="603" y="553.5117"> </text></g><!--class Blob1--><g id="elem_Blob1"><rect codeLine="53" fill="#F1F1F1" height="97.4648" id="Blob1" rx="2.5" ry="2.5" style="stroke:#181818;stroke-width:0.5;" width="128" x="269" y="463"/><ellipse cx="309.65" cy="479" fill="#90EE90" rx="11" ry="11" style="stroke:#181818;stroke-width:1.0;"/><path d="M308.0533,480.3721 L308.0533,484.041 L309.6803,484.041 Q310.8507,484.041 311.3197,483.6426 Q311.7887,483.2441 311.7887,482.2563 Q311.7887,481.252 311.2989,480.812 Q310.8092,480.3721 309.6803,480.3721 Z M308.0533,475.541 L308.0533,478.4214 L309.6803,478.4214 Q310.61,478.4214 311.0042,478.0894 Q311.3985,477.7573 311.3985,476.9937 Q311.3985,476.23 310.9959,475.8855 Q310.5934,475.541 309.6803,475.541 Z M305.6876,473.5903 L309.6803,473.5903 Q311.7472,473.5903 312.7889,474.3748 Q313.8307,475.1592 313.8307,476.7197 Q313.8307,477.915 313.2164,478.5874 Q312.6021,479.2598 311.4151,479.3677 Q312.8346,479.5088 313.5526,480.3223 Q314.2706,481.1357 314.2706,482.5967 Q314.2706,484.3896 313.1915,485.1948 Q312.1124,486 309.6803,486 L305.6876,486 Z " fill="#000000"/><text fill="#000000" font-family="sans-serif" font-size="14" lengthAdjust="spacing" textLength="39" x="329.35" y="484.291">Blob1</text><line style="stroke:#181818;stroke-width:0.5;" x1="270" x2="396" y1="495" y2="495"/><rect fill="none" height="6" style="stroke:#C82930;stroke-width:1.0;" width="6" x="277" y="505.7441"/><text fill="#000000" font-family="sans-serif" font-size="14" lengthAdjust="spacing" textLength="102" x="289" y="512.5352">sha: 795ddc40</text><line style="stroke:#181818;stroke-width:1.0;" x1="270" x2="396" y1="519.4883" y2="519.4883"/><text fill="#000000" font-family="sans-serif" font-size="14" lengthAdjust="spacing" textLength="61" x="275" y="537.0234">FirstData</text><text fill="#000000" font-family="sans-serif" font-size="14" lengthAdjust="spacing" textLength="4" x="275" y="553.5117"> </text></g><!--class Blob2--><g id="elem_Blob2"><rect codeLine="59" fill="#F1F1F1" height="97.4648" id="Blob2" rx="2.5" ry="2.5" style="stroke:#181818;stroke-width:0.5;" width="129" x="432.5" y="463"/><ellipse cx="473.6" cy="479" fill="#ADD8E6" rx="11" ry="11" style="stroke:#181818;stroke-width:1.0;"/><path d="M472.0033,480.3721 L472.0033,484.041 L473.6303,484.041 Q474.8007,484.041 475.2697,483.6426 Q475.7387,483.2441 475.7387,482.2563 Q475.7387,481.252 475.2489,480.812 Q474.7592,480.3721 473.6303,480.3721 Z M472.0033,475.541 L472.0033,478.4214 L473.6303,478.4214 Q474.56,478.4214 474.9542,478.0894 Q475.3485,477.7573 475.3485,476.9937 Q475.3485,476.23 474.9459,475.8855 Q474.5434,475.541 473.6303,475.541 Z M469.6376,473.5903 L473.6303,473.5903 Q475.6972,473.5903 476.7389,474.3748 Q477.7807,475.1592 477.7807,476.7197 Q477.7807,477.915 477.1664,478.5874 Q476.5521,479.2598 475.3651,479.3677 Q476.7846,479.5088 477.5026,480.3223 Q478.2206,481.1357 478.2206,482.5967 Q478.2206,484.3896 477.1415,485.1948 Q476.0624,486 473.6303,486 L469.6376,486 Z " fill="#000000"/><text fill="#000000" font-family="sans-serif" font-size="14" lengthAdjust="spacing" textLength="39" x="493.4" y="484.291">Blob2</text><line style="stroke:#181818;stroke-width:0.5;" x1="433.5" x2="560.5" y1="495" y2="495"/><rect fill="none" height="6" style="stroke:#C82930;stroke-width:1.0;" width="6" x="440.5" y="505.7441"/><text fill="#000000" font-family="sans-serif" font-size="14" lengthAdjust="spacing" textLength="103" x="452.5" y="512.5352">sha: 0ba93614</text><line style="stroke:#181818;stroke-width:1.0;" x1="433.5" x2="560.5" y1="519.4883" y2="519.4883"/><text fill="#000000" font-family="sans-serif" font-size="14" lengthAdjust="spacing" textLength="81" x="438.5" y="537.0234">SecondData</text><text fill="#000000" font-family="sans-serif" font-size="14" lengthAdjust="spacing" textLength="4" x="438.5" y="553.5117"> </text></g><g id="elem_GMN24"><path d="M467.5,6 L467.5,31.3105 A0,0 0 0 0 467.5,31.3105 L503.71,31.3105 L567.54,90.77 L511.71,31.3105 L524.5,31.3105 A0,0 0 0 0 524.5,31.3105 L524.5,16 L514.5,6 L467.5,6 A0,0 0 0 0 467.5,6 " fill="#FFA500" style="stroke:#181818;stroke-width:0.5;"/><path d="M514.5,6 L514.5,16 L524.5,16 L514.5,6 " fill="#FFA500" style="stroke:#181818;stroke-width:0.5;"/><text fill="#000000" font-family="sans-serif" font-size="13" lengthAdjust="spacing" textLength="36" x="473.5" y="23.5684">HEAD</text></g><g id="elem_GMN27"><path d="M559.5,6 L559.5,31.3105 A0,0 0 0 0 559.5,31.3105 L624.91,31.3105 L628.46,90.77 L632.91,31.3105 L698.5,31.3105 A0,0 0 0 0 698.5,31.3105 L698.5,16 L688.5,6 L559.5,6 A0,0 0 0 0 559.5,6 " fill="#FFA500" style="stroke:#181818;stroke-width:0.5;"/><path d="M688.5,6 L688.5,16 L698.5,16 L688.5,6 " fill="#FFA500" style="stroke:#181818;stroke-width:0.5;"/><text fill="#000000" font-family="sans-serif" font-size="13" lengthAdjust="spacing" textLength="118" x="565.5" y="23.5684">refs/heads/master</text></g><g id="elem_GMN30"><path d="M292,6 L292,31.3105 A0,0 0 0 0 292,31.3105 L358.18,31.3105 L363.08,90.77 L366.18,31.3105 L432,31.3105 A0,0 0 0 0 432,31.3105 L432,16 L422,6 L292,6 A0,0 0 0 0 292,6 " fill="#ADD8E6" style="stroke:#181818;stroke-width:0.5;"/><path d="M422,6 L422,16 L432,16 L422,6 " fill="#ADD8E6" style="stroke:#181818;stroke-width:0.5;"/><text fill="#000000" font-family="sans-serif" font-size="13" lengthAdjust="spacing" textLength="119" x="298" y="23.5684">refs/heads/feature</text></g><g id="elem_GMN33"><path d="M733.5,6 L733.5,31.3105 A0,0 0 0 0 733.5,31.3105 L809.54,31.3105 L719.64,91.93 L817.54,31.3105 L930.5,31.3105 A0,0 0 0 0 930.5,31.3105 L930.5,16 L920.5,6 L733.5,6 A0,0 0 0 0 733.5,6 " fill="#FFA500" style="stroke:#181818;stroke-width:0.5;"/><path d="M920.5,6 L920.5,16 L930.5,16 L920.5,6 " fill="#FFA500" style="stroke:#181818;stroke-width:0.5;"/><text fill="#000000" font-family="sans-serif" font-size="13" lengthAdjust="spacing" textLength="176" x="739.5" y="23.5684">refs/remotes/origin/master</text></g><!--link Commit3 to Tree3--><g id="link_Commit3_Tree3"><path codeLine="65" d="M628,213.25 C628,230.24 628,248.87 628,266.41 " fill="none" id="Commit3-to-Tree3" style="stroke:#181818;stroke-width:1.0;"/><polygon fill="#181818" points="628,271.3,632,262.3,628,266.3,624,262.3,628,271.3" style="stroke:#181818;stroke-width:1.0;"/></g><!--link Commit2 to Tree2--><g id="link_Commit2_Tree2"><path codeLine="66" d="M364.65,213.25 C364.87,232.83 365.1,254.59 365.32,274.34 " fill="none" id="Commit2-to-Tree2" style="stroke:#181818;stroke-width:1.0;"/><polygon fill="#181818" points="365.37,279.16,369.2669,270.1149,365.3129,274.1603,361.2674,270.2063,365.37,279.16" style="stroke:#181818;stroke-width:1.0;"/></g><!--link Commit1 to Tree1--><g id="link_Commit1_Tree1"><path codeLine="67" d="M123.09,213.25 C121.26,235.67 119.2,260.95 117.42,282.79 " fill="none" id="Commit1-to-Tree1" style="stroke:#181818;stroke-width:1.0;"/><polygon fill="#181818" points="117.02,287.65,121.7536,279.0133,117.4352,282.6673,113.7812,278.3489,117.02,287.65" style="stroke:#181818;stroke-width:1.0;"/></g><!--link Tree3 to Blob1--><g id="link_Tree3_Blob1"><path codeLine="68" d="M517.31,403.35 C478.83,425.72 436.77,450.17 402.56,470.06 " fill="none" id="Tree3-to-Blob1" style="stroke:#181818;stroke-width:1.0;"/><polygon fill="#181818" points="398.44,472.45,408.2299,471.3743,402.7599,469.9324,404.2018,464.4624,398.44,472.45" style="stroke:#181818;stroke-width:1.0;"/></g><!--link Tree3 to Blob2--><g id="link_Tree3_Blob2"><path codeLine="69" d="M578.85,403.35 C565.11,421.33 550.35,440.66 537.2,457.88 " fill="none" id="Tree3-to-Blob2" style="stroke:#181818;stroke-width:1.0;"/><polygon fill="#181818" points="534.45,461.47,543.08,456.7241,537.4751,457.4889,536.7102,451.884,534.45,461.47" style="stroke:#181818;stroke-width:1.0;"/></g><!--link Tree3 to Blob3--><g id="link_Tree3_Blob3"><path codeLine="70" d="M640.38,403.35 C643.75,420.87 647.37,439.67 650.62,456.55 " fill="none" id="Tree3-to-Blob3" style="stroke:#181818;stroke-width:1.0;"/><polygon fill="#181818" points="651.51,461.19,653.7425,451.5975,650.5679,456.2796,645.8858,453.1049,651.51,461.19" style="stroke:#181818;stroke-width:1.0;"/></g><!--link Tree2 to Blob1--><g id="link_Tree2_Blob1"><path codeLine="71" d="M355.19,395.16 C351.41,414.81 347.17,436.83 343.42,456.33 " fill="none" id="Tree2-to-Blob1" style="stroke:#181818;stroke-width:1.0;"/><polygon fill="#181818" points="342.51,461.07,348.1385,452.9879,343.4548,456.1601,340.2826,451.4763,342.51,461.07" style="stroke:#181818;stroke-width:1.0;"/></g><!--link Tree2 to Blob2--><g id="link_Tree2_Blob2"><path codeLine="72" d="M408.89,395.16 C424.23,415.24 441.46,437.79 456.58,457.59 " fill="none" id="Tree2-to-Blob2" style="stroke:#181818;stroke-width:1.0;"/><polygon fill="#181818" points="459.46,461.36,457.1614,451.7831,456.419,457.391,450.8111,456.6487,459.46,461.36" style="stroke:#181818;stroke-width:1.0;"/></g><!--link Tree1 to Blob1--><g id="link_Tree1_Blob1"><path codeLine="73" d="M174.28,386.77 C203.01,409.16 237.29,435.89 266.63,458.76 " fill="none" id="Tree1-to-Blob1" style="stroke:#181818;stroke-width:1.0;"/><polygon fill="#181818" points="270.47,461.76,265.8281,453.0736,266.5255,458.6873,260.9119,459.3848,270.47,461.76" style="stroke:#181818;stroke-width:1.0;"/></g><!--reverse link Commit2 to Commit3--><g id="link_Commit2_Commit3"><path codeLine="74" d="M466.92,152 C489.96,152 512.99,152 536.03,152 " fill="none" id="Commit2-backto-Commit3" style="stroke:#181818;stroke-width:1.0;"/><polygon fill="#181818" points="461.94,152,470.94,156,466.94,152,470.94,148,461.94,152" style="stroke:#181818;stroke-width:1.0;"/></g><!--reverse link Commit1 to Commit2--><g id="link_Commit1_Commit2"><path codeLine="75" d="M225.69,152 C239.66,152 253.63,152 267.6,152 " fill="none" id="Commit1-backto-Commit2" style="stroke:#181818;stroke-width:1.0;"/><polygon fill="#181818" points="220.78,152,229.78,156,225.78,152,229.78,148,220.78,152" style="stroke:#181818;stroke-width:1.0;"/></g><!--SRC=[fPJBZfim58RtVWfBsNIaCl4561D5aPgaLVVD2vZuG900HxOZZLJrtMj2SO1XEfMwzBbzltyVEDVIMdpGJLCvZhVRJuVFsiYsXAVT3lz4aRt83HPnfaIHInH5g05hPGaRB9K2XTsbCkhPlJhK9LtbqqusrmscYI22yemmz0kTHnJMK-gglBYylar0MSRpFCcJ1P05tVuDHDCvY8v0fG5enoIYk4WpKIoGYifOzpw92H47qidFlTjsMh2DnqKYg63TcDLZBAQ4f76CNx94gNDCVCx2MRV5E4bocV6KnZuPB1voIb8kiroWYGpMorZqbJ58gH3alvHCQ7H4UsCkLu8GIEH7k31nN-lyRkD-mSPmNJ_jr7bnb4vEUsdVkwmcu7p_jqxBstuswfzx5-xlstzqxWJ-yDL4qQvV13Hi-11XQ5Z58K9HlpBT-QvyTcQpCqVzsqxhsQoUZl91LUr3VmGzX3s25BNQ0NRwYdKH_W2htd-ymT-_VZb-K6AWiEiBI6NNZRGEp48zmwjWwxIb0Ebk1lw5OQ3nHNQjJLLMxG3x3G00]--></g></svg>