<?xml version="1.0" encoding="UTF-8" standalone="no"?><svg xmlns="http://www.w3.org/2000/svg" xmlns:xlink="http://www.w3.org/1999/xlink" contentStyleType="text/css" height="516px" preserveAspectRatio="none" style="width:1279px;height:516px;background:#FFFFFF;" version="1.1" viewBox="0 0 1279 516" width="1279px" zoomAndPan="magnify"><defs/><g><!--class Commit5--><g id="elem_Commit5"><rect codeLine="2" fill="#F1F1F1" height="121.9531" id="Commit5" rx="2.5" ry="2.5" style="stroke:#181818;stroke-width:0.5;" width="182" x="1042.5" y="7"/><ellipse cx="1097.75" cy="23" fill="#FFC0CB" rx="11" ry="11" style="stroke:#181818;stroke-width:1.0;"/><path d="M1100.2231,29.1431 Q1099.6421,29.4419 1099.0029,29.5913 Q1098.3638,29.7407 1097.6582,29.7407 Q1095.1514,29.7407 1093.8315,28.0889 Q1092.5117,26.437 1092.5117,23.3159 Q1092.5117,20.1865 1093.8315,18.5347 Q1095.1514,16.8828 1097.6582,16.8828 Q1098.3638,16.8828 1099.0112,17.0322 Q1099.6587,17.1816 1100.2231,17.4805 L1100.2231,20.2031 Q1099.5923,19.6221 1098.9988,19.3523 Q1098.4053,19.0825 1097.7744,19.0825 Q1096.4297,19.0825 1095.7449,20.1492 Q1095.0601,21.2158 1095.0601,23.3159 Q1095.0601,25.4077 1095.7449,26.4744 Q1096.4297,27.541 1097.7744,27.541 Q1098.4053,27.541 1098.9988,27.2712 Q1099.5923,27.0015 1100.2231,26.4204 Z " fill="#000000"/><text fill="#000000" font-family="sans-serif" font-size="14" lengthAdjust="spacing" textLength="63" x="1118.25" y="28.291">Commit5</text><line style="stroke:#181818;stroke-width:0.5;" x1="1043.5" x2="1223.5" y1="39" y2="39"/><rect fill="none" height="6" style="stroke:#C82930;stroke-width:1.0;" width="6" x="1050.5" y="49.7441"/><text fill="#000000" font-family="sans-serif" font-size="14" lengthAdjust="spacing" textLength="100" x="1062.5" y="56.5352">sha: 91ddeac3</text><line style="stroke:#181818;stroke-width:1.0;" x1="1043.5" x2="1223.5" y1="63.4883" y2="63.4883"/><text fill="#000000" font-family="sans-serif" font-size="14" lengthAdjust="spacing" textLength="151" x="1048.5" y="81.0234">message: fifth commit</text><text fill="#000000" font-family="sans-serif" font-size="14" lengthAdjust="spacing" textLength="4" x="1048.5" y="97.5117"> </text><line style="stroke:#181818;stroke-width:1.0;" x1="1043.5" x2="1223.5" y1="104.4648" y2="104.4648"/><text fill="#000000" font-family="sans-serif" font-size="14" lengthAdjust="spacing" textLength="170" x="1048.5" y="122">timestamp: 1580924421</text></g><!--class Commit4--><g id="elem_Commit4"><rect codeLine="10" fill="#F1F1F1" height="121.9531" id="Commit4" rx="2.5" ry="2.5" style="stroke:#181818;stroke-width:0.5;" width="182" x="802.5" y="7"/><ellipse cx="857.75" cy="23" fill="#FFFF00" rx="11" ry="11" style="stroke:#181818;stroke-width:1.0;"/><path d="M860.2231,29.1431 Q859.6421,29.4419 859.0029,29.5913 Q858.3638,29.7407 857.6582,29.7407 Q855.1514,29.7407 853.8315,28.0889 Q852.5117,26.437 852.5117,23.3159 Q852.5117,20.1865 853.8315,18.5347 Q855.1514,16.8828 857.6582,16.8828 Q858.3638,16.8828 859.0112,17.0322 Q859.6587,17.1816 860.2231,17.4805 L860.2231,20.2031 Q859.5923,19.6221 858.9988,19.3523 Q858.4053,19.0825 857.7744,19.0825 Q856.4297,19.0825 855.7449,20.1492 Q855.0601,21.2158 855.0601,23.3159 Q855.0601,25.4077 855.7449,26.4744 Q856.4297,27.541 857.7744,27.541 Q858.4053,27.541 858.9988,27.2712 Q859.5923,27.0015 860.2231,26.4204 Z " fill="#000000"/><text fill="#000000" font-family="sans-serif" font-size="14" lengthAdjust="spacing" textLength="63" x="878.25" y="28.291">Commit4</text><line style="stroke:#181818;stroke-width:0.5;" x1="803.5" x2="983.5" y1="39" y2="39"/><rect fill="none" height="6" style="stroke:#C82930;stroke-width:1.0;" width="6" x="810.5" y="49.7441"/><text fill="#000000" font-family="sans-serif" font-size="14" lengthAdjust="spacing" textLength="101" x="822.5" y="56.5352">sha: 04c8335e</text><line style="stroke:#181818;stroke-width:1.0;" x1="803.5" x2="983.5" y1="63.4883" y2="63.4883"/><text fill="#000000" font-family="sans-serif" font-size="14" lengthAdjust="spacing" textLength="166" x="808.5" y="81.0234">message: fourth commit</text><text fill="#000000" font-family="sans-serif" font-size="14" lengthAdjust="spacing" textLength="4" x="808.5" y="97.5117"> </text><line style="stroke:#181818;stroke-width:1.0;" x1="803.5" x2="983.5" y1="104.4648" y2="104.4648"/><text fill="#000000" font-family="sans-serif" font-size="14" lengthAdjust="spacing" textLength="170" x="808.5" y="122">timestamp: 1580924403</text></g><!--class Commit3--><g id="elem_Commit3"><rect codeLine="18" fill="#F1F1F1" height="121.9531" id="Commit3" rx="2.5" ry="2.5" style="stroke:#181818;stroke-width:0.5;" width="182" x="538.5" y="7"/><ellipse cx="593.75" cy="23" fill="#FFA500" rx="11" ry="11" style="stroke:#181818;stroke-width:1.0;"/><path d="M596.2231,29.1431 Q595.6421,29.4419 595.0029,29.5913 Q594.3638,29.7407 593.6582,29.7407 Q591.1514,29.7407 589.8315,28.0889 Q588.5117,26.437 588.5117,23.3159 Q588.5117,20.1865 589.8315,18.5347 Q591.1514,16.8828 593.6582,16.8828 Q594.3638,16.8828 595.0112,17.0322 Q595.6587,17.1816 596.2231,17.4805 L596.2231,20.2031 Q595.5923,19.6221 594.9988,19.3523 Q594.4053,19.0825 593.7744,19.0825 Q592.4297,19.0825 591.7449,20.1492 Q591.0601,21.2158 591.0601,23.3159 Q591.0601,25.4077 591.7449,26.4744 Q592.4297,27.541 593.7744,27.541 Q594.4053,27.541 594.9988,27.2712 Q595.5923,27.0015 596.2231,26.4204 Z " fill="#000000"/><text fill="#000000" font-family="sans-serif" font-size="14" lengthAdjust="spacing" textLength="63" x="614.25" y="28.291">Commit3</text><line style="stroke:#181818;stroke-width:0.5;" x1="539.5" x2="719.5" y1="39" y2="39"/><rect fill="none" height="6" style="stroke:#C82930;stroke-width:1.0;" width="6" x="546.5" y="49.7441"/><text fill="#000000" font-family="sans-serif" font-size="14" lengthAdjust="spacing" textLength="97" x="558.5" y="56.5352">sha: e9c3f660</text><line style="stroke:#181818;stroke-width:1.0;" x1="539.5" x2="719.5" y1="63.4883" y2="63.4883"/><text fill="#000000" font-family="sans-serif" font-size="14" lengthAdjust="spacing" textLength="156" x="544.5" y="81.0234">message: third commit</text><text fill="#000000" font-family="sans-serif" font-size="14" lengthAdjust="spacing" textLength="4" x="544.5" y="97.5117"> </text><line style="stroke:#181818;stroke-width:1.0;" x1="539.5" x2="719.5" y1="104.4648" y2="104.4648"/><text fill="#000000" font-family="sans-serif" font-size="14" lengthAdjust="spacing" textLength="170" x="544.5" y="122">timestamp: 1580924395</text></g><!--class Commit2--><g id="elem_Commit2"><rect codeLine="26" fill="#F1F1F1" height="121.9531" id="Commit2" rx="2.5" ry="2.5" style="stroke:#181818;stroke-width:0.5;" width="184" x="273.5" y="7"/><ellipse cx="329.75" cy="23" fill="#ADD8E6" rx="11" ry="11" style="stroke:#181818;stroke-width:1.0;"/><path d="M332.2231,29.1431 Q331.6421,29.4419 331.0029,29.5913 Q330.3638,29.7407 329.6582,29.7407 Q327.1514,29.7407 325.8315,28.0889 Q324.5117,26.437 324.5117,23.3159 Q324.5117,20.1865 325.8315,18.5347 Q327.1514,16.8828 329.6582,16.8828 Q330.3638,16.8828 331.0112,17.0322 Q331.6587,17.1816 332.2231,17.4805 L332.2231,20.2031 Q331.5923,19.6221 330.9988,19.3523 Q330.4053,19.0825 329.7744,19.0825 Q328.4297,19.0825 327.7449,20.1492 Q327.0601,21.2158 327.0601,23.3159 Q327.0601,25.4077 327.7449,26.4744 Q328.4297,27.541 329.7744,27.541 Q330.4053,27.541 330.9988,27.2712 Q331.5923,27.0015 332.2231,26.4204 Z " fill="#000000"/><text fill="#000000" font-family="sans-serif" font-size="14" lengthAdjust="spacing" textLength="63" x="350.25" y="28.291">Commit2</text><line style="stroke:#181818;stroke-width:0.5;" x1="274.5" x2="456.5" y1="39" y2="39"/><rect fill="none" height="6" style="stroke:#C82930;stroke-width:1.0;" width="6" x="281.5" y="49.7441"/><text fill="#000000" font-family="sans-serif" font-size="14" lengthAdjust="spacing" textLength="103" x="293.5" y="56.5352">sha: 6b3a7927</text><line style="stroke:#181818;stroke-width:1.0;" x1="274.5" x2="456.5" y1="63.4883" y2="63.4883"/><text fill="#000000" font-family="sans-serif" font-size="14" lengthAdjust="spacing" textLength="172" x="279.5" y="81.0234">message: second commit</text><text fill="#000000" font-family="sans-serif" font-size="14" lengthAdjust="spacing" textLength="4" x="279.5" y="97.5117"> </text><line style="stroke:#181818;stroke-width:1.0;" x1="274.5" x2="456.5" y1="104.4648" y2="104.4648"/><text fill="#000000" font-family="sans-serif" font-size="14" lengthAdjust="spacing" textLength="170" x="279.5" y="122">timestamp: 1580924386</text></g><!--class Commit1--><g id="elem_Commit1"><rect codeLine="34" fill="#F1F1F1" height="121.9531" id="Commit1" rx="2.5" ry="2.5" style="stroke:#181818;stroke-width:0.5;" width="182" x="39.5" y="7"/><ellipse cx="94.75" cy="23" fill="#90EE90" rx="11" ry="11" style="stroke:#181818;stroke-width:1.0;"/><path d="M97.2231,29.1431 Q96.6421,29.4419 96.0029,29.5913 Q95.3638,29.7407 94.6582,29.7407 Q92.1514,29.7407 90.8315,28.0889 Q89.5117,26.437 89.5117,23.3159 Q89.5117,20.1865 90.8315,18.5347 Q92.1514,16.8828 94.6582,16.8828 Q95.3638,16.8828 96.0112,17.0322 Q96.6587,17.1816 97.2231,17.4805 L97.2231,20.2031 Q96.5923,19.6221 95.9988,19.3523 Q95.4053,19.0825 94.7744,19.0825 Q93.4297,19.0825 92.7449,20.1492 Q92.0601,21.2158 92.0601,23.3159 Q92.0601,25.4077 92.7449,26.4744 Q93.4297,27.541 94.7744,27.541 Q95.4053,27.541 95.9988,27.2712 Q96.5923,27.0015 97.2231,26.4204 Z " fill="#000000"/><text fill="#000000" font-family="sans-serif" font-size="14" lengthAdjust="spacing" textLength="63" x="115.25" y="28.291">Commit1</text><line style="stroke:#181818;stroke-width:0.5;" x1="40.5" x2="220.5" y1="39" y2="39"/><rect fill="none" height="6" style="stroke:#C82930;stroke-width:1.0;" width="6" x="47.5" y="49.7441"/><text fill="#000000" font-family="sans-serif" font-size="14" lengthAdjust="spacing" textLength="100" x="59.5" y="56.5352">sha: 2aae0a64</text><line style="stroke:#181818;stroke-width:1.0;" x1="40.5" x2="220.5" y1="63.4883" y2="63.4883"/><text fill="#000000" font-family="sans-serif" font-size="14" lengthAdjust="spacing" textLength="150" x="45.5" y="81.0234">message: first commit</text><text fill="#000000" font-family="sans-serif" font-size="14" lengthAdjust="spacing" textLength="4" x="45.5" y="97.5117"> </text><line style="stroke:#181818;stroke-width:1.0;" x1="40.5" x2="220.5" y1="104.4648" y2="104.4648"/><text fill="#000000" font-family="sans-serif" font-size="14" lengthAdjust="spacing" textLength="170" x="45.5" y="122">timestamp: 1580924369</text></g><!--class Tree5--><g id="elem_Tree5"><rect codeLine="42" fill="#F1F1F1" height="130.4414" id="Tree5" rx="2.5" ry="2.5" style="stroke:#181818;stroke-width:0.5;" width="229" x="1043" y="189"/><ellipse cx="1133.25" cy="205" fill="#FFC0CB" rx="11" ry="11" style="stroke:#181818;stroke-width:1.0;"/><path d="M1134.5918,212.25 L1132.1431,212.25 L1132.1431,201.9985 L1128.9971,201.9985 L1128.9971,199.8569 L1137.7378,199.8569 L1137.7378,201.9985 L1134.5918,201.9985 Z " fill="#000000"/><text fill="#000000" font-family="sans-serif" font-size="14" lengthAdjust="spacing" textLength="40" x="1153.75" y="210.291">Tree5</text><line style="stroke:#181818;stroke-width:0.5;" x1="1044" x2="1271" y1="221" y2="221"/><rect fill="none" height="6" style="stroke:#C82930;stroke-width:1.0;" width="6" x="1051" y="231.7441"/><text fill="#000000" font-family="sans-serif" font-size="14" lengthAdjust="spacing" textLength="97" x="1063" y="238.5352">sha: 3cfa938b</text><line style="stroke:#181818;stroke-width:1.0;" x1="1044" x2="1271" y1="245.4883" y2="245.4883"/><polygon fill="none" points="1054,254.2324,1058,258.2324,1054,262.2324,1050,258.2324" style="stroke:#B38D22;stroke-width:1.0;"/><text fill="#000000" font-family="sans-serif" font-size="14" lengthAdjust="spacing" textLength="182" x="1063" y="263.0234">first.txt 100644 6da4d3e0</text><polygon fill="none" points="1054,270.7207,1058,274.7207,1054,278.7207,1050,274.7207" style="stroke:#B38D22;stroke-width:1.0;"/><text fill="#000000" font-family="sans-serif" font-size="14" lengthAdjust="spacing" textLength="203" x="1063" y="279.5117">second.txt 100644 9649cde9</text><polygon fill="none" points="1054,287.209,1058,291.209,1054,295.209,1050,291.209" style="stroke:#B38D22;stroke-width:1.0;"/><text fill="#000000" font-family="sans-serif" font-size="14" lengthAdjust="spacing" textLength="187" x="1063" y="296">third.txt 100644 9649cde9</text><text fill="#000000" font-family="sans-serif" font-size="14" lengthAdjust="spacing" textLength="4" x="1063" y="312.4883"> </text></g><!--class Tree4--><g id="elem_Tree4"><rect codeLine="50" fill="#F1F1F1" height="130.4414" id="Tree4" rx="2.5" ry="2.5" style="stroke:#181818;stroke-width:0.5;" width="229" x="779" y="189"/><ellipse cx="869.25" cy="205" fill="#FFFF00" rx="11" ry="11" style="stroke:#181818;stroke-width:1.0;"/><path d="M870.5918,212.25 L868.1431,212.25 L868.1431,201.9985 L864.9971,201.9985 L864.9971,199.8569 L873.7378,199.8569 L873.7378,201.9985 L870.5918,201.9985 Z " fill="#000000"/><text fill="#000000" font-family="sans-serif" font-size="14" lengthAdjust="spacing" textLength="40" x="889.75" y="210.291">Tree4</text><line style="stroke:#181818;stroke-width:0.5;" x1="780" x2="1007" y1="221" y2="221"/><rect fill="none" height="6" style="stroke:#C82930;stroke-width:1.0;" width="6" x="787" y="231.7441"/><text fill="#000000" font-family="sans-serif" font-size="14" lengthAdjust="spacing" textLength="98" x="799" y="238.5352">sha: a5ed01df</text><line style="stroke:#181818;stroke-width:1.0;" x1="780" x2="1007" y1="245.4883" y2="245.4883"/><polygon fill="none" points="790,254.2324,794,258.2324,790,262.2324,786,258.2324" style="stroke:#B38D22;stroke-width:1.0;"/><text fill="#000000" font-family="sans-serif" font-size="14" lengthAdjust="spacing" textLength="184" x="799" y="263.0234">first.txt 100644 7d914532</text><polygon fill="none" points="790,270.7207,794,274.7207,790,278.7207,786,274.7207" style="stroke:#B38D22;stroke-width:1.0;"/><text fill="#000000" font-family="sans-serif" font-size="14" lengthAdjust="spacing" textLength="203" x="799" y="279.5117">second.txt 100644 9649cde9</text><polygon fill="none" points="790,287.209,794,291.209,790,295.209,786,291.209" style="stroke:#B38D22;stroke-width:1.0;"/><text fill="#000000" font-family="sans-serif" font-size="14" lengthAdjust="spacing" textLength="187" x="799" y="296">third.txt 100644 9649cde9</text><text fill="#000000" font-family="sans-serif" font-size="14" lengthAdjust="spacing" textLength="4" x="799" y="312.4883"> </text></g><!--class Tree3--><g id="elem_Tree3"><rect codeLine="58" fill="#F1F1F1" height="130.4414" id="Tree3" rx="2.5" ry="2.5" style="stroke:#181818;stroke-width:0.5;" width="229" x="515" y="189"/><ellipse cx="605.25" cy="205" fill="#FFA500" rx="11" ry="11" style="stroke:#181818;stroke-width:1.0;"/><path d="M606.5918,212.25 L604.1431,212.25 L604.1431,201.9985 L600.9971,201.9985 L600.9971,199.8569 L609.7378,199.8569 L609.7378,201.9985 L606.5918,201.9985 Z " fill="#000000"/><text fill="#000000" font-family="sans-serif" font-size="14" lengthAdjust="spacing" textLength="40" x="625.75" y="210.291">Tree3</text><line style="stroke:#181818;stroke-width:0.5;" x1="516" x2="743" y1="221" y2="221"/><rect fill="none" height="6" style="stroke:#C82930;stroke-width:1.0;" width="6" x="523" y="231.7441"/><text fill="#000000" font-family="sans-serif" font-size="14" lengthAdjust="spacing" textLength="103" x="535" y="238.5352">sha: d49117a7</text><line style="stroke:#181818;stroke-width:1.0;" x1="516" x2="743" y1="245.4883" y2="245.4883"/><polygon fill="none" points="526,254.2324,530,258.2324,526,262.2324,522,258.2324" style="stroke:#B38D22;stroke-width:1.0;"/><text fill="#000000" font-family="sans-serif" font-size="14" lengthAdjust="spacing" textLength="181" x="535" y="263.0234">first.txt 100644 9649cde9</text><polygon fill="none" points="526,270.7207,530,274.7207,526,278.7207,522,274.7207" style="stroke:#B38D22;stroke-width:1.0;"/><text fill="#000000" font-family="sans-serif" font-size="14" lengthAdjust="spacing" textLength="203" x="535" y="279.5117">second.txt 100644 9649cde9</text><polygon fill="none" points="526,287.209,530,291.209,526,295.209,522,291.209" style="stroke:#B38D22;stroke-width:1.0;"/><text fill="#000000" font-family="sans-serif" font-size="14" lengthAdjust="spacing" textLength="187" x="535" y="296">third.txt 100644 9649cde9</text><text fill="#000000" font-family="sans-serif" font-size="14" lengthAdjust="spacing" textLength="4" x="535" y="312.4883"> </text></g><!--class Tree2--><g id="elem_Tree2"><rect codeLine="66" fill="#F1F1F1" height="113.9531" id="Tree2" rx="2.5" ry="2.5" style="stroke:#181818;stroke-width:0.5;" width="229" x="251" y="197"/><ellipse cx="341.25" cy="213" fill="#ADD8E6" rx="11" ry="11" style="stroke:#181818;stroke-width:1.0;"/><path d="M342.5918,220.25 L340.1431,220.25 L340.1431,209.9985 L336.9971,209.9985 L336.9971,207.8569 L345.7378,207.8569 L345.7378,209.9985 L342.5918,209.9985 Z " fill="#000000"/><text fill="#000000" font-family="sans-serif" font-size="14" lengthAdjust="spacing" textLength="40" x="361.75" y="218.291">Tree2</text><line style="stroke:#181818;stroke-width:0.5;" x1="252" x2="479" y1="229" y2="229"/><rect fill="none" height="6" style="stroke:#C82930;stroke-width:1.0;" width="6" x="259" y="239.7441"/><text fill="#000000" font-family="sans-serif" font-size="14" lengthAdjust="spacing" textLength="104" x="271" y="246.5352">sha: 73d4372b</text><line style="stroke:#181818;stroke-width:1.0;" x1="252" x2="479" y1="253.4883" y2="253.4883"/><polygon fill="none" points="262,262.2324,266,266.2324,262,270.2324,258,266.2324" style="stroke:#B38D22;stroke-width:1.0;"/><text fill="#000000" font-family="sans-serif" font-size="14" lengthAdjust="spacing" textLength="181" x="271" y="271.0234">first.txt 100644 9649cde9</text><polygon fill="none" points="262,278.7207,266,282.7207,262,286.7207,258,282.7207" style="stroke:#B38D22;stroke-width:1.0;"/><text fill="#000000" font-family="sans-serif" font-size="14" lengthAdjust="spacing" textLength="203" x="271" y="287.5117">second.txt 100644 9649cde9</text><text fill="#000000" font-family="sans-serif" font-size="14" lengthAdjust="spacing" textLength="4" x="271" y="304"> </text></g><!--class Tree1--><g id="elem_Tree1"><rect codeLine="73" fill="#F1F1F1" height="97.4648" id="Tree1" rx="2.5" ry="2.5" style="stroke:#181818;stroke-width:0.5;" width="207" x="9" y="205.5"/><ellipse cx="88.25" cy="221.5" fill="#90EE90" rx="11" ry="11" style="stroke:#181818;stroke-width:1.0;"/><path d="M89.5918,228.75 L87.1431,228.75 L87.1431,218.4985 L83.9971,218.4985 L83.9971,216.3569 L92.7378,216.3569 L92.7378,218.4985 L89.5918,218.4985 Z " fill="#000000"/><text fill="#000000" font-family="sans-serif" font-size="14" lengthAdjust="spacing" textLength="40" x="108.75" y="226.791">Tree1</text><line style="stroke:#181818;stroke-width:0.5;" x1="10" x2="215" y1="237.5" y2="237.5"/><rect fill="none" height="6" style="stroke:#C82930;stroke-width:1.0;" width="6" x="17" y="248.2441"/><text fill="#000000" font-family="sans-serif" font-size="14" lengthAdjust="spacing" textLength="98" x="29" y="255.0352">sha: 5b9ddc8f</text><line style="stroke:#181818;stroke-width:1.0;" x1="10" x2="215" y1="261.9883" y2="261.9883"/><polygon fill="none" points="20,270.7324,24,274.7324,20,278.7324,16,274.7324" style="stroke:#B38D22;stroke-width:1.0;"/><text fill="#000000" font-family="sans-serif" font-size="14" lengthAdjust="spacing" textLength="181" x="29" y="279.5234">first.txt 100644 9649cde9</text><text fill="#000000" font-family="sans-serif" font-size="14" lengthAdjust="spacing" textLength="4" x="29" y="296.0117"> </text></g><!--class Blob1--><g id="elem_Blob1"><rect codeLine="79" fill="#F1F1F1" height="97.4648" id="Blob1" rx="2.5" ry="2.5" style="stroke:#181818;stroke-width:0.5;" width="127" x="566" y="395.5"/><ellipse cx="606.2" cy="411.5" fill="#90EE90" rx="11" ry="11" style="stroke:#181818;stroke-width:1.0;"/><path d="M604.6033,412.8721 L604.6033,416.541 L606.2303,416.541 Q607.4007,416.541 607.8697,416.1426 Q608.3387,415.7441 608.3387,414.7563 Q608.3387,413.752 607.8489,413.312 Q607.3592,412.8721 606.2303,412.8721 Z M604.6033,408.041 L604.6033,410.9214 L606.2303,410.9214 Q607.16,410.9214 607.5542,410.5894 Q607.9485,410.2573 607.9485,409.4937 Q607.9485,408.73 607.5459,408.3855 Q607.1434,408.041 606.2303,408.041 Z M602.2376,406.0903 L606.2303,406.0903 Q608.2972,406.0903 609.3389,406.8748 Q610.3807,407.6592 610.3807,409.2197 Q610.3807,410.415 609.7664,411.0874 Q609.1521,411.7598 607.9651,411.8677 Q609.3846,412.0088 610.1026,412.8223 Q610.8206,413.6357 610.8206,415.0967 Q610.8206,416.8896 609.7415,417.6948 Q608.6624,418.5 606.2303,418.5 L602.2376,418.5 Z " fill="#000000"/><text fill="#000000" font-family="sans-serif" font-size="14" lengthAdjust="spacing" textLength="39" x="625.8" y="416.791">Blob1</text><line style="stroke:#181818;stroke-width:0.5;" x1="567" x2="692" y1="427.5" y2="427.5"/><rect fill="none" height="6" style="stroke:#C82930;stroke-width:1.0;" width="6" x="574" y="438.2441"/><text fill="#000000" font-family="sans-serif" font-size="14" lengthAdjust="spacing" textLength="101" x="586" y="445.0352">sha: 9649cde9</text><line style="stroke:#181818;stroke-width:1.0;" x1="567" x2="692" y1="451.9883" y2="451.9883"/><text fill="#000000" font-family="sans-serif" font-size="14" lengthAdjust="spacing" textLength="59" x="572" y="469.5234">First line</text><text fill="#000000" font-family="sans-serif" font-size="14" lengthAdjust="spacing" textLength="4" x="572" y="486.0117"> </text></g><!--class Blob3--><g id="elem_Blob3"><rect codeLine="85" fill="#F1F1F1" height="130.4414" id="Blob3" rx="2.5" ry="2.5" style="stroke:#181818;stroke-width:0.5;" width="128" x="1093.5" y="379"/><ellipse cx="1134.15" cy="395" fill="#FFC0CB" rx="11" ry="11" style="stroke:#181818;stroke-width:1.0;"/><path d="M1132.5533,396.3721 L1132.5533,400.041 L1134.1803,400.041 Q1135.3507,400.041 1135.8197,399.6426 Q1136.2887,399.2441 1136.2887,398.2563 Q1136.2887,397.252 1135.7989,396.812 Q1135.3092,396.3721 1134.1803,396.3721 Z M1132.5533,391.541 L1132.5533,394.4214 L1134.1803,394.4214 Q1135.11,394.4214 1135.5042,394.0894 Q1135.8985,393.7573 1135.8985,392.9937 Q1135.8985,392.23 1135.4959,391.8855 Q1135.0934,391.541 1134.1803,391.541 Z M1130.1876,389.5903 L1134.1803,389.5903 Q1136.2472,389.5903 1137.2889,390.3748 Q1138.3307,391.1592 1138.3307,392.7197 Q1138.3307,393.915 1137.7164,394.5874 Q1137.1021,395.2598 1135.9151,395.3677 Q1137.3346,395.5088 1138.0526,396.3223 Q1138.7706,397.1357 1138.7706,398.5967 Q1138.7706,400.3896 1137.6915,401.1948 Q1136.6124,402 1134.1803,402 L1130.1876,402 Z " fill="#000000"/><text fill="#000000" font-family="sans-serif" font-size="14" lengthAdjust="spacing" textLength="39" x="1153.85" y="400.291">Blob3</text><line style="stroke:#181818;stroke-width:0.5;" x1="1094.5" x2="1220.5" y1="411" y2="411"/><rect fill="none" height="6" style="stroke:#C82930;stroke-width:1.0;" width="6" x="1101.5" y="421.7441"/><text fill="#000000" font-family="sans-serif" font-size="14" lengthAdjust="spacing" textLength="102" x="1113.5" y="428.5352">sha: 6da4d3e0</text><line style="stroke:#181818;stroke-width:1.0;" x1="1094.5" x2="1220.5" y1="435.4883" y2="435.4883"/><text fill="#000000" font-family="sans-serif" font-size="14" lengthAdjust="spacing" textLength="59" x="1099.5" y="453.0234">First line</text><text fill="#000000" font-family="sans-serif" font-size="14" lengthAdjust="spacing" textLength="79" x="1099.5" y="469.5117">Second line</text><text fill="#000000" font-family="sans-serif" font-size="14" lengthAdjust="spacing" textLength="66" x="1099.5" y="486">Third line</text><text fill="#000000" font-family="sans-serif" font-size="14" lengthAdjust="spacing" textLength="4" x="1099.5" y="502.4883"> </text></g><!--class Blob2--><g id="elem_Blob2"><rect codeLine="93" fill="#F1F1F1" height="113.9531" id="Blob2" rx="2.5" ry="2.5" style="stroke:#181818;stroke-width:0.5;" width="130" x="828.5" y="387"/><ellipse cx="870.05" cy="403" fill="#FFFF00" rx="11" ry="11" style="stroke:#181818;stroke-width:1.0;"/><path d="M868.4533,404.3721 L868.4533,408.041 L870.0803,408.041 Q871.2507,408.041 871.7197,407.6426 Q872.1887,407.2441 872.1887,406.2563 Q872.1887,405.252 871.6989,404.812 Q871.2092,404.3721 870.0803,404.3721 Z M868.4533,399.541 L868.4533,402.4214 L870.0803,402.4214 Q871.01,402.4214 871.4042,402.0894 Q871.7985,401.7573 871.7985,400.9937 Q871.7985,400.23 871.3959,399.8855 Q870.9934,399.541 870.0803,399.541 Z M866.0876,397.5903 L870.0803,397.5903 Q872.1472,397.5903 873.1889,398.3748 Q874.2307,399.1592 874.2307,400.7197 Q874.2307,401.915 873.6164,402.5874 Q873.0021,403.2598 871.8151,403.3677 Q873.2346,403.5088 873.9526,404.3223 Q874.6706,405.1357 874.6706,406.5967 Q874.6706,408.3896 873.5915,409.1948 Q872.5124,410 870.0803,410 L866.0876,410 Z " fill="#000000"/><text fill="#000000" font-family="sans-serif" font-size="14" lengthAdjust="spacing" textLength="39" x="889.95" y="408.291">Blob2</text><line style="stroke:#181818;stroke-width:0.5;" x1="829.5" x2="957.5" y1="419" y2="419"/><rect fill="none" height="6" style="stroke:#C82930;stroke-width:1.0;" width="6" x="836.5" y="429.7441"/><text fill="#000000" font-family="sans-serif" font-size="14" lengthAdjust="spacing" textLength="104" x="848.5" y="436.5352">sha: 7d914532</text><line style="stroke:#181818;stroke-width:1.0;" x1="829.5" x2="957.5" y1="443.4883" y2="443.4883"/><text fill="#000000" font-family="sans-serif" font-size="14" lengthAdjust="spacing" textLength="59" x="834.5" y="461.0234">First line</text><text fill="#000000" font-family="sans-serif" font-size="14" lengthAdjust="spacing" textLength="79" x="834.5" y="477.5117">Second line</text><text fill="#000000" font-family="sans-serif" font-size="14" lengthAdjust="spacing" textLength="4" x="834.5" y="494"> </text></g><!--link Commit5 to Tree5--><g id="link_Commit5_Tree5"><path codeLine="100" d="M1141.36,129.25 C1143.57,146.24 1146.01,164.87 1148.29,182.41 " fill="none" id="Commit5-to-Tree5" style="stroke:#181818;stroke-width:1.0;"/><polygon fill="#181818" points="1148.93,187.31,1151.7393,177.8703,1148.287,182.3515,1143.8058,178.8992,1148.93,187.31" style="stroke:#181818;stroke-width:1.0;"/></g><!--link Commit4 to Tree4--><g id="link_Commit4_Tree4"><path codeLine="101" d="M893.5,129.25 C893.5,146.24 893.5,164.87 893.5,182.41 " fill="none" id="Commit4-to-Tree4" style="stroke:#181818;stroke-width:1.0;"/><polygon fill="#181818" points="893.5,187.3,897.5,178.3,893.5,182.3,889.5,178.3,893.5,187.3" style="stroke:#181818;stroke-width:1.0;"/></g><!--link Commit3 to Tree3--><g id="link_Commit3_Tree3"><path codeLine="102" d="M629.5,129.25 C629.5,146.24 629.5,164.87 629.5,182.41 " fill="none" id="Commit3-to-Tree3" style="stroke:#181818;stroke-width:1.0;"/><polygon fill="#181818" points="629.5,187.3,633.5,178.3,629.5,182.3,625.5,178.3,629.5,187.3" style="stroke:#181818;stroke-width:1.0;"/></g><!--link Commit2 to Tree2--><g id="link_Commit2_Tree2"><path codeLine="103" d="M365.5,129.25 C365.5,148.83 365.5,170.59 365.5,190.34 " fill="none" id="Commit2-to-Tree2" style="stroke:#181818;stroke-width:1.0;"/><polygon fill="#181818" points="365.5,195.16,369.5,186.16,365.5,190.16,361.5,186.16,365.5,195.16" style="stroke:#181818;stroke-width:1.0;"/></g><!--link Commit1 to Tree1--><g id="link_Commit1_Tree1"><path codeLine="104" d="M124.61,129.25 C122.41,151.67 119.94,176.95 117.8,198.79 " fill="none" id="Commit1-to-Tree1" style="stroke:#181818;stroke-width:1.0;"/><polygon fill="#181818" points="117.33,203.65,122.1838,195.0803,117.8148,198.6736,114.2215,194.3046,117.33,203.65" style="stroke:#181818;stroke-width:1.0;"/></g><!--link Tree5 to Blob3--><g id="link_Tree5_Blob3"><path codeLine="105" d="M1157.5,319.44 C1157.5,336.48 1157.5,354.96 1157.5,372.31 " fill="none" id="Tree5-to-Blob3" style="stroke:#181818;stroke-width:1.0;"/><polygon fill="#181818" points="1157.5,377.13,1161.5,368.13,1157.5,372.13,1153.5,368.13,1157.5,377.13" style="stroke:#181818;stroke-width:1.0;"/></g><!--link Tree5 to Blob1--><g id="link_Tree5_Blob1"><path codeLine="106" d="M1042.7,304.83 C1031.22,309.91 1019.69,314.76 1008.5,319 C916.14,354.02 888.7,349.27 794.5,379 C762.91,388.97 728.56,400.79 699.28,411.54 " fill="none" id="Tree5-to-Blob1" style="stroke:#181818;stroke-width:1.0;"/><polygon fill="#181818" points="694.92,413.15,704.7482,413.7879,699.611,411.4195,701.9794,406.2823,694.92,413.15" style="stroke:#181818;stroke-width:1.0;"/></g><!--link Tree5 to Blob1--><g id="link_Tree5_Blob1"><path codeLine="107" d="M1042.69,319.31 C950.98,353.99 923.42,349.35 829.5,379 C786.3,392.64 737.94,409.73 699.28,422.82 " fill="none" id="Tree5-to-Blob1-1" style="stroke:#181818;stroke-width:1.0;"/><polygon fill="#181818" points="694.59,424.4,704.3973,425.3043,699.3262,422.7974,701.8331,417.7264,694.59,424.4" style="stroke:#181818;stroke-width:1.0;"/></g><!--link Tree4 to Blob2--><g id="link_Tree4_Blob2"><path codeLine="108" d="M893.5,319.44 C893.5,339.1 893.5,360.68 893.5,380.23 " fill="none" id="Tree4-to-Blob2" style="stroke:#181818;stroke-width:1.0;"/><polygon fill="#181818" points="893.5,384.99,897.5,375.99,893.5,379.99,889.5,375.99,893.5,384.99" style="stroke:#181818;stroke-width:1.0;"/></g><!--link Tree4 to Blob1--><g id="link_Tree4_Blob1"><path codeLine="109" d="M790.84,319.44 C756.88,342.95 720.22,369.21 690.37,391.45 " fill="none" id="Tree4-to-Blob1" style="stroke:#181818;stroke-width:1.0;"/><polygon fill="#181818" points="686.47,394.37,696.075,392.192,690.4769,391.3792,691.2897,385.781,686.47,394.37" style="stroke:#181818;stroke-width:1.0;"/></g><!--link Tree4 to Blob1--><g id="link_Tree4_Blob1"><path codeLine="110" d="M815.9,319.44 C778.66,346.79 734.52,377.86 698.44,402.01 " fill="none" id="Tree4-to-Blob1-1" style="stroke:#181818;stroke-width:1.0;"/><polygon fill="#181818" points="694.44,404.68,704.1473,403.0159,698.6003,401.9065,699.7097,396.3595,694.44,404.68" style="stroke:#181818;stroke-width:1.0;"/></g><!--link Tree3 to Blob1--><g id="link_Tree3_Blob1"><path codeLine="111" d="M604.44,319.44 C602.56,342.07 602.91,367.26 605.48,388.95 " fill="none" id="Tree3-to-Blob1" style="stroke:#181818;stroke-width:1.0;"/><polygon fill="#181818" points="606.11,393.77,608.9193,384.3303,605.467,388.8115,600.9858,385.3592,606.11,393.77" style="stroke:#181818;stroke-width:1.0;"/></g><!--link Tree3 to Blob1--><g id="link_Tree3_Blob1"><path codeLine="112" d="M629.5,319.44 C629.5,342.07 629.5,367.26 629.5,388.95 " fill="none" id="Tree3-to-Blob1-1" style="stroke:#181818;stroke-width:1.0;"/><polygon fill="#181818" points="629.5,393.76,633.5,384.76,629.5,388.76,625.5,384.76,629.5,393.76" style="stroke:#181818;stroke-width:1.0;"/></g><!--link Tree3 to Blob1--><g id="link_Tree3_Blob1"><path codeLine="113" d="M654.56,319.44 C656.44,342.07 656.09,367.26 653.52,388.95 " fill="none" id="Tree3-to-Blob1-2" style="stroke:#181818;stroke-width:1.0;"/><polygon fill="#181818" points="652.89,393.77,658.0142,385.3592,653.533,388.8115,650.0807,384.3303,652.89,393.77" style="stroke:#181818;stroke-width:1.0;"/></g><!--link Tree2 to Blob1--><g id="link_Tree2_Blob1"><path codeLine="114" d="M432.91,311.41 C472.06,340.39 521.12,375.08 560.54,401.57 " fill="none" id="Tree2-to-Blob1" style="stroke:#181818;stroke-width:1.0;"/><polygon fill="#181818" points="564.53,404.24,559.2801,395.907,560.3763,401.4566,554.8267,402.5528,564.53,404.24" style="stroke:#181818;stroke-width:1.0;"/></g><!--link Tree2 to Blob1--><g id="link_Tree2_Blob1"><path codeLine="115" d="M457.2,311.41 C494.4,336.87 536.24,366.74 569.47,391.58 " fill="none" id="Tree2-to-Blob1-1" style="stroke:#181818;stroke-width:1.0;"/><polygon fill="#181818" points="573.1,394.3,568.3,385.7,569.1,391.3,563.5,392.1,573.1,394.3" style="stroke:#181818;stroke-width:1.0;"/></g><!--link Tree1 to Blob1--><g id="link_Tree1_Blob1"><path codeLine="116" d="M198.49,302.93 C210.1,308.68 221.98,314.2 233.5,319 C344.64,365.34 479.47,404.03 559.67,425.3 " fill="none" id="Tree1-to-Blob1" style="stroke:#181818;stroke-width:1.0;"/><polygon fill="#181818" points="564.36,426.54,556.6707,420.3857,559.5239,425.2703,554.6393,428.1235,564.36,426.54" style="stroke:#181818;stroke-width:1.0;"/></g><!--reverse link Commit3 to Commit4--><g id="link_Commit3_Commit4"><path codeLine="117" d="M727.12,68 C752.1,68 777.09,68 802.07,68 " fill="none" id="Commit3-backto-Commit4" style="stroke:#181818;stroke-width:1.0;"/><polygon fill="#181818" points="722.28,68,731.28,72,727.28,68,731.28,64,722.28,68" style="stroke:#181818;stroke-width:1.0;"/></g><!--reverse link Commit2 to Commit3--><g id="link_Commit2_Commit3"><path codeLine="118" d="M464.08,68 C488.82,68 513.55,68 538.28,68 " fill="none" id="Commit2-backto-Commit3" style="stroke:#181818;stroke-width:1.0;"/><polygon fill="#181818" points="459.31,68,468.31,72,464.31,68,468.31,64,459.31,68" style="stroke:#181818;stroke-width:1.0;"/></g><!--reverse link Commit4 to Commit5--><g id="link_Commit4_Commit5"><path codeLine="119" d="M991.16,68 C1008.13,68 1025.11,68 1042.08,68 " fill="none" id="Commit4-backto-Commit5" style="stroke:#181818;stroke-width:1.0;"/><polygon fill="#181818" points="986.42,68,995.42,72,991.42,68,995.42,64,986.42,68" style="stroke:#181818;stroke-width:1.0;"/></g><!--reverse link Commit1 to Commit2--><g id="link_Commit1_Commit2"><path codeLine="120" d="M228.26,68 C243.23,68 258.21,68 273.19,68 " fill="none" id="Commit1-backto-Commit2" style="stroke:#181818;stroke-width:1.0;"/><polygon fill="#181818" points="223.35,68,232.35,72,228.35,68,232.35,64,223.35,68" style="stroke:#181818;stroke-width:1.0;"/></g><!--SRC=[hPJTRfmm48Nl_HIMUfD8fR8zviUhQ2yIgI_GVG5ZcrqK5Y9mr4PLtxqihi70Rb3Kt34pylaEunchIdOTVchEvzB6-E7XxkdhIra_t-_t-3UAkfFSOK6rDb81YY9qDbqdZsQ7YxAm9wo6S-XIiMLVi_ByiiCqpeXWd3EA_Y0L0BW3l9cgQdw62C9L1X2REQ9vRJSP11OCS8ocbVNHX0mZ51H9GcOCUofR_Ju2HBn0C8UeokF9vjNhZ9Ba85F1qXcbCwgfjp1Pii3G07DiZQb33fFI49dmnQMqdTt096B477hHuSuFgpi7LKW1MNuH-U9qlzbV5bD24ivneYNNO4XVS_yM5aN2XT96zCMXlLThCnFScLZFXOoD9bGNDsoaMb0U0_ia6-1ih4T7Sq5fAjCRDWBIPzXWpiRLyKf1SqXP_bzEPZGQq5PJ5kT2QvKLMxXHyR5gya7nyORYUAHN_3wCQrNMPYu0Jc0va-FGpO_-SCirV1-6TLuhCgUu7h1nWcvhzaB-UOoYlLiQvDypd-78lpu-0yW_5Zx3aDzhdw78hU0b7dvy4TEhCHzZjeZfrHW-6BEDc0Rns8UgJ_rhmTIAAScc7av9FhLeIbBq5m00]--></g></svg>