<?xml version="1.0" encoding="UTF-8" standalone="no"?><svg xmlns="http://www.w3.org/2000/svg" xmlns:xlink="http://www.w3.org/1999/xlink" contentStyleType="text/css" height="450px" preserveAspectRatio="none" style="width:223px;height:450px;background:#FFFFFF;" version="1.1" viewBox="0 0 223 450" width="223px" zoomAndPan="magnify"><defs/><g><!--class Commit1--><g id="elem_Commit1"><rect codeLine="2" fill="#F1F1F1" height="121.9531" id="Commit1" rx="2.5" ry="2.5" style="stroke:#181818;stroke-width:0.5;" width="182" x="21.5" y="7"/><ellipse cx="76.75" cy="23" fill="#90EE90" rx="11" ry="11" style="stroke:#181818;stroke-width:1.0;"/><path d="M79.2231,29.1431 Q78.6421,29.4419 78.0029,29.5913 Q77.3638,29.7407 76.6582,29.7407 Q74.1514,29.7407 72.8315,28.0889 Q71.5117,26.437 71.5117,23.3159 Q71.5117,20.1865 72.8315,18.5347 Q74.1514,16.8828 76.6582,16.8828 Q77.3638,16.8828 78.0112,17.0322 Q78.6587,17.1816 79.2231,17.4805 L79.2231,20.2031 Q78.5923,19.6221 77.9988,19.3523 Q77.4053,19.0825 76.7744,19.0825 Q75.4297,19.0825 74.7449,20.1492 Q74.0601,21.2158 74.0601,23.3159 Q74.0601,25.4077 74.7449,26.4744 Q75.4297,27.541 76.7744,27.541 Q77.4053,27.541 77.9988,27.2712 Q78.5923,27.0015 79.2231,26.4204 Z " fill="#000000"/><text fill="#000000" font-family="sans-serif" font-size="14" lengthAdjust="spacing" textLength="63" x="97.25" y="28.291">Commit1</text><line style="stroke:#181818;stroke-width:0.5;" x1="22.5" x2="202.5" y1="39" y2="39"/><rect fill="none" height="6" style="stroke:#C82930;stroke-width:1.0;" width="6" x="29.5" y="49.7441"/><text fill="#000000" font-family="sans-serif" font-size="14" lengthAdjust="spacing" textLength="100" x="41.5" y="56.5352">sha: 2aae0a64</text><line style="stroke:#181818;stroke-width:1.0;" x1="22.5" x2="202.5" y1="63.4883" y2="63.4883"/><text fill="#000000" font-family="sans-serif" font-size="14" lengthAdjust="spacing" textLength="150" x="27.5" y="81.0234">message: first commit</text><text fill="#000000" font-family="sans-serif" font-size="14" lengthAdjust="spacing" textLength="4" x="27.5" y="97.5117"> </text><line style="stroke:#181818;stroke-width:1.0;" x1="22.5" x2="202.5" y1="104.4648" y2="104.4648"/><text fill="#000000" font-family="sans-serif" font-size="14" lengthAdjust="spacing" textLength="170" x="27.5" y="122">timestamp: 1580904123</text></g><!--class Tree1--><g id="elem_Tree1"><rect codeLine="10" fill="#F1F1F1" height="97.4648" id="Tree1" rx="2.5" ry="2.5" style="stroke:#181818;stroke-width:0.5;" width="207" x="9" y="189"/><ellipse cx="88.25" cy="205" fill="#90EE90" rx="11" ry="11" style="stroke:#181818;stroke-width:1.0;"/><path d="M89.5918,212.25 L87.1431,212.25 L87.1431,201.9985 L83.9971,201.9985 L83.9971,199.8569 L92.7378,199.8569 L92.7378,201.9985 L89.5918,201.9985 Z " fill="#000000"/><text fill="#000000" font-family="sans-serif" font-size="14" lengthAdjust="spacing" textLength="40" x="108.75" y="210.291">Tree1</text><line style="stroke:#181818;stroke-width:0.5;" x1="10" x2="215" y1="221" y2="221"/><rect fill="none" height="6" style="stroke:#C82930;stroke-width:1.0;" width="6" x="17" y="231.7441"/><text fill="#000000" font-family="sans-serif" font-size="14" lengthAdjust="spacing" textLength="98" x="29" y="238.5352">sha: 5b9ddc8f</text><line style="stroke:#181818;stroke-width:1.0;" x1="10" x2="215" y1="245.4883" y2="245.4883"/><polygon fill="none" points="20,254.2324,24,258.2324,20,262.2324,16,258.2324" style="stroke:#B38D22;stroke-width:1.0;"/><text fill="#000000" font-family="sans-serif" font-size="14" lengthAdjust="spacing" textLength="181" x="29" y="263.0234">first.txt 100644 9649cde9</text><text fill="#000000" font-family="sans-serif" font-size="14" lengthAdjust="spacing" textLength="4" x="29" y="279.5117"> </text></g><!--class Blob1--><g id="elem_Blob1"><rect codeLine="16" fill="#F1F1F1" height="97.4648" id="Blob1" rx="2.5" ry="2.5" style="stroke:#181818;stroke-width:0.5;" width="127" x="49" y="346"/><ellipse cx="89.2" cy="362" fill="#90EE90" rx="11" ry="11" style="stroke:#181818;stroke-width:1.0;"/><path d="M87.6033,363.3721 L87.6033,367.041 L89.2303,367.041 Q90.4007,367.041 90.8697,366.6426 Q91.3387,366.2441 91.3387,365.2563 Q91.3387,364.252 90.8489,363.812 Q90.3592,363.3721 89.2303,363.3721 Z M87.6033,358.541 L87.6033,361.4214 L89.2303,361.4214 Q90.16,361.4214 90.5542,361.0894 Q90.9485,360.7573 90.9485,359.9937 Q90.9485,359.23 90.5459,358.8855 Q90.1434,358.541 89.2303,358.541 Z M85.2376,356.5903 L89.2303,356.5903 Q91.2972,356.5903 92.3389,357.3748 Q93.3807,358.1592 93.3807,359.7197 Q93.3807,360.915 92.7664,361.5874 Q92.1521,362.2598 90.9651,362.3677 Q92.3846,362.5088 93.1026,363.3223 Q93.8206,364.1357 93.8206,365.5967 Q93.8206,367.3896 92.7415,368.1948 Q91.6624,369 89.2303,369 L85.2376,369 Z " fill="#000000"/><text fill="#000000" font-family="sans-serif" font-size="14" lengthAdjust="spacing" textLength="39" x="108.8" y="367.291">Blob1</text><line style="stroke:#181818;stroke-width:0.5;" x1="50" x2="175" y1="378" y2="378"/><rect fill="none" height="6" style="stroke:#C82930;stroke-width:1.0;" width="6" x="57" y="388.7441"/><text fill="#000000" font-family="sans-serif" font-size="14" lengthAdjust="spacing" textLength="101" x="69" y="395.5352">sha: 9649cde9</text><line style="stroke:#181818;stroke-width:1.0;" x1="50" x2="175" y1="402.4883" y2="402.4883"/><text fill="#000000" font-family="sans-serif" font-size="14" lengthAdjust="spacing" textLength="59" x="55" y="420.0234">First line</text><text fill="#000000" font-family="sans-serif" font-size="14" lengthAdjust="spacing" textLength="4" x="55" y="436.5117"> </text></g><!--link Commit1 to Tree1--><g id="link_Commit1_Tree1"><path codeLine="22" d="M112.5,129.47 C112.5,146.83 112.5,165.64 112.5,182.58 " fill="none" id="Commit1-to-Tree1" style="stroke:#181818;stroke-width:1.0;"/><polygon fill="#181818" points="112.5,187.21,116.5,178.21,112.5,182.21,108.5,178.21,112.5,187.21" style="stroke:#181818;stroke-width:1.0;"/></g><!--link Tree1 to Blob1--><g id="link_Tree1_Blob1"><path codeLine="23" d="M112.5,286.27 C112.5,303.06 112.5,322.06 112.5,339.34 " fill="none" id="Tree1-to-Blob1" style="stroke:#181818;stroke-width:1.0;"/><polygon fill="#181818" points="112.5,344.11,116.5,335.11,112.5,339.11,108.5,335.11,112.5,344.11" style="stroke:#181818;stroke-width:1.0;"/></g><!--SRC=[TSzD2eCm40NW_PnYe9iMcfBOA4R4XK9Fu0LYJ3NWJp5P54hlNXEfEvV3CDzxemPfBLRpE1h7CC_FrNKmNU-wHUlfKXJu0M9xcM4afQOouK08ZDfQsUaCdsQn3bMu1hznPjqvERuoP75A1UKikiCNL8YfLpI4r0SXSIFQLgLFJvqs_URU3Xcb2USe4YvKgmNiOZdCJH3B0t4_MSL7Q3kOINlW_pCXnLOCjdf-3Ypy0000]--></g></svg>