<?xml version="1.0" encoding="UTF-8" standalone="no"?><svg xmlns="http://www.w3.org/2000/svg" xmlns:xlink="http://www.w3.org/1999/xlink" contentStyleType="text/css" height="567px" preserveAspectRatio="none" style="width:748px;height:567px;background:#FFFFFF;" version="1.1" viewBox="0 0 748 567" width="748px" zoomAndPan="magnify"><defs/><g><!--class Commit3--><g id="elem_Commit3"><rect codeLine="2" fill="#F1F1F1" height="121.9531" id="Commit3" rx="2.5" ry="2.5" style="stroke:#181818;stroke-width:0.5;" width="183" x="516.5" y="91"/><ellipse cx="572.25" cy="107" fill="#FFA500" rx="11" ry="11" style="stroke:#181818;stroke-width:1.0;"/><path d="M574.7231,113.1431 Q574.1421,113.4419 573.5029,113.5913 Q572.8638,113.7407 572.1582,113.7407 Q569.6514,113.7407 568.3315,112.0889 Q567.0117,110.437 567.0117,107.3159 Q567.0117,104.1865 568.3315,102.5347 Q569.6514,100.8828 572.1582,100.8828 Q572.8638,100.8828 573.5112,101.0322 Q574.1587,101.1816 574.7231,101.4805 L574.7231,104.2031 Q574.0923,103.6221 573.4988,103.3523 Q572.9053,103.0825 572.2744,103.0825 Q570.9297,103.0825 570.2449,104.1492 Q569.5601,105.2158 569.5601,107.3159 Q569.5601,109.4077 570.2449,110.4744 Q570.9297,111.541 572.2744,111.541 Q572.9053,111.541 573.4988,111.2712 Q574.0923,111.0015 574.7231,110.4204 Z " fill="#000000"/><text fill="#000000" font-family="sans-serif" font-size="14" lengthAdjust="spacing" textLength="63" x="592.75" y="112.291">Commit3</text><line style="stroke:#181818;stroke-width:0.5;" x1="517.5" x2="698.5" y1="123" y2="123"/><rect fill="none" height="6" style="stroke:#C82930;stroke-width:1.0;" width="6" x="524.5" y="133.7441"/><text fill="#000000" font-family="sans-serif" font-size="14" lengthAdjust="spacing" textLength="99" x="536.5" y="140.5352">sha: 849d8fba</text><line style="stroke:#181818;stroke-width:1.0;" x1="517.5" x2="698.5" y1="147.4883" y2="147.4883"/><text fill="#000000" font-family="sans-serif" font-size="14" lengthAdjust="spacing" textLength="171" x="522.5" y="165.0234">message: added third.txt</text><text fill="#000000" font-family="sans-serif" font-size="14" lengthAdjust="spacing" textLength="4" x="522.5" y="181.5117"> </text><line style="stroke:#181818;stroke-width:1.0;" x1="517.5" x2="698.5" y1="188.4648" y2="188.4648"/><text fill="#000000" font-family="sans-serif" font-size="14" lengthAdjust="spacing" textLength="170" x="522.5" y="206">timestamp: 1580813902</text></g><!--class Commit2--><g id="elem_Commit2"><rect codeLine="10" fill="#F1F1F1" height="121.9531" id="Commit2" rx="2.5" ry="2.5" style="stroke:#181818;stroke-width:0.5;" width="192" x="270" y="91"/><ellipse cx="330.25" cy="107" fill="#ADD8E6" rx="11" ry="11" style="stroke:#181818;stroke-width:1.0;"/><path d="M332.7231,113.1431 Q332.1421,113.4419 331.5029,113.5913 Q330.8638,113.7407 330.1582,113.7407 Q327.6514,113.7407 326.3315,112.0889 Q325.0117,110.437 325.0117,107.3159 Q325.0117,104.1865 326.3315,102.5347 Q327.6514,100.8828 330.1582,100.8828 Q330.8638,100.8828 331.5112,101.0322 Q332.1587,101.1816 332.7231,101.4805 L332.7231,104.2031 Q332.0923,103.6221 331.4988,103.3523 Q330.9053,103.0825 330.2744,103.0825 Q328.9297,103.0825 328.2449,104.1492 Q327.5601,105.2158 327.5601,107.3159 Q327.5601,109.4077 328.2449,110.4744 Q328.9297,111.541 330.2744,111.541 Q330.9053,111.541 331.4988,111.2712 Q332.0923,111.0015 332.7231,110.4204 Z " fill="#000000"/><text fill="#000000" font-family="sans-serif" font-size="14" lengthAdjust="spacing" textLength="63" x="350.75" y="112.291">Commit2</text><line style="stroke:#181818;stroke-width:0.5;" x1="271" x2="461" y1="123" y2="123"/><rect fill="none" height="6" style="stroke:#C82930;stroke-width:1.0;" width="6" x="278" y="133.7441"/><text fill="#000000" font-family="sans-serif" font-size="14" lengthAdjust="spacing" textLength="104" x="290" y="140.5352">sha: 993bb5b5</text><line style="stroke:#181818;stroke-width:1.0;" x1="271" x2="461" y1="147.4883" y2="147.4883"/><text fill="#000000" font-family="sans-serif" font-size="14" lengthAdjust="spacing" textLength="180" x="276" y="165.0234">message: added seond.txt</text><text fill="#000000" font-family="sans-serif" font-size="14" lengthAdjust="spacing" textLength="4" x="276" y="181.5117"> </text><line style="stroke:#181818;stroke-width:1.0;" x1="271" x2="461" y1="188.4648" y2="188.4648"/><text fill="#000000" font-family="sans-serif" font-size="14" lengthAdjust="spacing" textLength="170" x="276" y="206">timestamp: 1580813162</text></g><!--class Commit1--><g id="elem_Commit1"><rect codeLine="18" fill="#F1F1F1" height="121.9531" id="Commit1" rx="2.5" ry="2.5" style="stroke:#181818;stroke-width:0.5;" width="182" x="38" y="91"/><ellipse cx="93.25" cy="107" fill="#90EE90" rx="11" ry="11" style="stroke:#181818;stroke-width:1.0;"/><path d="M95.7231,113.1431 Q95.1421,113.4419 94.5029,113.5913 Q93.8638,113.7407 93.1582,113.7407 Q90.6514,113.7407 89.3315,112.0889 Q88.0117,110.437 88.0117,107.3159 Q88.0117,104.1865 89.3315,102.5347 Q90.6514,100.8828 93.1582,100.8828 Q93.8638,100.8828 94.5112,101.0322 Q95.1587,101.1816 95.7231,101.4805 L95.7231,104.2031 Q95.0923,103.6221 94.4988,103.3523 Q93.9053,103.0825 93.2744,103.0825 Q91.9297,103.0825 91.2449,104.1492 Q90.5601,105.2158 90.5601,107.3159 Q90.5601,109.4077 91.2449,110.4744 Q91.9297,111.541 93.2744,111.541 Q93.9053,111.541 94.4988,111.2712 Q95.0923,111.0015 95.7231,110.4204 Z " fill="#000000"/><text fill="#000000" font-family="sans-serif" font-size="14" lengthAdjust="spacing" textLength="63" x="113.75" y="112.291">Commit1</text><line style="stroke:#181818;stroke-width:0.5;" x1="39" x2="219" y1="123" y2="123"/><rect fill="none" height="6" style="stroke:#C82930;stroke-width:1.0;" width="6" x="46" y="133.7441"/><text fill="#000000" font-family="sans-serif" font-size="14" lengthAdjust="spacing" textLength="100" x="58" y="140.5352">sha: 0d38698f</text><line style="stroke:#181818;stroke-width:1.0;" x1="39" x2="219" y1="147.4883" y2="147.4883"/><text fill="#000000" font-family="sans-serif" font-size="14" lengthAdjust="spacing" textLength="165" x="44" y="165.0234">message: added first.txt</text><text fill="#000000" font-family="sans-serif" font-size="14" lengthAdjust="spacing" textLength="4" x="44" y="181.5117"> </text><line style="stroke:#181818;stroke-width:1.0;" x1="39" x2="219" y1="188.4648" y2="188.4648"/><text fill="#000000" font-family="sans-serif" font-size="14" lengthAdjust="spacing" textLength="170" x="44" y="206">timestamp: 1580812884</text></g><!--class Tree3--><g id="elem_Tree3"><rect codeLine="26" fill="#F1F1F1" height="130.4414" id="Tree3" rx="2.5" ry="2.5" style="stroke:#181818;stroke-width:0.5;" width="227" x="514.5" y="273"/><ellipse cx="603.75" cy="289" fill="#FFA500" rx="11" ry="11" style="stroke:#181818;stroke-width:1.0;"/><path d="M605.0918,296.25 L602.6431,296.25 L602.6431,285.9985 L599.4971,285.9985 L599.4971,283.8569 L608.2378,283.8569 L608.2378,285.9985 L605.0918,285.9985 Z " fill="#000000"/><text fill="#000000" font-family="sans-serif" font-size="14" lengthAdjust="spacing" textLength="40" x="624.25" y="294.291">Tree3</text><line style="stroke:#181818;stroke-width:0.5;" x1="515.5" x2="740.5" y1="305" y2="305"/><rect fill="none" height="6" style="stroke:#C82930;stroke-width:1.0;" width="6" x="522.5" y="315.7441"/><text fill="#000000" font-family="sans-serif" font-size="14" lengthAdjust="spacing" textLength="100" x="534.5" y="322.5352">sha: 34f58182</text><line style="stroke:#181818;stroke-width:1.0;" x1="515.5" x2="740.5" y1="329.4883" y2="329.4883"/><polygon fill="none" points="525.5,338.2324,529.5,342.2324,525.5,346.2324,521.5,342.2324" style="stroke:#B38D22;stroke-width:1.0;"/><text fill="#000000" font-family="sans-serif" font-size="14" lengthAdjust="spacing" textLength="182" x="534.5" y="347.0234">first.txt 100644 795ddc40</text><polygon fill="none" points="525.5,354.7207,529.5,358.7207,525.5,362.7207,521.5,358.7207" style="stroke:#B38D22;stroke-width:1.0;"/><text fill="#000000" font-family="sans-serif" font-size="14" lengthAdjust="spacing" textLength="201" x="534.5" y="363.5117">seconf.txt 100644 0ba93614</text><polygon fill="none" points="525.5,371.209,529.5,375.209,525.5,379.209,521.5,375.209" style="stroke:#B38D22;stroke-width:1.0;"/><text fill="#000000" font-family="sans-serif" font-size="14" lengthAdjust="spacing" textLength="188" x="534.5" y="380">third.txt 100644 da13a9b8</text><text fill="#000000" font-family="sans-serif" font-size="14" lengthAdjust="spacing" textLength="4" x="534.5" y="396.4883"> </text></g><!--class Tree2--><g id="elem_Tree2"><rect codeLine="34" fill="#F1F1F1" height="113.9531" id="Tree2" rx="2.5" ry="2.5" style="stroke:#181818;stroke-width:0.5;" width="227" x="252.5" y="281"/><ellipse cx="341.75" cy="297" fill="#ADD8E6" rx="11" ry="11" style="stroke:#181818;stroke-width:1.0;"/><path d="M343.0918,304.25 L340.6431,304.25 L340.6431,293.9985 L337.4971,293.9985 L337.4971,291.8569 L346.2378,291.8569 L346.2378,293.9985 L343.0918,293.9985 Z " fill="#000000"/><text fill="#000000" font-family="sans-serif" font-size="14" lengthAdjust="spacing" textLength="40" x="362.25" y="302.291">Tree2</text><line style="stroke:#181818;stroke-width:0.5;" x1="253.5" x2="478.5" y1="313" y2="313"/><rect fill="none" height="6" style="stroke:#C82930;stroke-width:1.0;" width="6" x="260.5" y="323.7441"/><text fill="#000000" font-family="sans-serif" font-size="14" lengthAdjust="spacing" textLength="103" x="272.5" y="330.5352">sha: 22e61880</text><line style="stroke:#181818;stroke-width:1.0;" x1="253.5" x2="478.5" y1="337.4883" y2="337.4883"/><polygon fill="none" points="263.5,346.2324,267.5,350.2324,263.5,354.2324,259.5,350.2324" style="stroke:#B38D22;stroke-width:1.0;"/><text fill="#000000" font-family="sans-serif" font-size="14" lengthAdjust="spacing" textLength="182" x="272.5" y="355.0234">first.txt 100644 795ddc40</text><polygon fill="none" points="263.5,362.7207,267.5,366.7207,263.5,370.7207,259.5,366.7207" style="stroke:#B38D22;stroke-width:1.0;"/><text fill="#000000" font-family="sans-serif" font-size="14" lengthAdjust="spacing" textLength="201" x="272.5" y="371.5117">seconf.txt 100644 0ba93614</text><text fill="#000000" font-family="sans-serif" font-size="14" lengthAdjust="spacing" textLength="4" x="272.5" y="388"> </text></g><!--class Tree1--><g id="elem_Tree1"><rect codeLine="41" fill="#F1F1F1" height="97.4648" id="Tree1" rx="2.5" ry="2.5" style="stroke:#181818;stroke-width:0.5;" width="208" x="9" y="289.5"/><ellipse cx="88.75" cy="305.5" fill="#90EE90" rx="11" ry="11" style="stroke:#181818;stroke-width:1.0;"/><path d="M90.0918,312.75 L87.6431,312.75 L87.6431,302.4985 L84.4971,302.4985 L84.4971,300.3569 L93.2378,300.3569 L93.2378,302.4985 L90.0918,302.4985 Z " fill="#000000"/><text fill="#000000" font-family="sans-serif" font-size="14" lengthAdjust="spacing" textLength="40" x="109.25" y="310.791">Tree1</text><line style="stroke:#181818;stroke-width:0.5;" x1="10" x2="216" y1="321.5" y2="321.5"/><rect fill="none" height="6" style="stroke:#C82930;stroke-width:1.0;" width="6" x="17" y="332.2441"/><text fill="#000000" font-family="sans-serif" font-size="14" lengthAdjust="spacing" textLength="102" x="29" y="339.0352">sha: 3d800e5a</text><line style="stroke:#181818;stroke-width:1.0;" x1="10" x2="216" y1="345.9883" y2="345.9883"/><polygon fill="none" points="20,354.7324,24,358.7324,20,362.7324,16,358.7324" style="stroke:#B38D22;stroke-width:1.0;"/><text fill="#000000" font-family="sans-serif" font-size="14" lengthAdjust="spacing" textLength="182" x="29" y="363.5234">first.txt 100644 795ddc40</text><text fill="#000000" font-family="sans-serif" font-size="14" lengthAdjust="spacing" textLength="4" x="29" y="380.0117"> </text></g><!--class Blob3--><g id="elem_Blob3"><rect codeLine="47" fill="#F1F1F1" height="97.4648" id="Blob3" rx="2.5" ry="2.5" style="stroke:#181818;stroke-width:0.5;" width="128" x="597" y="463"/><ellipse cx="637.65" cy="479" fill="#FFA500" rx="11" ry="11" style="stroke:#181818;stroke-width:1.0;"/><path d="M636.0533,480.3721 L636.0533,484.041 L637.6803,484.041 Q638.8507,484.041 639.3197,483.6426 Q639.7887,483.2441 639.7887,482.2563 Q639.7887,481.252 639.2989,480.812 Q638.8092,480.3721 637.6803,480.3721 Z M636.0533,475.541 L636.0533,478.4214 L637.6803,478.4214 Q638.61,478.4214 639.0042,478.0894 Q639.3985,477.7573 639.3985,476.9937 Q639.3985,476.23 638.9959,475.8855 Q638.5934,475.541 637.6803,475.541 Z M633.6876,473.5903 L637.6803,473.5903 Q639.7472,473.5903 640.7889,474.3748 Q641.8307,475.1592 641.8307,476.7197 Q641.8307,477.915 641.2164,478.5874 Q640.6021,479.2598 639.4151,479.3677 Q640.8346,479.5088 641.5526,480.3223 Q642.2706,481.1357 642.2706,482.5967 Q642.2706,484.3896 641.1915,485.1948 Q640.1124,486 637.6803,486 L633.6876,486 Z " fill="#000000"/><text fill="#000000" font-family="sans-serif" font-size="14" lengthAdjust="spacing" textLength="39" x="657.35" y="484.291">Blob3</text><line style="stroke:#181818;stroke-width:0.5;" x1="598" x2="724" y1="495" y2="495"/><rect fill="none" height="6" style="stroke:#C82930;stroke-width:1.0;" width="6" x="605" y="505.7441"/><text fill="#000000" font-family="sans-serif" font-size="14" lengthAdjust="spacing" textLength="102" x="617" y="512.5352">sha: da13a9b8</text><line style="stroke:#181818;stroke-width:1.0;" x1="598" x2="724" y1="519.4883" y2="519.4883"/><text fill="#000000" font-family="sans-serif" font-size="14" lengthAdjust="spacing" textLength="68" x="603" y="537.0234">ThirdData</text><text fill="#000000" font-family="sans-serif" font-size="14" lengthAdjust="spacing" textLength="4" x="603" y="553.5117"> </text></g><!--class Blob1--><g id="elem_Blob1"><rect codeLine="53" fill="#F1F1F1" height="97.4648" id="Blob1" rx="2.5" ry="2.5" style="stroke:#181818;stroke-width:0.5;" width="128" x="269" y="463"/><ellipse cx="309.65" cy="479" fill="#90EE90" rx="11" ry="11" style="stroke:#181818;stroke-width:1.0;"/><path d="M308.0533,480.3721 L308.0533,484.041 L309.6803,484.041 Q310.8507,484.041 311.3197,483.6426 Q311.7887,483.2441 311.7887,482.2563 Q311.7887,481.252 311.2989,480.812 Q310.8092,480.3721 309.6803,480.3721 Z M308.0533,475.541 L308.0533,478.4214 L309.6803,478.4214 Q310.61,478.4214 311.0042,478.0894 Q311.3985,477.7573 311.3985,476.9937 Q311.3985,476.23 310.9959,475.8855 Q310.5934,475.541 309.6803,475.541 Z M305.6876,473.5903 L309.6803,473.5903 Q311.7472,473.5903 312.7889,474.3748 Q313.8307,475.1592 313.8307,476.7197 Q313.8307,477.915 313.2164,478.5874 Q312.6021,479.2598 311.4151,479.3677 Q312.8346,479.5088 313.5526,480.3223 Q314.2706,481.1357 314.2706,482.5967 Q314.2706,484.3896 313.1915,485.1948 Q312.1124,486 309.6803,486 L305.6876,486 Z " fill="#000000"/><text fill="#000000" font-family="sans-serif" font-size="14" lengthAdjust="spacing" textLength="39" x="329.35" y="484.291">Blob1</text><line style="stroke:#181818;stroke-width:0.5;" x1="270" x2="396" y1="495" y2="495"/><rect fill="none" height="6" style="stroke:#C82930;stroke-width:1.0;" width="6" x="277" y="505.7441"/><text fill="#000000" font-family="sans-serif" font-size="14" lengthAdjust="spacing" textLength="102" x="289" y="512.5352">sha: 795ddc40</text><line style="stroke:#181818;stroke-width:1.0;" x1="270" x2="396" y1="519.4883" y2="519.4883"/><text fill="#000000" font-family="sans-serif" font-size="14" lengthAdjust="spacing" textLength="61" x="275" y="537.0234">FirstData</text><text fill="#000000" font-family="sans-serif" font-size="14" lengthAdjust="spacing" textLength="4" x="275" y="553.5117"> </text></g><!--class Blob2--><g id="elem_Blob2"><rect codeLine="59" fill="#F1F1F1" height="97.4648" id="Blob2" rx="2.5" ry="2.5" style="stroke:#181818;stroke-width:0.5;" width="129" x="432.5" y="463"/><ellipse cx="473.6" cy="479" fill="#ADD8E6" rx="11" ry="11" style="stroke:#181818;stroke-width:1.0;"/><path d="M472.0033,480.3721 L472.0033,484.041 L473.6303,484.041 Q474.8007,484.041 475.2697,483.6426 Q475.7387,483.2441 475.7387,482.2563 Q475.7387,481.252 475.2489,480.812 Q474.7592,480.3721 473.6303,480.3721 Z M472.0033,475.541 L472.0033,478.4214 L473.6303,478.4214 Q474.56,478.4214 474.9542,478.0894 Q475.3485,477.7573 475.3485,476.9937 Q475.3485,476.23 474.9459,475.8855 Q474.5434,475.541 473.6303,475.541 Z M469.6376,473.5903 L473.6303,473.5903 Q475.6972,473.5903 476.7389,474.3748 Q477.7807,475.1592 477.7807,476.7197 Q477.7807,477.915 477.1664,478.5874 Q476.5521,479.2598 475.3651,479.3677 Q476.7846,479.5088 477.5026,480.3223 Q478.2206,481.1357 478.2206,482.5967 Q478.2206,484.3896 477.1415,485.1948 Q476.0624,486 473.6303,486 L469.6376,486 Z " fill="#000000"/><text fill="#000000" font-family="sans-serif" font-size="14" lengthAdjust="spacing" textLength="39" x="493.4" y="484.291">Blob2</text><line style="stroke:#181818;stroke-width:0.5;" x1="433.5" x2="560.5" y1="495" y2="495"/><rect fill="none" height="6" style="stroke:#C82930;stroke-width:1.0;" width="6" x="440.5" y="505.7441"/><text fill="#000000" font-family="sans-serif" font-size="14" lengthAdjust="spacing" textLength="103" x="452.5" y="512.5352">sha: 0ba93614</text><line style="stroke:#181818;stroke-width:1.0;" x1="433.5" x2="560.5" y1="519.4883" y2="519.4883"/><text fill="#000000" font-family="sans-serif" font-size="14" lengthAdjust="spacing" textLength="81" x="438.5" y="537.0234">SecondData</text><text fill="#000000" font-family="sans-serif" font-size="14" lengthAdjust="spacing" textLength="4" x="438.5" y="553.5117"> </text></g><g id="elem_GMN24"><path d="M669.5,6 L669.5,31.3105 A0,0 0 0 0 669.5,31.3105 L686.01,31.3105 L649.22,90.77 L694.01,31.3105 L726.5,31.3105 A0,0 0 0 0 726.5,31.3105 L726.5,16 L716.5,6 L669.5,6 A0,0 0 0 0 669.5,6 " fill="#FFA500" style="stroke:#181818;stroke-width:0.5;"/><path d="M716.5,6 L716.5,16 L726.5,16 L716.5,6 " fill="#FFA500" style="stroke:#181818;stroke-width:0.5;"/><text fill="#000000" font-family="sans-serif" font-size="13" lengthAdjust="spacing" textLength="36" x="675.5" y="23.5684">HEAD</text></g><g id="elem_GMN27"><path d="M495.5,6 L495.5,31.3105 A0,0 0 0 0 495.5,31.3105 L564.82,31.3105 L588.31,90.77 L572.82,31.3105 L634.5,31.3105 A0,0 0 0 0 634.5,31.3105 L634.5,16 L624.5,6 L495.5,6 A0,0 0 0 0 495.5,6 " fill="#FFA500" style="stroke:#181818;stroke-width:0.5;"/><path d="M624.5,6 L624.5,16 L634.5,16 L624.5,6 " fill="#FFA500" style="stroke:#181818;stroke-width:0.5;"/><text fill="#000000" font-family="sans-serif" font-size="13" lengthAdjust="spacing" textLength="118" x="501.5" y="23.5684">refs/heads/master</text></g><g id="elem_GMN30"><path d="M296,6 L296,31.3105 A0,0 0 0 0 296,31.3105 L362,31.3105 L366,90.77 L370,31.3105 L436,31.3105 A0,0 0 0 0 436,31.3105 L436,16 L426,6 L296,6 A0,0 0 0 0 296,6 " fill="#ADD8E6" style="stroke:#181818;stroke-width:0.5;"/><path d="M426,6 L426,16 L436,16 L426,6 " fill="#ADD8E6" style="stroke:#181818;stroke-width:0.5;"/><text fill="#000000" font-family="sans-serif" font-size="13" lengthAdjust="spacing" textLength="119" x="302" y="23.5684">refs/heads/feature</text></g><!--link Commit3 to Tree3--><g id="link_Commit3_Tree3"><path codeLine="65" d="M614.55,213.25 C616.4,230.24 618.42,248.87 620.33,266.41 " fill="none" id="Commit3-to-Tree3" style="stroke:#181818;stroke-width:1.0;"/><polygon fill="#181818" points="620.86,271.31,623.8594,261.929,620.3172,266.3395,615.9067,262.7974,620.86,271.31" style="stroke:#181818;stroke-width:1.0;"/></g><!--link Commit2 to Tree2--><g id="link_Commit2_Tree2"><path codeLine="66" d="M366,213.25 C366,232.83 366,254.59 366,274.34 " fill="none" id="Commit2-to-Tree2" style="stroke:#181818;stroke-width:1.0;"/><polygon fill="#181818" points="366,279.16,370,270.16,366,274.16,362,270.16,366,279.16" style="stroke:#181818;stroke-width:1.0;"/></g><!--link Commit1 to Tree1--><g id="link_Commit1_Tree1"><path codeLine="67" d="M123.76,213.25 C121.81,235.67 119.61,260.95 117.71,282.79 " fill="none" id="Commit1-to-Tree1" style="stroke:#181818;stroke-width:1.0;"/><polygon fill="#181818" points="117.29,287.65,122.0706,279.0392,117.7324,282.6696,114.102,278.3314,117.29,287.65" style="stroke:#181818;stroke-width:1.0;"/></g><!--link Tree3 to Blob1--><g id="link_Tree3_Blob1"><path codeLine="68" d="M517.31,403.35 C478.83,425.72 436.77,450.17 402.56,470.06 " fill="none" id="Tree3-to-Blob1" style="stroke:#181818;stroke-width:1.0;"/><polygon fill="#181818" points="398.44,472.45,408.2299,471.3743,402.7599,469.9324,404.2018,464.4624,398.44,472.45" style="stroke:#181818;stroke-width:1.0;"/></g><!--link Tree3 to Blob2--><g id="link_Tree3_Blob2"><path codeLine="69" d="M578.85,403.35 C565.11,421.33 550.35,440.66 537.2,457.88 " fill="none" id="Tree3-to-Blob2" style="stroke:#181818;stroke-width:1.0;"/><polygon fill="#181818" points="534.45,461.47,543.08,456.7241,537.4751,457.4889,536.7102,451.884,534.45,461.47" style="stroke:#181818;stroke-width:1.0;"/></g><!--link Tree3 to Blob3--><g id="link_Tree3_Blob3"><path codeLine="70" d="M640.38,403.35 C643.75,420.87 647.37,439.67 650.62,456.55 " fill="none" id="Tree3-to-Blob3" style="stroke:#181818;stroke-width:1.0;"/><polygon fill="#181818" points="651.51,461.19,653.7425,451.5975,650.5679,456.2796,645.8858,453.1049,651.51,461.19" style="stroke:#181818;stroke-width:1.0;"/></g><!--link Tree2 to Blob1--><g id="link_Tree2_Blob1"><path codeLine="71" d="M355.19,395.16 C351.41,414.81 347.17,436.83 343.42,456.33 " fill="none" id="Tree2-to-Blob1" style="stroke:#181818;stroke-width:1.0;"/><polygon fill="#181818" points="342.51,461.07,348.1385,452.9879,343.4548,456.1601,340.2826,451.4763,342.51,461.07" style="stroke:#181818;stroke-width:1.0;"/></g><!--link Tree2 to Blob2--><g id="link_Tree2_Blob2"><path codeLine="72" d="M408.89,395.16 C424.23,415.24 441.46,437.79 456.58,457.59 " fill="none" id="Tree2-to-Blob2" style="stroke:#181818;stroke-width:1.0;"/><polygon fill="#181818" points="459.46,461.36,457.1614,451.7831,456.419,457.391,450.8111,456.6487,459.46,461.36" style="stroke:#181818;stroke-width:1.0;"/></g><!--link Tree1 to Blob1--><g id="link_Tree1_Blob1"><path codeLine="73" d="M174.28,386.77 C203.01,409.16 237.29,435.89 266.63,458.76 " fill="none" id="Tree1-to-Blob1" style="stroke:#181818;stroke-width:1.0;"/><polygon fill="#181818" points="270.47,461.76,265.8281,453.0736,266.5255,458.6873,260.9119,459.3848,270.47,461.76" style="stroke:#181818;stroke-width:1.0;"/></g><!--reverse link Commit2 to Commit3--><g id="link_Commit2_Commit3"><path codeLine="74" d="M468.72,152 C484.53,152 500.35,152 516.16,152 " fill="none" id="Commit2-backto-Commit3" style="stroke:#181818;stroke-width:1.0;"/><polygon fill="#181818" points="463.94,152,472.94,156,468.94,152,472.94,148,463.94,152" style="stroke:#181818;stroke-width:1.0;"/></g><!--reverse link Commit1 to Commit2--><g id="link_Commit1_Commit2"><path codeLine="75" d="M226.38,152 C240.84,152 255.29,152 269.74,152 " fill="none" id="Commit1-backto-Commit2" style="stroke:#181818;stroke-width:1.0;"/><polygon fill="#181818" points="221.7,152,230.7,156,226.7,152,230.7,148,221.7,152" style="stroke:#181818;stroke-width:1.0;"/></g><!--SRC=[fPHRJuCm68Rl-okQx4OJSJq05h8iSPl6U_S7oje22OU5Tec9yRzRXdJ0q5rusU_ql7txmQ7WMiDjNPQveN2rkji-r0slKdc_NiDFuEcCnv3vaM0guS3pG2crvgcC8HT22cYol16FviE0DcbocpQyFCOG1mmnJ2D4m1Su32YaenHvcfcaE8r0KKIJ94Y26P2MTVKN28TJ41w0qaRAQaX2Wh8mOcg6fF96czz9X37VaVPsxjcs_Onjr5S1muoqOnQNiH0Z5Fe-V8e28Gu-iZaj3tMbXacKy8Y6sBT9Pt6V4nnJ7YKCZ6IGJiQihuJ843E6_gLaHCC3sfMvL324PC1luTp4JL4dPnitCpQwwzff-zQB7JTyt8kxtdar3cVxNrijr_raq3_rpjtVjh-txZX-_zLuthfR1D1lU1yXe5_5Fe91jpBj-QnySYQJCmNTsuxhoQGU3_9ELM53Fu8kmYv13AhQI6Zg8woL-mCiElzX3DzUddStIXgfz3AJNEXboRMHpKmzWGjdwxX5IMvEZGJV]--></g></svg>