<?xml version="1.0" encoding="UTF-8" standalone="no"?><svg xmlns="http://www.w3.org/2000/svg" xmlns:xlink="http://www.w3.org/1999/xlink" contentStyleType="text/css" height="584px" preserveAspectRatio="none" style="width:1038px;height:584px;background:#FFFFFF;" version="1.1" viewBox="0 0 1038 584" width="1038px" zoomAndPan="magnify"><defs/><g><!--class Commit4--><g id="elem_Commit4"><rect codeLine="2" fill="#F1F1F1" height="121.9531" id="Commit4" rx="2.5" ry="2.5" style="stroke:#181818;stroke-width:0.5;" width="184" x="776" y="91"/><ellipse cx="832.25" cy="107" fill="#FFFF00" rx="11" ry="11" style="stroke:#181818;stroke-width:1.0;"/><path d="M834.7231,113.1431 Q834.1421,113.4419 833.5029,113.5913 Q832.8638,113.7407 832.1582,113.7407 Q829.6514,113.7407 828.3315,112.0889 Q827.0117,110.437 827.0117,107.3159 Q827.0117,104.1865 828.3315,102.5347 Q829.6514,100.8828 832.1582,100.8828 Q832.8638,100.8828 833.5112,101.0322 Q834.1587,101.1816 834.7231,101.4805 L834.7231,104.2031 Q834.0923,103.6221 833.4988,103.3523 Q832.9053,103.0825 832.2744,103.0825 Q830.9297,103.0825 830.2449,104.1492 Q829.5601,105.2158 829.5601,107.3159 Q829.5601,109.4077 830.2449,110.4744 Q830.9297,111.541 832.2744,111.541 Q832.9053,111.541 833.4988,111.2712 Q834.0923,111.0015 834.7231,110.4204 Z " fill="#000000"/><text fill="#000000" font-family="sans-serif" font-size="14" lengthAdjust="spacing" textLength="63" x="852.75" y="112.291">Commit4</text><line style="stroke:#181818;stroke-width:0.5;" x1="777" x2="959" y1="123" y2="123"/><rect fill="none" height="6" style="stroke:#C82930;stroke-width:1.0;" width="6" x="784" y="133.7441"/><text fill="#000000" font-family="sans-serif" font-size="14" lengthAdjust="spacing" textLength="103" x="796" y="140.5352">sha: 24e29617</text><line style="stroke:#181818;stroke-width:1.0;" x1="777" x2="959" y1="147.4883" y2="147.4883"/><text fill="#000000" font-family="sans-serif" font-size="14" lengthAdjust="spacing" textLength="172" x="782" y="165.0234">message: added forth.txt</text><text fill="#000000" font-family="sans-serif" font-size="14" lengthAdjust="spacing" textLength="4" x="782" y="181.5117"> </text><line style="stroke:#181818;stroke-width:1.0;" x1="777" x2="959" y1="188.4648" y2="188.4648"/><text fill="#000000" font-family="sans-serif" font-size="14" lengthAdjust="spacing" textLength="170" x="782" y="206">timestamp: 1580840054</text></g><!--class Commit3--><g id="elem_Commit3"><rect codeLine="10" fill="#F1F1F1" height="121.9531" id="Commit3" rx="2.5" ry="2.5" style="stroke:#181818;stroke-width:0.5;" width="183" x="536.5" y="91"/><ellipse cx="592.25" cy="107" fill="#FFA500" rx="11" ry="11" style="stroke:#181818;stroke-width:1.0;"/><path d="M594.7231,113.1431 Q594.1421,113.4419 593.5029,113.5913 Q592.8638,113.7407 592.1582,113.7407 Q589.6514,113.7407 588.3315,112.0889 Q587.0117,110.437 587.0117,107.3159 Q587.0117,104.1865 588.3315,102.5347 Q589.6514,100.8828 592.1582,100.8828 Q592.8638,100.8828 593.5112,101.0322 Q594.1587,101.1816 594.7231,101.4805 L594.7231,104.2031 Q594.0923,103.6221 593.4988,103.3523 Q592.9053,103.0825 592.2744,103.0825 Q590.9297,103.0825 590.2449,104.1492 Q589.5601,105.2158 589.5601,107.3159 Q589.5601,109.4077 590.2449,110.4744 Q590.9297,111.541 592.2744,111.541 Q592.9053,111.541 593.4988,111.2712 Q594.0923,111.0015 594.7231,110.4204 Z " fill="#000000"/><text fill="#000000" font-family="sans-serif" font-size="14" lengthAdjust="spacing" textLength="63" x="612.75" y="112.291">Commit3</text><line style="stroke:#181818;stroke-width:0.5;" x1="537.5" x2="718.5" y1="123" y2="123"/><rect fill="none" height="6" style="stroke:#C82930;stroke-width:1.0;" width="6" x="544.5" y="133.7441"/><text fill="#000000" font-family="sans-serif" font-size="14" lengthAdjust="spacing" textLength="99" x="556.5" y="140.5352">sha: 849d8fba</text><line style="stroke:#181818;stroke-width:1.0;" x1="537.5" x2="718.5" y1="147.4883" y2="147.4883"/><text fill="#000000" font-family="sans-serif" font-size="14" lengthAdjust="spacing" textLength="171" x="542.5" y="165.0234">message: added third.txt</text><text fill="#000000" font-family="sans-serif" font-size="14" lengthAdjust="spacing" textLength="4" x="542.5" y="181.5117"> </text><line style="stroke:#181818;stroke-width:1.0;" x1="537.5" x2="718.5" y1="188.4648" y2="188.4648"/><text fill="#000000" font-family="sans-serif" font-size="14" lengthAdjust="spacing" textLength="170" x="542.5" y="206">timestamp: 1580813902</text></g><!--class Commit2--><g id="elem_Commit2"><rect codeLine="18" fill="#F1F1F1" height="121.9531" id="Commit2" rx="2.5" ry="2.5" style="stroke:#181818;stroke-width:0.5;" width="199" x="266.5" y="91"/><ellipse cx="330.25" cy="107" fill="#ADD8E6" rx="11" ry="11" style="stroke:#181818;stroke-width:1.0;"/><path d="M332.7231,113.1431 Q332.1421,113.4419 331.5029,113.5913 Q330.8638,113.7407 330.1582,113.7407 Q327.6514,113.7407 326.3315,112.0889 Q325.0117,110.437 325.0117,107.3159 Q325.0117,104.1865 326.3315,102.5347 Q327.6514,100.8828 330.1582,100.8828 Q330.8638,100.8828 331.5112,101.0322 Q332.1587,101.1816 332.7231,101.4805 L332.7231,104.2031 Q332.0923,103.6221 331.4988,103.3523 Q330.9053,103.0825 330.2744,103.0825 Q328.9297,103.0825 328.2449,104.1492 Q327.5601,105.2158 327.5601,107.3159 Q327.5601,109.4077 328.2449,110.4744 Q328.9297,111.541 330.2744,111.541 Q330.9053,111.541 331.4988,111.2712 Q332.0923,111.0015 332.7231,110.4204 Z " fill="#000000"/><text fill="#000000" font-family="sans-serif" font-size="14" lengthAdjust="spacing" textLength="63" x="350.75" y="112.291">Commit2</text><line style="stroke:#181818;stroke-width:0.5;" x1="267.5" x2="464.5" y1="123" y2="123"/><rect fill="none" height="6" style="stroke:#C82930;stroke-width:1.0;" width="6" x="274.5" y="133.7441"/><text fill="#000000" font-family="sans-serif" font-size="14" lengthAdjust="spacing" textLength="104" x="286.5" y="140.5352">sha: 993bb5b5</text><line style="stroke:#181818;stroke-width:1.0;" x1="267.5" x2="464.5" y1="147.4883" y2="147.4883"/><text fill="#000000" font-family="sans-serif" font-size="14" lengthAdjust="spacing" textLength="187" x="272.5" y="165.0234">message: added second.txt</text><text fill="#000000" font-family="sans-serif" font-size="14" lengthAdjust="spacing" textLength="4" x="272.5" y="181.5117"> </text><line style="stroke:#181818;stroke-width:1.0;" x1="267.5" x2="464.5" y1="188.4648" y2="188.4648"/><text fill="#000000" font-family="sans-serif" font-size="14" lengthAdjust="spacing" textLength="170" x="272.5" y="206">timestamp: 1580813162</text></g><!--class Commit1--><g id="elem_Commit1"><rect codeLine="26" fill="#F1F1F1" height="121.9531" id="Commit1" rx="2.5" ry="2.5" style="stroke:#181818;stroke-width:0.5;" width="182" x="36" y="91"/><ellipse cx="91.25" cy="107" fill="#90EE90" rx="11" ry="11" style="stroke:#181818;stroke-width:1.0;"/><path d="M93.7231,113.1431 Q93.1421,113.4419 92.5029,113.5913 Q91.8638,113.7407 91.1582,113.7407 Q88.6514,113.7407 87.3315,112.0889 Q86.0117,110.437 86.0117,107.3159 Q86.0117,104.1865 87.3315,102.5347 Q88.6514,100.8828 91.1582,100.8828 Q91.8638,100.8828 92.5112,101.0322 Q93.1587,101.1816 93.7231,101.4805 L93.7231,104.2031 Q93.0923,103.6221 92.4988,103.3523 Q91.9053,103.0825 91.2744,103.0825 Q89.9297,103.0825 89.2449,104.1492 Q88.5601,105.2158 88.5601,107.3159 Q88.5601,109.4077 89.2449,110.4744 Q89.9297,111.541 91.2744,111.541 Q91.9053,111.541 92.4988,111.2712 Q93.0923,111.0015 93.7231,110.4204 Z " fill="#000000"/><text fill="#000000" font-family="sans-serif" font-size="14" lengthAdjust="spacing" textLength="63" x="111.75" y="112.291">Commit1</text><line style="stroke:#181818;stroke-width:0.5;" x1="37" x2="217" y1="123" y2="123"/><rect fill="none" height="6" style="stroke:#C82930;stroke-width:1.0;" width="6" x="44" y="133.7441"/><text fill="#000000" font-family="sans-serif" font-size="14" lengthAdjust="spacing" textLength="100" x="56" y="140.5352">sha: 0d38698f</text><line style="stroke:#181818;stroke-width:1.0;" x1="37" x2="217" y1="147.4883" y2="147.4883"/><text fill="#000000" font-family="sans-serif" font-size="14" lengthAdjust="spacing" textLength="165" x="42" y="165.0234">message: added first.txt</text><text fill="#000000" font-family="sans-serif" font-size="14" lengthAdjust="spacing" textLength="4" x="42" y="181.5117"> </text><line style="stroke:#181818;stroke-width:1.0;" x1="37" x2="217" y1="188.4648" y2="188.4648"/><text fill="#000000" font-family="sans-serif" font-size="14" lengthAdjust="spacing" textLength="170" x="42" y="206">timestamp: 1580812884</text></g><!--class Tree4--><g id="elem_Tree4"><rect codeLine="34" fill="#F1F1F1" height="146.9297" id="Tree4" rx="2.5" ry="2.5" style="stroke:#181818;stroke-width:0.5;" width="227" x="776.5" y="273"/><ellipse cx="865.75" cy="289" fill="#FFFF00" rx="11" ry="11" style="stroke:#181818;stroke-width:1.0;"/><path d="M867.0918,296.25 L864.6431,296.25 L864.6431,285.9985 L861.4971,285.9985 L861.4971,283.8569 L870.2378,283.8569 L870.2378,285.9985 L867.0918,285.9985 Z " fill="#000000"/><text fill="#000000" font-family="sans-serif" font-size="14" lengthAdjust="spacing" textLength="40" x="886.25" y="294.291">Tree4</text><line style="stroke:#181818;stroke-width:0.5;" x1="777.5" x2="1002.5" y1="305" y2="305"/><rect fill="none" height="6" style="stroke:#C82930;stroke-width:1.0;" width="6" x="784.5" y="315.7441"/><text fill="#000000" font-family="sans-serif" font-size="14" lengthAdjust="spacing" textLength="101" x="796.5" y="322.5352">sha: b47a18ae</text><line style="stroke:#181818;stroke-width:1.0;" x1="777.5" x2="1002.5" y1="329.4883" y2="329.4883"/><polygon fill="none" points="787.5,338.2324,791.5,342.2324,787.5,346.2324,783.5,342.2324" style="stroke:#B38D22;stroke-width:1.0;"/><text fill="#000000" font-family="sans-serif" font-size="14" lengthAdjust="spacing" textLength="182" x="796.5" y="347.0234">first.txt 100644 795ddc40</text><polygon fill="none" points="787.5,354.7207,791.5,358.7207,787.5,362.7207,783.5,358.7207" style="stroke:#B38D22;stroke-width:1.0;"/><text fill="#000000" font-family="sans-serif" font-size="14" lengthAdjust="spacing" textLength="185" x="796.5" y="363.5117">forth.txt 100644 0b7fbcdb</text><polygon fill="none" points="787.5,371.209,791.5,375.209,787.5,379.209,783.5,375.209" style="stroke:#B38D22;stroke-width:1.0;"/><text fill="#000000" font-family="sans-serif" font-size="14" lengthAdjust="spacing" textLength="201" x="796.5" y="380">seconf.txt 100644 0ba93614</text><polygon fill="none" points="787.5,387.6973,791.5,391.6973,787.5,395.6973,783.5,391.6973" style="stroke:#B38D22;stroke-width:1.0;"/><text fill="#000000" font-family="sans-serif" font-size="14" lengthAdjust="spacing" textLength="188" x="796.5" y="396.4883">third.txt 100644 da13a9b8</text><text fill="#000000" font-family="sans-serif" font-size="14" lengthAdjust="spacing" textLength="4" x="796.5" y="412.9766"> </text></g><!--class Tree3--><g id="elem_Tree3"><rect codeLine="43" fill="#F1F1F1" height="130.4414" id="Tree3" rx="2.5" ry="2.5" style="stroke:#181818;stroke-width:0.5;" width="227" x="514.5" y="281.5"/><ellipse cx="603.75" cy="297.5" fill="#FFA500" rx="11" ry="11" style="stroke:#181818;stroke-width:1.0;"/><path d="M605.0918,304.75 L602.6431,304.75 L602.6431,294.4985 L599.4971,294.4985 L599.4971,292.3569 L608.2378,292.3569 L608.2378,294.4985 L605.0918,294.4985 Z " fill="#000000"/><text fill="#000000" font-family="sans-serif" font-size="14" lengthAdjust="spacing" textLength="40" x="624.25" y="302.791">Tree3</text><line style="stroke:#181818;stroke-width:0.5;" x1="515.5" x2="740.5" y1="313.5" y2="313.5"/><rect fill="none" height="6" style="stroke:#C82930;stroke-width:1.0;" width="6" x="522.5" y="324.2441"/><text fill="#000000" font-family="sans-serif" font-size="14" lengthAdjust="spacing" textLength="100" x="534.5" y="331.0352">sha: 34f58182</text><line style="stroke:#181818;stroke-width:1.0;" x1="515.5" x2="740.5" y1="337.9883" y2="337.9883"/><polygon fill="none" points="525.5,346.7324,529.5,350.7324,525.5,354.7324,521.5,350.7324" style="stroke:#B38D22;stroke-width:1.0;"/><text fill="#000000" font-family="sans-serif" font-size="14" lengthAdjust="spacing" textLength="182" x="534.5" y="355.5234">first.txt 100644 795ddc40</text><polygon fill="none" points="525.5,363.2207,529.5,367.2207,525.5,371.2207,521.5,367.2207" style="stroke:#B38D22;stroke-width:1.0;"/><text fill="#000000" font-family="sans-serif" font-size="14" lengthAdjust="spacing" textLength="201" x="534.5" y="372.0117">seconf.txt 100644 0ba93614</text><polygon fill="none" points="525.5,379.709,529.5,383.709,525.5,387.709,521.5,383.709" style="stroke:#B38D22;stroke-width:1.0;"/><text fill="#000000" font-family="sans-serif" font-size="14" lengthAdjust="spacing" textLength="188" x="534.5" y="388.5">third.txt 100644 da13a9b8</text><text fill="#000000" font-family="sans-serif" font-size="14" lengthAdjust="spacing" textLength="4" x="534.5" y="404.9883"> </text></g><!--class Tree2--><g id="elem_Tree2"><rect codeLine="51" fill="#F1F1F1" height="113.9531" id="Tree2" rx="2.5" ry="2.5" style="stroke:#181818;stroke-width:0.5;" width="227" x="252.5" y="289.5"/><ellipse cx="341.75" cy="305.5" fill="#ADD8E6" rx="11" ry="11" style="stroke:#181818;stroke-width:1.0;"/><path d="M343.0918,312.75 L340.6431,312.75 L340.6431,302.4985 L337.4971,302.4985 L337.4971,300.3569 L346.2378,300.3569 L346.2378,302.4985 L343.0918,302.4985 Z " fill="#000000"/><text fill="#000000" font-family="sans-serif" font-size="14" lengthAdjust="spacing" textLength="40" x="362.25" y="310.791">Tree2</text><line style="stroke:#181818;stroke-width:0.5;" x1="253.5" x2="478.5" y1="321.5" y2="321.5"/><rect fill="none" height="6" style="stroke:#C82930;stroke-width:1.0;" width="6" x="260.5" y="332.2441"/><text fill="#000000" font-family="sans-serif" font-size="14" lengthAdjust="spacing" textLength="103" x="272.5" y="339.0352">sha: 22e61880</text><line style="stroke:#181818;stroke-width:1.0;" x1="253.5" x2="478.5" y1="345.9883" y2="345.9883"/><polygon fill="none" points="263.5,354.7324,267.5,358.7324,263.5,362.7324,259.5,358.7324" style="stroke:#B38D22;stroke-width:1.0;"/><text fill="#000000" font-family="sans-serif" font-size="14" lengthAdjust="spacing" textLength="182" x="272.5" y="363.5234">first.txt 100644 795ddc40</text><polygon fill="none" points="263.5,371.2207,267.5,375.2207,263.5,379.2207,259.5,375.2207" style="stroke:#B38D22;stroke-width:1.0;"/><text fill="#000000" font-family="sans-serif" font-size="14" lengthAdjust="spacing" textLength="201" x="272.5" y="380.0117">seconf.txt 100644 0ba93614</text><text fill="#000000" font-family="sans-serif" font-size="14" lengthAdjust="spacing" textLength="4" x="272.5" y="396.5"> </text></g><!--class Tree1--><g id="elem_Tree1"><rect codeLine="58" fill="#F1F1F1" height="97.4648" id="Tree1" rx="2.5" ry="2.5" style="stroke:#181818;stroke-width:0.5;" width="208" x="9" y="298"/><ellipse cx="88.75" cy="314" fill="#90EE90" rx="11" ry="11" style="stroke:#181818;stroke-width:1.0;"/><path d="M90.0918,321.25 L87.6431,321.25 L87.6431,310.9985 L84.4971,310.9985 L84.4971,308.8569 L93.2378,308.8569 L93.2378,310.9985 L90.0918,310.9985 Z " fill="#000000"/><text fill="#000000" font-family="sans-serif" font-size="14" lengthAdjust="spacing" textLength="40" x="109.25" y="319.291">Tree1</text><line style="stroke:#181818;stroke-width:0.5;" x1="10" x2="216" y1="330" y2="330"/><rect fill="none" height="6" style="stroke:#C82930;stroke-width:1.0;" width="6" x="17" y="340.7441"/><text fill="#000000" font-family="sans-serif" font-size="14" lengthAdjust="spacing" textLength="102" x="29" y="347.5352">sha: 3d800e5a</text><line style="stroke:#181818;stroke-width:1.0;" x1="10" x2="216" y1="354.4883" y2="354.4883"/><polygon fill="none" points="20,363.2324,24,367.2324,20,371.2324,16,367.2324" style="stroke:#B38D22;stroke-width:1.0;"/><text fill="#000000" font-family="sans-serif" font-size="14" lengthAdjust="spacing" textLength="182" x="29" y="372.0234">first.txt 100644 795ddc40</text><text fill="#000000" font-family="sans-serif" font-size="14" lengthAdjust="spacing" textLength="4" x="29" y="388.5117"> </text></g><!--class Blob4--><g id="elem_Blob4"><rect codeLine="64" fill="#F1F1F1" height="97.4648" id="Blob4" rx="2.5" ry="2.5" style="stroke:#181818;stroke-width:0.5;" width="124" x="859" y="480"/><ellipse cx="897.85" cy="496" fill="#FFFF00" rx="11" ry="11" style="stroke:#181818;stroke-width:1.0;"/><path d="M896.2533,497.3721 L896.2533,501.041 L897.8803,501.041 Q899.0507,501.041 899.5197,500.6426 Q899.9887,500.2441 899.9887,499.2563 Q899.9887,498.252 899.4989,497.812 Q899.0092,497.3721 897.8803,497.3721 Z M896.2533,492.541 L896.2533,495.4214 L897.8803,495.4214 Q898.81,495.4214 899.2042,495.0894 Q899.5985,494.7573 899.5985,493.9937 Q899.5985,493.23 899.1959,492.8855 Q898.7934,492.541 897.8803,492.541 Z M893.8876,490.5903 L897.8803,490.5903 Q899.9472,490.5903 900.9889,491.3748 Q902.0307,492.1592 902.0307,493.7197 Q902.0307,494.915 901.4164,495.5874 Q900.8021,496.2598 899.6151,496.3677 Q901.0346,496.5088 901.7526,497.3223 Q902.4706,498.1357 902.4706,499.5967 Q902.4706,501.3896 901.3915,502.1948 Q900.3124,503 897.8803,503 L893.8876,503 Z " fill="#000000"/><text fill="#000000" font-family="sans-serif" font-size="14" lengthAdjust="spacing" textLength="39" x="917.15" y="501.291">Blob4</text><line style="stroke:#181818;stroke-width:0.5;" x1="860" x2="982" y1="512" y2="512"/><rect fill="none" height="6" style="stroke:#C82930;stroke-width:1.0;" width="6" x="867" y="522.7441"/><text fill="#000000" font-family="sans-serif" font-size="14" lengthAdjust="spacing" textLength="98" x="879" y="529.5352">sha: 0b7fbcdb</text><line style="stroke:#181818;stroke-width:1.0;" x1="860" x2="982" y1="536.4883" y2="536.4883"/><text fill="#000000" font-family="sans-serif" font-size="14" lengthAdjust="spacing" textLength="77" x="865" y="554.0234">FourthData</text><text fill="#000000" font-family="sans-serif" font-size="14" lengthAdjust="spacing" textLength="4" x="865" y="570.5117"> </text></g><!--class Blob3--><g id="elem_Blob3"><rect codeLine="70" fill="#F1F1F1" height="97.4648" id="Blob3" rx="2.5" ry="2.5" style="stroke:#181818;stroke-width:0.5;" width="128" x="696" y="480"/><ellipse cx="736.65" cy="496" fill="#FFA500" rx="11" ry="11" style="stroke:#181818;stroke-width:1.0;"/><path d="M735.0533,497.3721 L735.0533,501.041 L736.6803,501.041 Q737.8507,501.041 738.3197,500.6426 Q738.7887,500.2441 738.7887,499.2563 Q738.7887,498.252 738.2989,497.812 Q737.8092,497.3721 736.6803,497.3721 Z M735.0533,492.541 L735.0533,495.4214 L736.6803,495.4214 Q737.61,495.4214 738.0042,495.0894 Q738.3985,494.7573 738.3985,493.9937 Q738.3985,493.23 737.9959,492.8855 Q737.5934,492.541 736.6803,492.541 Z M732.6876,490.5903 L736.6803,490.5903 Q738.7472,490.5903 739.7889,491.3748 Q740.8307,492.1592 740.8307,493.7197 Q740.8307,494.915 740.2164,495.5874 Q739.6021,496.2598 738.4151,496.3677 Q739.8346,496.5088 740.5526,497.3223 Q741.2706,498.1357 741.2706,499.5967 Q741.2706,501.3896 740.1915,502.1948 Q739.1124,503 736.6803,503 L732.6876,503 Z " fill="#000000"/><text fill="#000000" font-family="sans-serif" font-size="14" lengthAdjust="spacing" textLength="39" x="756.35" y="501.291">Blob3</text><line style="stroke:#181818;stroke-width:0.5;" x1="697" x2="823" y1="512" y2="512"/><rect fill="none" height="6" style="stroke:#C82930;stroke-width:1.0;" width="6" x="704" y="522.7441"/><text fill="#000000" font-family="sans-serif" font-size="14" lengthAdjust="spacing" textLength="102" x="716" y="529.5352">sha: da13a9b8</text><line style="stroke:#181818;stroke-width:1.0;" x1="697" x2="823" y1="536.4883" y2="536.4883"/><text fill="#000000" font-family="sans-serif" font-size="14" lengthAdjust="spacing" textLength="68" x="702" y="554.0234">ThirdData</text><text fill="#000000" font-family="sans-serif" font-size="14" lengthAdjust="spacing" textLength="4" x="702" y="570.5117"> </text></g><!--class Blob1--><g id="elem_Blob1"><rect codeLine="76" fill="#F1F1F1" height="97.4648" id="Blob1" rx="2.5" ry="2.5" style="stroke:#181818;stroke-width:0.5;" width="128" x="351" y="480"/><ellipse cx="391.65" cy="496" fill="#90EE90" rx="11" ry="11" style="stroke:#181818;stroke-width:1.0;"/><path d="M390.0533,497.3721 L390.0533,501.041 L391.6803,501.041 Q392.8507,501.041 393.3197,500.6426 Q393.7887,500.2441 393.7887,499.2563 Q393.7887,498.252 393.2989,497.812 Q392.8092,497.3721 391.6803,497.3721 Z M390.0533,492.541 L390.0533,495.4214 L391.6803,495.4214 Q392.61,495.4214 393.0042,495.0894 Q393.3985,494.7573 393.3985,493.9937 Q393.3985,493.23 392.9959,492.8855 Q392.5934,492.541 391.6803,492.541 Z M387.6876,490.5903 L391.6803,490.5903 Q393.7472,490.5903 394.7889,491.3748 Q395.8307,492.1592 395.8307,493.7197 Q395.8307,494.915 395.2164,495.5874 Q394.6021,496.2598 393.4151,496.3677 Q394.8346,496.5088 395.5526,497.3223 Q396.2706,498.1357 396.2706,499.5967 Q396.2706,501.3896 395.1915,502.1948 Q394.1124,503 391.6803,503 L387.6876,503 Z " fill="#000000"/><text fill="#000000" font-family="sans-serif" font-size="14" lengthAdjust="spacing" textLength="39" x="411.35" y="501.291">Blob1</text><line style="stroke:#181818;stroke-width:0.5;" x1="352" x2="478" y1="512" y2="512"/><rect fill="none" height="6" style="stroke:#C82930;stroke-width:1.0;" width="6" x="359" y="522.7441"/><text fill="#000000" font-family="sans-serif" font-size="14" lengthAdjust="spacing" textLength="102" x="371" y="529.5352">sha: 795ddc40</text><line style="stroke:#181818;stroke-width:1.0;" x1="352" x2="478" y1="536.4883" y2="536.4883"/><text fill="#000000" font-family="sans-serif" font-size="14" lengthAdjust="spacing" textLength="61" x="357" y="554.0234">FirstData</text><text fill="#000000" font-family="sans-serif" font-size="14" lengthAdjust="spacing" textLength="4" x="357" y="570.5117"> </text></g><!--class Blob2--><g id="elem_Blob2"><rect codeLine="82" fill="#F1F1F1" height="97.4648" id="Blob2" rx="2.5" ry="2.5" style="stroke:#181818;stroke-width:0.5;" width="129" x="531.5" y="480"/><ellipse cx="572.6" cy="496" fill="#ADD8E6" rx="11" ry="11" style="stroke:#181818;stroke-width:1.0;"/><path d="M571.0033,497.3721 L571.0033,501.041 L572.6303,501.041 Q573.8007,501.041 574.2697,500.6426 Q574.7387,500.2441 574.7387,499.2563 Q574.7387,498.252 574.2489,497.812 Q573.7592,497.3721 572.6303,497.3721 Z M571.0033,492.541 L571.0033,495.4214 L572.6303,495.4214 Q573.56,495.4214 573.9542,495.0894 Q574.3485,494.7573 574.3485,493.9937 Q574.3485,493.23 573.9459,492.8855 Q573.5434,492.541 572.6303,492.541 Z M568.6376,490.5903 L572.6303,490.5903 Q574.6972,490.5903 575.7389,491.3748 Q576.7807,492.1592 576.7807,493.7197 Q576.7807,494.915 576.1664,495.5874 Q575.5521,496.2598 574.3651,496.3677 Q575.7846,496.5088 576.5026,497.3223 Q577.2206,498.1357 577.2206,499.5967 Q577.2206,501.3896 576.1415,502.1948 Q575.0624,503 572.6303,503 L568.6376,503 Z " fill="#000000"/><text fill="#000000" font-family="sans-serif" font-size="14" lengthAdjust="spacing" textLength="39" x="592.4" y="501.291">Blob2</text><line style="stroke:#181818;stroke-width:0.5;" x1="532.5" x2="659.5" y1="512" y2="512"/><rect fill="none" height="6" style="stroke:#C82930;stroke-width:1.0;" width="6" x="539.5" y="522.7441"/><text fill="#000000" font-family="sans-serif" font-size="14" lengthAdjust="spacing" textLength="103" x="551.5" y="529.5352">sha: 0ba93614</text><line style="stroke:#181818;stroke-width:1.0;" x1="532.5" x2="659.5" y1="536.4883" y2="536.4883"/><text fill="#000000" font-family="sans-serif" font-size="14" lengthAdjust="spacing" textLength="81" x="537.5" y="554.0234">SecondData</text><text fill="#000000" font-family="sans-serif" font-size="14" lengthAdjust="spacing" textLength="4" x="537.5" y="570.5117"> </text></g><g id="elem_GMN34"><path d="M800.5,6 L800.5,31.3105 A0,0 0 0 0 800.5,31.3105 L828.46,31.3105 L850.14,90.77 L836.46,31.3105 L857.5,31.3105 A0,0 0 0 0 857.5,31.3105 L857.5,16 L847.5,6 L800.5,6 A0,0 0 0 0 800.5,6 " fill="#FFFF00" style="stroke:#181818;stroke-width:0.5;"/><path d="M847.5,6 L847.5,16 L857.5,16 L847.5,6 " fill="#FFFF00" style="stroke:#181818;stroke-width:0.5;"/><text fill="#000000" font-family="sans-serif" font-size="13" lengthAdjust="spacing" textLength="36" x="806.5" y="23.5684">HEAD</text></g><g id="elem_GMN37"><path d="M892.5,6 L892.5,31.3105 A0,0 0 0 0 892.5,31.3105 L949.66,31.3105 L911.05,90.77 L957.66,31.3105 L1031.5,31.3105 A0,0 0 0 0 1031.5,31.3105 L1031.5,16 L1021.5,6 L892.5,6 A0,0 0 0 0 892.5,6 " fill="#FFFF00" style="stroke:#181818;stroke-width:0.5;"/><path d="M1021.5,6 L1021.5,16 L1031.5,16 L1021.5,6 " fill="#FFFF00" style="stroke:#181818;stroke-width:0.5;"/><text fill="#000000" font-family="sans-serif" font-size="13" lengthAdjust="spacing" textLength="118" x="898.5" y="23.5684">refs/heads/master</text></g><g id="elem_GMN40"><path d="M296,6 L296,31.3105 A0,0 0 0 0 296,31.3105 L362,31.3105 L366,90.77 L370,31.3105 L436,31.3105 A0,0 0 0 0 436,31.3105 L436,16 L426,6 L296,6 A0,0 0 0 0 296,6 " fill="#ADD8E6" style="stroke:#181818;stroke-width:0.5;"/><path d="M426,6 L426,16 L436,16 L426,6 " fill="#ADD8E6" style="stroke:#181818;stroke-width:0.5;"/><text fill="#000000" font-family="sans-serif" font-size="13" lengthAdjust="spacing" textLength="119" x="302" y="23.5684">refs/heads/feature</text></g><g id="elem_GMN43"><path d="M529.5,6 L529.5,31.3105 A0,0 0 0 0 529.5,31.3105 L624,31.3105 L628,90.77 L632,31.3105 L726.5,31.3105 A0,0 0 0 0 726.5,31.3105 L726.5,16 L716.5,6 L529.5,6 A0,0 0 0 0 529.5,6 " fill="#FFA500" style="stroke:#181818;stroke-width:0.5;"/><path d="M716.5,6 L716.5,16 L726.5,16 L716.5,6 " fill="#FFA500" style="stroke:#181818;stroke-width:0.5;"/><text fill="#000000" font-family="sans-serif" font-size="13" lengthAdjust="spacing" textLength="176" x="535.5" y="23.5684">refs/remotes/origin/master</text></g><!--link Commit4 to Tree4--><g id="link_Commit4_Tree4"><path codeLine="88" d="M874.9,213.38 C876.84,230.32 878.97,248.99 881.01,266.83 " fill="none" id="Commit4-to-Tree4" style="stroke:#181818;stroke-width:1.0;"/><polygon fill="#181818" points="881.52,271.33,884.463,261.9311,880.9474,266.3629,876.5157,262.8473,881.52,271.33" style="stroke:#181818;stroke-width:1.0;"/></g><!--link Commit3 to Tree3--><g id="link_Commit3_Tree3"><path codeLine="89" d="M628,213.38 C628,232.78 628,254.45 628,274.54 " fill="none" id="Commit3-to-Tree3" style="stroke:#181818;stroke-width:1.0;"/><polygon fill="#181818" points="628,279.49,632,270.49,628,274.49,624,270.49,628,279.49" style="stroke:#181818;stroke-width:1.0;"/></g><!--link Commit2 to Tree2--><g id="link_Commit2_Tree2"><path codeLine="90" d="M366,213.38 C366,235.46 366,260.47 366,282.75 " fill="none" id="Commit2-to-Tree2" style="stroke:#181818;stroke-width:1.0;"/><polygon fill="#181818" points="366,287.75,370,278.75,366,282.75,362,278.75,366,287.75" style="stroke:#181818;stroke-width:1.0;"/></g><!--link Commit1 to Tree1--><g id="link_Commit1_Tree1"><path codeLine="91" d="M122.61,213.38 C120.8,238.28 118.72,266.92 116.95,291.15 " fill="none" id="Commit1-to-Tree1" style="stroke:#181818;stroke-width:1.0;"/><polygon fill="#181818" points="116.6,296.03,121.2576,287.352,116.9715,291.0438,113.2797,286.7577,116.6,296.03" style="stroke:#181818;stroke-width:1.0;"/></g><!--link Tree4 to Blob1--><g id="link_Tree4_Blob1"><path codeLine="92" d="M776.19,412.77 C770.44,415.35 764.69,417.77 759,420 C654.59,460.83 619.55,442.22 514,480 C504.56,483.38 494.82,487.37 485.31,491.59 " fill="none" id="Tree4-to-Blob1" style="stroke:#181818;stroke-width:1.0;"/><polygon fill="#181818" points="480.8,493.62,490.6488,493.5885,485.3625,491.5747,487.3764,486.2885,480.8,493.62" style="stroke:#181818;stroke-width:1.0;"/></g><!--link Tree4 to Blob4--><g id="link_Tree4_Blob4"><path codeLine="93" d="M902.56,420.45 C905.63,438.25 908.85,456.96 911.73,473.68 " fill="none" id="Tree4-to-Blob4" style="stroke:#181818;stroke-width:1.0;"/><polygon fill="#181818" points="912.52,478.25,914.9457,468.7045,911.6772,473.3215,907.0601,470.0531,912.52,478.25" style="stroke:#181818;stroke-width:1.0;"/></g><!--link Tree4 to Blob2--><g id="link_Tree4_Blob2"><path codeLine="94" d="M776.33,417.09 C739.21,439.82 699.1,464.38 666.16,484.55 " fill="none" id="Tree4-to-Blob2" style="stroke:#181818;stroke-width:1.0;"/><polygon fill="#181818" points="662.22,486.96,671.9845,485.6735,666.4846,484.3499,667.8083,478.85,662.22,486.96" style="stroke:#181818;stroke-width:1.0;"/></g><!--link Tree4 to Blob3--><g id="link_Tree4_Blob3"><path codeLine="95" d="M837.31,420.45 C824.24,438.56 810.47,457.62 798.24,474.56 " fill="none" id="Tree4-to-Blob3" style="stroke:#181818;stroke-width:1.0;"/><polygon fill="#181818" points="795.38,478.51,803.8991,473.5679,798.3132,474.4608,797.4204,468.8748,795.38,478.51" style="stroke:#181818;stroke-width:1.0;"/></g><!--link Tree3 to Blob1--><g id="link_Tree3_Blob1"><path codeLine="96" d="M551.7,411.98 C527.07,432.79 500.1,455.59 476.66,475.39 " fill="none" id="Tree3-to-Blob1" style="stroke:#181818;stroke-width:1.0;"/><polygon fill="#181818" points="472.87,478.59,482.3238,475.8285,476.6864,475.3596,477.1552,469.7223,472.87,478.59" style="stroke:#181818;stroke-width:1.0;"/></g><!--link Tree3 to Blob2--><g id="link_Tree3_Blob2"><path codeLine="97" d="M616.54,411.98 C612.96,432.09 609.06,454.06 605.62,473.39 " fill="none" id="Tree3-to-Blob2" style="stroke:#181818;stroke-width:1.0;"/><polygon fill="#181818" points="604.79,478.08,610.3,469.9167,605.663,473.1568,602.4229,468.5198,604.79,478.08" style="stroke:#181818;stroke-width:1.0;"/></g><!--link Tree3 to Blob3--><g id="link_Tree3_Blob3"><path codeLine="98" d="M675.28,411.98 C690.35,432.53 706.84,455.02 721.24,474.64 " fill="none" id="Tree3-to-Blob3" style="stroke:#181818;stroke-width:1.0;"/><polygon fill="#181818" points="723.96,478.35,721.8589,468.7279,721.0013,474.3193,715.4099,473.4618,723.96,478.35" style="stroke:#181818;stroke-width:1.0;"/></g><!--link Tree2 to Blob1--><g id="link_Tree2_Blob1"><path codeLine="99" d="M381.37,403.96 C387.42,426.2 394.35,451.63 400.33,473.61 " fill="none" id="Tree2-to-Blob1" style="stroke:#181818;stroke-width:1.0;"/><polygon fill="#181818" points="401.59,478.26,403.0859,468.5254,400.2768,473.4355,395.3667,470.6265,401.59,478.26" style="stroke:#181818;stroke-width:1.0;"/></g><!--link Tree2 to Blob2--><g id="link_Tree2_Blob2"><path codeLine="100" d="M438.14,403.96 C467.53,426.96 501.28,453.37 530.01,475.86 " fill="none" id="Tree2-to-Blob2" style="stroke:#181818;stroke-width:1.0;"/><polygon fill="#181818" points="533.75,478.78,529.1081,470.0936,529.8055,475.7073,524.1919,476.4048,533.75,478.78" style="stroke:#181818;stroke-width:1.0;"/></g><!--link Tree1 to Blob1--><g id="link_Tree1_Blob1"><path codeLine="101" d="M193.14,395.26 C240.49,423.49 299.87,458.88 345.28,485.94 " fill="none" id="Tree1-to-Blob1" style="stroke:#181818;stroke-width:1.0;"/><polygon fill="#181818" points="349.44,488.43,343.749,480.3918,345.1425,485.8743,339.66,487.2678,349.44,488.43" style="stroke:#181818;stroke-width:1.0;"/></g><!--reverse link Commit2 to Commit3--><g id="link_Commit2_Commit3"><path codeLine="102" d="M472.1,152 C493.44,152 514.78,152 536.12,152 " fill="none" id="Commit2-backto-Commit3" style="stroke:#181818;stroke-width:1.0;"/><polygon fill="#181818" points="467.3,152,476.3,156,472.3,152,476.3,148,467.3,152" style="stroke:#181818;stroke-width:1.0;"/></g><!--reverse link Commit1 to Commit2--><g id="link_Commit1_Commit2"><path codeLine="103" d="M224.81,152 C238.55,152 252.29,152 266.03,152 " fill="none" id="Commit1-backto-Commit2" style="stroke:#181818;stroke-width:1.0;"/><polygon fill="#181818" points="220.01,152,229.01,156,225.01,152,229.01,148,220.01,152" style="stroke:#181818;stroke-width:1.0;"/></g><!--reverse link Commit3 to Commit4--><g id="link_Commit3_Commit4"><path codeLine="104" d="M725.98,152 C742.56,152 759.13,152 775.71,152 " fill="none" id="Commit3-backto-Commit4" style="stroke:#181818;stroke-width:1.0;"/><polygon fill="#181818" points="721.39,152,730.39,156,726.39,152,730.39,148,721.39,152" style="stroke:#181818;stroke-width:1.0;"/></g><!--SRC=[hLJRZjiW47tdAv3oqafrmyqEZbQHkhkj-jxy00ISMBB3oX2rLTL_hssABzYxUMWVcJDdpimSu5G9Q-6JgUlICVZmyExfmqzTLURx-yC1_WA9lOWz94oJFCCxa2IWrjQAizv3ePHMi32DktnqFnpeG5Usi1FronxYb2FE44eP-0rE4nNgLKmZhcSzLU4iLxoGOaN5NSf6lQg2QOv8f4AyIbMUBqvMjvbGdbCfKvck25bzCjUtb70MA-69qhdH-ZgLGehoBEV5skRAnhhNbGZdu-QERTtUdUEAEvBj1EP2TsKsOrc84SeOWxiyLUh4K8S5imA6vAwG9oLRh9-yc8CYfnbcBJZiFs1AO2fooS6iHUfRN5fBMP5opCdz5lz76yItiUez8Jh3dAD_wcIcXYTg2_-fuWZfLDoJ6oe-LaRsJZ-kE3tOrLRxOcwjcS_2YJcPUlBIWs5NBVdOBNB9nPwxFihGQoVU3RBaama_Nloml9R-hNzbWHy-doGv-8iEmaSH8XI4HnqY18J75o8O-4VIdVjPeZEBpYGwK-1ly9nFetmQvPCedqJvU88FKrLjwEz0us1Z48yR6OCKN8tJq9aNQ8hXlzxuEmBtyEldJyztKXfTsEr52sMtjR1EDolv16u6z-QKGWjtQ_GAXyADlss1qEYwJR9RqvJdyXh4_W00]--></g></svg>