<?xml version="1.0" encoding="UTF-8" standalone="no"?><svg xmlns="http://www.w3.org/2000/svg" xmlns:xlink="http://www.w3.org/1999/xlink" contentStyleType="text/css" height="467px" preserveAspectRatio="none" style="width:487px;height:467px;background:#FFFFFF;" version="1.1" viewBox="0 0 487 467" width="487px" zoomAndPan="magnify"><defs/><g><!--class Commit2--><g id="elem_Commit2"><rect codeLine="2" fill="#F1F1F1" height="121.9531" id="Commit2" rx="2.5" ry="2.5" style="stroke:#181818;stroke-width:0.5;" width="184" x="264.5" y="7"/><ellipse cx="320.75" cy="23" fill="#ADD8E6" rx="11" ry="11" style="stroke:#181818;stroke-width:1.0;"/><path d="M323.2231,29.1431 Q322.6421,29.4419 322.0029,29.5913 Q321.3638,29.7407 320.6582,29.7407 Q318.1514,29.7407 316.8315,28.0889 Q315.5117,26.437 315.5117,23.3159 Q315.5117,20.1865 316.8315,18.5347 Q318.1514,16.8828 320.6582,16.8828 Q321.3638,16.8828 322.0112,17.0322 Q322.6587,17.1816 323.2231,17.4805 L323.2231,20.2031 Q322.5923,19.6221 321.9988,19.3523 Q321.4053,19.0825 320.7744,19.0825 Q319.4297,19.0825 318.7449,20.1492 Q318.0601,21.2158 318.0601,23.3159 Q318.0601,25.4077 318.7449,26.4744 Q319.4297,27.541 320.7744,27.541 Q321.4053,27.541 321.9988,27.2712 Q322.5923,27.0015 323.2231,26.4204 Z " fill="#000000"/><text fill="#000000" font-family="sans-serif" font-size="14" lengthAdjust="spacing" textLength="63" x="341.25" y="28.291">Commit2</text><line style="stroke:#181818;stroke-width:0.5;" x1="265.5" x2="447.5" y1="39" y2="39"/><rect fill="none" height="6" style="stroke:#C82930;stroke-width:1.0;" width="6" x="272.5" y="49.7441"/><text fill="#000000" font-family="sans-serif" font-size="14" lengthAdjust="spacing" textLength="103" x="284.5" y="56.5352">sha: 6b3a7927</text><line style="stroke:#181818;stroke-width:1.0;" x1="265.5" x2="447.5" y1="63.4883" y2="63.4883"/><text fill="#000000" font-family="sans-serif" font-size="14" lengthAdjust="spacing" textLength="172" x="270.5" y="81.0234">message: second commit</text><text fill="#000000" font-family="sans-serif" font-size="14" lengthAdjust="spacing" textLength="4" x="270.5" y="97.5117"> </text><line style="stroke:#181818;stroke-width:1.0;" x1="265.5" x2="447.5" y1="104.4648" y2="104.4648"/><text fill="#000000" font-family="sans-serif" font-size="14" lengthAdjust="spacing" textLength="170" x="270.5" y="122">timestamp: 1580904953</text></g><!--class Commit1--><g id="elem_Commit1"><rect codeLine="10" fill="#F1F1F1" height="121.9531" id="Commit1" rx="2.5" ry="2.5" style="stroke:#181818;stroke-width:0.5;" width="182" x="30.5" y="7"/><ellipse cx="85.75" cy="23" fill="#90EE90" rx="11" ry="11" style="stroke:#181818;stroke-width:1.0;"/><path d="M88.2231,29.1431 Q87.6421,29.4419 87.0029,29.5913 Q86.3638,29.7407 85.6582,29.7407 Q83.1514,29.7407 81.8315,28.0889 Q80.5117,26.437 80.5117,23.3159 Q80.5117,20.1865 81.8315,18.5347 Q83.1514,16.8828 85.6582,16.8828 Q86.3638,16.8828 87.0112,17.0322 Q87.6587,17.1816 88.2231,17.4805 L88.2231,20.2031 Q87.5923,19.6221 86.9988,19.3523 Q86.4053,19.0825 85.7744,19.0825 Q84.4297,19.0825 83.7449,20.1492 Q83.0601,21.2158 83.0601,23.3159 Q83.0601,25.4077 83.7449,26.4744 Q84.4297,27.541 85.7744,27.541 Q86.4053,27.541 86.9988,27.2712 Q87.5923,27.0015 88.2231,26.4204 Z " fill="#000000"/><text fill="#000000" font-family="sans-serif" font-size="14" lengthAdjust="spacing" textLength="63" x="106.25" y="28.291">Commit1</text><line style="stroke:#181818;stroke-width:0.5;" x1="31.5" x2="211.5" y1="39" y2="39"/><rect fill="none" height="6" style="stroke:#C82930;stroke-width:1.0;" width="6" x="38.5" y="49.7441"/><text fill="#000000" font-family="sans-serif" font-size="14" lengthAdjust="spacing" textLength="100" x="50.5" y="56.5352">sha: 2aae0a64</text><line style="stroke:#181818;stroke-width:1.0;" x1="31.5" x2="211.5" y1="63.4883" y2="63.4883"/><text fill="#000000" font-family="sans-serif" font-size="14" lengthAdjust="spacing" textLength="150" x="36.5" y="81.0234">message: first commit</text><text fill="#000000" font-family="sans-serif" font-size="14" lengthAdjust="spacing" textLength="4" x="36.5" y="97.5117"> </text><line style="stroke:#181818;stroke-width:1.0;" x1="31.5" x2="211.5" y1="104.4648" y2="104.4648"/><text fill="#000000" font-family="sans-serif" font-size="14" lengthAdjust="spacing" textLength="170" x="36.5" y="122">timestamp: 1580904123</text></g><!--class Tree2--><g id="elem_Tree2"><rect codeLine="18" fill="#F1F1F1" height="113.9531" id="Tree2" rx="2.5" ry="2.5" style="stroke:#181818;stroke-width:0.5;" width="229" x="251" y="189"/><ellipse cx="341.25" cy="205" fill="#ADD8E6" rx="11" ry="11" style="stroke:#181818;stroke-width:1.0;"/><path d="M342.5918,212.25 L340.1431,212.25 L340.1431,201.9985 L336.9971,201.9985 L336.9971,199.8569 L345.7378,199.8569 L345.7378,201.9985 L342.5918,201.9985 Z " fill="#000000"/><text fill="#000000" font-family="sans-serif" font-size="14" lengthAdjust="spacing" textLength="40" x="361.75" y="210.291">Tree2</text><line style="stroke:#181818;stroke-width:0.5;" x1="252" x2="479" y1="221" y2="221"/><rect fill="none" height="6" style="stroke:#C82930;stroke-width:1.0;" width="6" x="259" y="231.7441"/><text fill="#000000" font-family="sans-serif" font-size="14" lengthAdjust="spacing" textLength="104" x="271" y="238.5352">sha: 73d4372b</text><line style="stroke:#181818;stroke-width:1.0;" x1="252" x2="479" y1="245.4883" y2="245.4883"/><polygon fill="none" points="262,254.2324,266,258.2324,262,262.2324,258,258.2324" style="stroke:#B38D22;stroke-width:1.0;"/><text fill="#000000" font-family="sans-serif" font-size="14" lengthAdjust="spacing" textLength="181" x="271" y="263.0234">first.txt 100644 9649cde9</text><polygon fill="none" points="262,270.7207,266,274.7207,262,278.7207,258,274.7207" style="stroke:#B38D22;stroke-width:1.0;"/><text fill="#000000" font-family="sans-serif" font-size="14" lengthAdjust="spacing" textLength="203" x="271" y="279.5117">second.txt 100644 9649cde9</text><text fill="#000000" font-family="sans-serif" font-size="14" lengthAdjust="spacing" textLength="4" x="271" y="296"> </text></g><!--class Tree1--><g id="elem_Tree1"><rect codeLine="25" fill="#F1F1F1" height="97.4648" id="Tree1" rx="2.5" ry="2.5" style="stroke:#181818;stroke-width:0.5;" width="207" x="9" y="197.5"/><ellipse cx="88.25" cy="213.5" fill="#90EE90" rx="11" ry="11" style="stroke:#181818;stroke-width:1.0;"/><path d="M89.5918,220.75 L87.1431,220.75 L87.1431,210.4985 L83.9971,210.4985 L83.9971,208.3569 L92.7378,208.3569 L92.7378,210.4985 L89.5918,210.4985 Z " fill="#000000"/><text fill="#000000" font-family="sans-serif" font-size="14" lengthAdjust="spacing" textLength="40" x="108.75" y="218.791">Tree1</text><line style="stroke:#181818;stroke-width:0.5;" x1="10" x2="215" y1="229.5" y2="229.5"/><rect fill="none" height="6" style="stroke:#C82930;stroke-width:1.0;" width="6" x="17" y="240.2441"/><text fill="#000000" font-family="sans-serif" font-size="14" lengthAdjust="spacing" textLength="98" x="29" y="247.0352">sha: 5b9ddc8f</text><line style="stroke:#181818;stroke-width:1.0;" x1="10" x2="215" y1="253.9883" y2="253.9883"/><polygon fill="none" points="20,262.7324,24,266.7324,20,270.7324,16,266.7324" style="stroke:#B38D22;stroke-width:1.0;"/><text fill="#000000" font-family="sans-serif" font-size="14" lengthAdjust="spacing" textLength="181" x="29" y="271.5234">first.txt 100644 9649cde9</text><text fill="#000000" font-family="sans-serif" font-size="14" lengthAdjust="spacing" textLength="4" x="29" y="288.0117"> </text></g><!--class Blob1--><g id="elem_Blob1"><rect codeLine="31" fill="#F1F1F1" height="97.4648" id="Blob1" rx="2.5" ry="2.5" style="stroke:#181818;stroke-width:0.5;" width="127" x="302" y="363"/><ellipse cx="342.2" cy="379" fill="#90EE90" rx="11" ry="11" style="stroke:#181818;stroke-width:1.0;"/><path d="M340.6033,380.3721 L340.6033,384.041 L342.2303,384.041 Q343.4007,384.041 343.8697,383.6426 Q344.3387,383.2441 344.3387,382.2563 Q344.3387,381.252 343.8489,380.812 Q343.3592,380.3721 342.2303,380.3721 Z M340.6033,375.541 L340.6033,378.4214 L342.2303,378.4214 Q343.16,378.4214 343.5542,378.0894 Q343.9485,377.7573 343.9485,376.9937 Q343.9485,376.23 343.5459,375.8855 Q343.1434,375.541 342.2303,375.541 Z M338.2376,373.5903 L342.2303,373.5903 Q344.2972,373.5903 345.3389,374.3748 Q346.3807,375.1592 346.3807,376.7197 Q346.3807,377.915 345.7664,378.5874 Q345.1521,379.2598 343.9651,379.3677 Q345.3846,379.5088 346.1026,380.3223 Q346.8206,381.1357 346.8206,382.5967 Q346.8206,384.3896 345.7415,385.1948 Q344.6624,386 342.2303,386 L338.2376,386 Z " fill="#000000"/><text fill="#000000" font-family="sans-serif" font-size="14" lengthAdjust="spacing" textLength="39" x="361.8" y="384.291">Blob1</text><line style="stroke:#181818;stroke-width:0.5;" x1="303" x2="428" y1="395" y2="395"/><rect fill="none" height="6" style="stroke:#C82930;stroke-width:1.0;" width="6" x="310" y="405.7441"/><text fill="#000000" font-family="sans-serif" font-size="14" lengthAdjust="spacing" textLength="101" x="322" y="412.5352">sha: 9649cde9</text><line style="stroke:#181818;stroke-width:1.0;" x1="303" x2="428" y1="419.4883" y2="419.4883"/><text fill="#000000" font-family="sans-serif" font-size="14" lengthAdjust="spacing" textLength="59" x="308" y="437.0234">First line</text><text fill="#000000" font-family="sans-serif" font-size="14" lengthAdjust="spacing" textLength="4" x="308" y="453.5117"> </text></g><!--link Commit2 to Tree2--><g id="link_Commit2_Tree2"><path codeLine="37" d="M359.57,129.08 C360.45,146.28 361.41,165.08 362.3,182.43 " fill="none" id="Commit2-to-Tree2" style="stroke:#181818;stroke-width:1.0;"/><polygon fill="#181818" points="362.55,187.24,366.0825,178.0464,362.2932,182.2466,358.093,178.4573,362.55,187.24" style="stroke:#181818;stroke-width:1.0;"/></g><!--link Commit1 to Tree1--><g id="link_Commit1_Tree1"><path codeLine="38" d="M118.43,129.08 C117.4,149.12 116.27,171.31 115.27,190.87 " fill="none" id="Commit1-to-Tree1" style="stroke:#181818;stroke-width:1.0;"/><polygon fill="#181818" points="115.03,195.61,119.487,186.8273,115.2868,190.6166,111.4975,186.4164,115.03,195.61" style="stroke:#181818;stroke-width:1.0;"/></g><!--link Tree2 to Blob1--><g id="link_Tree2_Blob1"><path codeLine="39" d="M353.32,303.27 C352.53,320.46 352.56,339.33 353.42,356.38 " fill="none" id="Tree2-to-Blob1" style="stroke:#181818;stroke-width:1.0;"/><polygon fill="#181818" points="353.69,361.06,357.1685,351.8459,353.4039,356.0682,349.1816,352.3036,353.69,361.06" style="stroke:#181818;stroke-width:1.0;"/></g><!--link Tree2 to Blob1--><g id="link_Tree2_Blob1"><path codeLine="40" d="M378.4,303.27 C379.24,320.46 379.2,339.33 378.29,356.38 " fill="none" id="Tree2-to-Blob1-1" style="stroke:#181818;stroke-width:1.0;"/><polygon fill="#181818" points="378.01,361.06,382.5418,352.3157,378.3095,356.069,374.5562,351.8366,378.01,361.06" style="stroke:#181818;stroke-width:1.0;"/></g><!--link Tree1 to Blob1--><g id="link_Tree1_Blob1"><path codeLine="41" d="M186.7,294.95 C221.3,317.31 262.24,343.77 296.2,365.72 " fill="none" id="Tree1-to-Blob1" style="stroke:#181818;stroke-width:1.0;"/><polygon fill="#181818" points="300.32,368.38,294.9322,360.1355,296.1206,365.6661,290.59,366.8545,300.32,368.38" style="stroke:#181818;stroke-width:1.0;"/></g><!--reverse link Commit1 to Commit2--><g id="link_Commit1_Commit2"><path codeLine="42" d="M219.26,68 C234.23,68 249.21,68 264.19,68 " fill="none" id="Commit1-backto-Commit2" style="stroke:#181818;stroke-width:1.0;"/><polygon fill="#181818" points="214.35,68,223.35,72,219.35,68,223.35,64,214.35,68" style="stroke:#181818;stroke-width:1.0;"/></g><!--SRC=[XP7DIiGm54RtUOg06mKZIPgsap9qCGC-mRn0_gOJI5kPH134TpTDRSrWrUNDnps7-qKvuJqyZdrl0uNx_VtnqTdk4gHxDGzj2zy1yXVHm4eMekQq1WY1tdWlEjD0RzGuQAZIDfYYO6COHF_IG5BkCCUCbmNu02hJa4pJNOqPSWyLmc1HiHlFsLvz-5j3wBVc5A7fbjFsBNMXML5JEP7kPlXJU0kGO5mn1dd5kDA6nsm-S3EyiP7CzkEaKdAjrUxydsub7jme4_7m2t5TYSJdr8spWva0oqSYrCurWANpvOM0kPvfJgBDcMJpodJnwGi7FW40]--></g></svg>